<mxfile host="app.diagrams.net" modified="2021-07-20T07:50:17.631Z" agent="5.0 (Macintosh; Intel Mac OS X 10_15_0) AppleWebKit/537.36 (KHTML, like Gecko) Chrome/91.0.4472.114 Safari/537.36" etag="fqINVeRPnUFUnmsCKovB" version="14.8.6" type="github" pages="2">
  <diagram id="KB1vcJfw8zj7qNLRG0oM" name="Page-1">
    <mxGraphModel dx="946" dy="1783" grid="1" gridSize="10" guides="1" tooltips="1" connect="1" arrows="1" fold="1" page="1" pageScale="1" pageWidth="827" pageHeight="1169" math="0" shadow="0">
      <root>
        <mxCell id="0" />
        <mxCell id="1" parent="0" />
        <mxCell id="Qtu0secbyMmHB0UshVdj-67" value="" style="rounded=0;whiteSpace=wrap;html=1;dashed=1;" vertex="1" parent="1">
          <mxGeometry x="910" y="515" width="150" height="225" as="geometry" />
        </mxCell>
        <mxCell id="Qtu0secbyMmHB0UshVdj-61" value="" style="rounded=0;whiteSpace=wrap;html=1;dashed=1;" vertex="1" parent="1">
          <mxGeometry x="730" y="520" width="150" height="215" as="geometry" />
        </mxCell>
        <mxCell id="Qtu0secbyMmHB0UshVdj-51" value="" style="rounded=0;whiteSpace=wrap;html=1;dashed=1;" vertex="1" parent="1">
          <mxGeometry x="550" y="555" width="140" height="145" as="geometry" />
        </mxCell>
        <mxCell id="Qtu0secbyMmHB0UshVdj-1" value="APP" style="ellipse;whiteSpace=wrap;html=1;aspect=fixed;" vertex="1" parent="1">
          <mxGeometry x="10" y="120" width="80" height="80" as="geometry" />
        </mxCell>
        <mxCell id="Qtu0secbyMmHB0UshVdj-5" value="" style="edgeStyle=orthogonalEdgeStyle;rounded=0;orthogonalLoop=1;jettySize=auto;html=1;" edge="1" parent="1" source="Qtu0secbyMmHB0UshVdj-2" target="Qtu0secbyMmHB0UshVdj-4">
          <mxGeometry relative="1" as="geometry" />
        </mxCell>
        <mxCell id="Qtu0secbyMmHB0UshVdj-15" value="进程&lt;br&gt;VS线程" style="edgeLabel;html=1;align=center;verticalAlign=middle;resizable=0;points=[];" vertex="1" connectable="0" parent="Qtu0secbyMmHB0UshVdj-5">
          <mxGeometry x="-0.1" relative="1" as="geometry">
            <mxPoint as="offset" />
          </mxGeometry>
        </mxCell>
        <mxCell id="Qtu0secbyMmHB0UshVdj-13" value="" style="edgeStyle=orthogonalEdgeStyle;rounded=0;orthogonalLoop=1;jettySize=auto;html=1;" edge="1" parent="1" source="Qtu0secbyMmHB0UshVdj-2" target="Qtu0secbyMmHB0UshVdj-12">
          <mxGeometry relative="1" as="geometry" />
        </mxCell>
        <mxCell id="Qtu0secbyMmHB0UshVdj-14" value="多核并发VS并行" style="edgeLabel;html=1;align=center;verticalAlign=middle;resizable=0;points=[];" vertex="1" connectable="0" parent="Qtu0secbyMmHB0UshVdj-13">
          <mxGeometry x="-0.1273" y="1" relative="1" as="geometry">
            <mxPoint as="offset" />
          </mxGeometry>
        </mxCell>
        <mxCell id="Qtu0secbyMmHB0UshVdj-2" value="进程" style="rounded=0;whiteSpace=wrap;html=1;" vertex="1" parent="1">
          <mxGeometry x="130" y="135" width="110" height="50" as="geometry" />
        </mxCell>
        <mxCell id="Qtu0secbyMmHB0UshVdj-3" value="" style="endArrow=classic;html=1;exitX=1;exitY=0.5;exitDx=0;exitDy=0;entryX=0;entryY=0.5;entryDx=0;entryDy=0;" edge="1" parent="1" source="Qtu0secbyMmHB0UshVdj-1" target="Qtu0secbyMmHB0UshVdj-2">
          <mxGeometry width="50" height="50" relative="1" as="geometry">
            <mxPoint x="100" y="290" as="sourcePoint" />
            <mxPoint x="150" y="240" as="targetPoint" />
          </mxGeometry>
        </mxCell>
        <mxCell id="Qtu0secbyMmHB0UshVdj-7" value="" style="edgeStyle=orthogonalEdgeStyle;rounded=0;orthogonalLoop=1;jettySize=auto;html=1;" edge="1" parent="1" source="Qtu0secbyMmHB0UshVdj-4" target="Qtu0secbyMmHB0UshVdj-6">
          <mxGeometry relative="1" as="geometry" />
        </mxCell>
        <mxCell id="Qtu0secbyMmHB0UshVdj-4" value="线程" style="rounded=0;whiteSpace=wrap;html=1;" vertex="1" parent="1">
          <mxGeometry x="300" y="135" width="70" height="50" as="geometry" />
        </mxCell>
        <mxCell id="Qtu0secbyMmHB0UshVdj-9" value="" style="edgeStyle=orthogonalEdgeStyle;rounded=0;orthogonalLoop=1;jettySize=auto;html=1;" edge="1" parent="1" source="Qtu0secbyMmHB0UshVdj-6" target="Qtu0secbyMmHB0UshVdj-8">
          <mxGeometry relative="1" as="geometry" />
        </mxCell>
        <mxCell id="Qtu0secbyMmHB0UshVdj-6" value="状态" style="rounded=0;whiteSpace=wrap;html=1;" vertex="1" parent="1">
          <mxGeometry x="420" y="135" width="70" height="50" as="geometry" />
        </mxCell>
        <mxCell id="Qtu0secbyMmHB0UshVdj-11" value="" style="edgeStyle=orthogonalEdgeStyle;rounded=0;orthogonalLoop=1;jettySize=auto;html=1;" edge="1" parent="1" source="Qtu0secbyMmHB0UshVdj-8" target="Qtu0secbyMmHB0UshVdj-10">
          <mxGeometry relative="1" as="geometry" />
        </mxCell>
        <mxCell id="Qtu0secbyMmHB0UshVdj-8" value="实现方式" style="rounded=0;whiteSpace=wrap;html=1;" vertex="1" parent="1">
          <mxGeometry x="540" y="135" width="60" height="50" as="geometry" />
        </mxCell>
        <mxCell id="Qtu0secbyMmHB0UshVdj-10" value="API使用" style="rounded=0;whiteSpace=wrap;html=1;" vertex="1" parent="1">
          <mxGeometry x="640" y="135" width="60" height="50" as="geometry" />
        </mxCell>
        <mxCell id="Qtu0secbyMmHB0UshVdj-17" value="" style="edgeStyle=orthogonalEdgeStyle;rounded=0;orthogonalLoop=1;jettySize=auto;html=1;entryX=0.1;entryY=0.5;entryDx=0;entryDy=0;entryPerimeter=0;exitX=1;exitY=0.5;exitDx=0;exitDy=0;" edge="1" parent="1" source="Qtu0secbyMmHB0UshVdj-12" target="Qtu0secbyMmHB0UshVdj-20">
          <mxGeometry relative="1" as="geometry">
            <mxPoint x="300" y="100" as="sourcePoint" />
            <Array as="points">
              <mxPoint x="240" y="280" />
            </Array>
          </mxGeometry>
        </mxCell>
        <mxCell id="Qtu0secbyMmHB0UshVdj-18" value="对内" style="edgeLabel;html=1;align=center;verticalAlign=middle;resizable=0;points=[];" vertex="1" connectable="0" parent="Qtu0secbyMmHB0UshVdj-17">
          <mxGeometry x="-0.05" y="1" relative="1" as="geometry">
            <mxPoint as="offset" />
          </mxGeometry>
        </mxCell>
        <mxCell id="Qtu0secbyMmHB0UshVdj-12" value="多线程" style="rounded=0;whiteSpace=wrap;html=1;" vertex="1" parent="1">
          <mxGeometry x="130" y="255" width="110" height="50" as="geometry" />
        </mxCell>
        <mxCell id="Qtu0secbyMmHB0UshVdj-20" value="" style="shape=curlyBracket;whiteSpace=wrap;html=1;rounded=1;" vertex="1" parent="1">
          <mxGeometry x="320" y="220" width="20" height="120" as="geometry" />
        </mxCell>
        <mxCell id="Qtu0secbyMmHB0UshVdj-24" value="" style="edgeStyle=orthogonalEdgeStyle;rounded=0;orthogonalLoop=1;jettySize=auto;html=1;" edge="1" parent="1" source="Qtu0secbyMmHB0UshVdj-21" target="Qtu0secbyMmHB0UshVdj-23">
          <mxGeometry relative="1" as="geometry" />
        </mxCell>
        <mxCell id="Qtu0secbyMmHB0UshVdj-21" value="死锁" style="rounded=0;whiteSpace=wrap;html=1;" vertex="1" parent="1">
          <mxGeometry x="340" y="200" width="60" height="50" as="geometry" />
        </mxCell>
        <mxCell id="Qtu0secbyMmHB0UshVdj-22" value="活锁" style="rounded=0;whiteSpace=wrap;html=1;" vertex="1" parent="1">
          <mxGeometry x="340" y="300" width="60" height="50" as="geometry" />
        </mxCell>
        <mxCell id="Qtu0secbyMmHB0UshVdj-26" value="" style="edgeStyle=orthogonalEdgeStyle;rounded=0;orthogonalLoop=1;jettySize=auto;html=1;" edge="1" parent="1" source="Qtu0secbyMmHB0UshVdj-23" target="Qtu0secbyMmHB0UshVdj-25">
          <mxGeometry relative="1" as="geometry" />
        </mxCell>
        <mxCell id="Qtu0secbyMmHB0UshVdj-23" value="定义" style="rounded=0;whiteSpace=wrap;html=1;" vertex="1" parent="1">
          <mxGeometry x="440" y="200" width="60" height="50" as="geometry" />
        </mxCell>
        <mxCell id="Qtu0secbyMmHB0UshVdj-28" value="" style="edgeStyle=orthogonalEdgeStyle;rounded=0;orthogonalLoop=1;jettySize=auto;html=1;" edge="1" parent="1" source="Qtu0secbyMmHB0UshVdj-25" target="Qtu0secbyMmHB0UshVdj-27">
          <mxGeometry relative="1" as="geometry" />
        </mxCell>
        <mxCell id="Qtu0secbyMmHB0UshVdj-25" value="避免" style="rounded=0;whiteSpace=wrap;html=1;" vertex="1" parent="1">
          <mxGeometry x="540" y="200" width="60" height="50" as="geometry" />
        </mxCell>
        <mxCell id="Qtu0secbyMmHB0UshVdj-30" value="" style="edgeStyle=orthogonalEdgeStyle;rounded=0;orthogonalLoop=1;jettySize=auto;html=1;" edge="1" parent="1" source="Qtu0secbyMmHB0UshVdj-27" target="Qtu0secbyMmHB0UshVdj-29">
          <mxGeometry relative="1" as="geometry" />
        </mxCell>
        <mxCell id="Qtu0secbyMmHB0UshVdj-27" value="检测&amp;amp;排查" style="rounded=0;whiteSpace=wrap;html=1;" vertex="1" parent="1">
          <mxGeometry x="640" y="200" width="60" height="50" as="geometry" />
        </mxCell>
        <mxCell id="Qtu0secbyMmHB0UshVdj-29" value="工具使用" style="rounded=0;whiteSpace=wrap;html=1;" vertex="1" parent="1">
          <mxGeometry x="740" y="200" width="60" height="50" as="geometry" />
        </mxCell>
        <mxCell id="Qtu0secbyMmHB0UshVdj-32" value="" style="endArrow=classic;html=1;exitX=0.5;exitY=1;exitDx=0;exitDy=0;entryX=0;entryY=0.5;entryDx=0;entryDy=0;" edge="1" parent="1" source="Qtu0secbyMmHB0UshVdj-12" target="Qtu0secbyMmHB0UshVdj-34">
          <mxGeometry width="50" height="50" relative="1" as="geometry">
            <mxPoint x="180" y="470" as="sourcePoint" />
            <mxPoint x="327" y="535" as="targetPoint" />
            <Array as="points">
              <mxPoint x="185" y="430" />
            </Array>
          </mxGeometry>
        </mxCell>
        <mxCell id="Qtu0secbyMmHB0UshVdj-33" value="对外" style="edgeLabel;html=1;align=center;verticalAlign=middle;resizable=0;points=[];" vertex="1" connectable="0" parent="Qtu0secbyMmHB0UshVdj-32">
          <mxGeometry x="0.6613" y="1" relative="1" as="geometry">
            <mxPoint as="offset" />
          </mxGeometry>
        </mxCell>
        <mxCell id="Qtu0secbyMmHB0UshVdj-34" value="数据" style="ellipse;whiteSpace=wrap;html=1;" vertex="1" parent="1">
          <mxGeometry x="320" y="390" width="120" height="80" as="geometry" />
        </mxCell>
        <mxCell id="Qtu0secbyMmHB0UshVdj-35" value="" style="endArrow=classic;html=1;exitX=1;exitY=0.5;exitDx=0;exitDy=0;entryX=0.5;entryY=0;entryDx=0;entryDy=0;" edge="1" parent="1" source="Qtu0secbyMmHB0UshVdj-10" target="Qtu0secbyMmHB0UshVdj-34">
          <mxGeometry width="50" height="50" relative="1" as="geometry">
            <mxPoint x="580" y="400" as="sourcePoint" />
            <mxPoint x="630" y="350" as="targetPoint" />
            <Array as="points">
              <mxPoint x="850" y="160" />
              <mxPoint x="850" y="360" />
              <mxPoint x="380" y="360" />
            </Array>
          </mxGeometry>
        </mxCell>
        <mxCell id="Qtu0secbyMmHB0UshVdj-37" value="竞态条件" style="ellipse;shape=cloud;whiteSpace=wrap;html=1;" vertex="1" parent="1">
          <mxGeometry x="270" y="380" width="100" height="45" as="geometry" />
        </mxCell>
        <mxCell id="Qtu0secbyMmHB0UshVdj-38" value="" style="shape=curlyBracket;whiteSpace=wrap;html=1;rounded=1;" vertex="1" parent="1">
          <mxGeometry x="414" y="480" width="20" height="120" as="geometry" />
        </mxCell>
        <mxCell id="Qtu0secbyMmHB0UshVdj-39" value="" style="endArrow=classic;html=1;entryX=0.1;entryY=0.5;entryDx=0;entryDy=0;entryPerimeter=0;exitX=0.5;exitY=1;exitDx=0;exitDy=0;" edge="1" parent="1" source="Qtu0secbyMmHB0UshVdj-34" target="Qtu0secbyMmHB0UshVdj-38">
          <mxGeometry width="50" height="50" relative="1" as="geometry">
            <mxPoint x="300" y="620" as="sourcePoint" />
            <mxPoint x="350" y="570" as="targetPoint" />
            <Array as="points">
              <mxPoint x="380" y="540" />
            </Array>
          </mxGeometry>
        </mxCell>
        <mxCell id="Qtu0secbyMmHB0UshVdj-42" value="不安全核心因素" style="edgeLabel;html=1;align=center;verticalAlign=middle;resizable=0;points=[];" vertex="1" connectable="0" parent="Qtu0secbyMmHB0UshVdj-39">
          <mxGeometry x="-0.3208" y="-1" relative="1" as="geometry">
            <mxPoint as="offset" />
          </mxGeometry>
        </mxCell>
        <mxCell id="Qtu0secbyMmHB0UshVdj-45" value="" style="edgeStyle=orthogonalEdgeStyle;rounded=0;orthogonalLoop=1;jettySize=auto;html=1;exitX=0.5;exitY=0;exitDx=0;exitDy=0;" edge="1" parent="1" source="Qtu0secbyMmHB0UshVdj-40" target="Qtu0secbyMmHB0UshVdj-44">
          <mxGeometry relative="1" as="geometry" />
        </mxCell>
        <mxCell id="Qtu0secbyMmHB0UshVdj-46" value="不可变" style="edgeLabel;html=1;align=center;verticalAlign=middle;resizable=0;points=[];" vertex="1" connectable="0" parent="Qtu0secbyMmHB0UshVdj-45">
          <mxGeometry x="-0.0429" y="1" relative="1" as="geometry">
            <mxPoint as="offset" />
          </mxGeometry>
        </mxCell>
        <mxCell id="Qtu0secbyMmHB0UshVdj-40" value="可变" style="rounded=1;whiteSpace=wrap;html=1;" vertex="1" parent="1">
          <mxGeometry x="434" y="460" width="100" height="40" as="geometry" />
        </mxCell>
        <mxCell id="Qtu0secbyMmHB0UshVdj-48" value="" style="edgeStyle=orthogonalEdgeStyle;rounded=0;orthogonalLoop=1;jettySize=auto;html=1;" edge="1" parent="1" source="Qtu0secbyMmHB0UshVdj-41" target="Qtu0secbyMmHB0UshVdj-47">
          <mxGeometry relative="1" as="geometry" />
        </mxCell>
        <mxCell id="Qtu0secbyMmHB0UshVdj-50" value="" style="edgeStyle=orthogonalEdgeStyle;rounded=0;orthogonalLoop=1;jettySize=auto;html=1;entryX=0;entryY=0.5;entryDx=0;entryDy=0;exitX=0.5;exitY=1;exitDx=0;exitDy=0;" edge="1" parent="1" source="Qtu0secbyMmHB0UshVdj-41" target="Qtu0secbyMmHB0UshVdj-49">
          <mxGeometry relative="1" as="geometry" />
        </mxCell>
        <mxCell id="Qtu0secbyMmHB0UshVdj-41" value="共享" style="rounded=1;whiteSpace=wrap;html=1;" vertex="1" parent="1">
          <mxGeometry x="434" y="580" width="100" height="40" as="geometry" />
        </mxCell>
        <mxCell id="Qtu0secbyMmHB0UshVdj-44" value="final" style="rounded=1;whiteSpace=wrap;html=1;" vertex="1" parent="1">
          <mxGeometry x="534" y="380" width="100" height="40" as="geometry" />
        </mxCell>
        <mxCell id="Qtu0secbyMmHB0UshVdj-47" value="一写多读" style="rounded=1;whiteSpace=wrap;html=1;" vertex="1" parent="1">
          <mxGeometry x="570" y="580" width="100" height="40" as="geometry" />
        </mxCell>
        <mxCell id="Qtu0secbyMmHB0UshVdj-49" value="多写多读" style="rounded=1;whiteSpace=wrap;html=1;" vertex="1" parent="1">
          <mxGeometry x="570" y="640" width="100" height="40" as="geometry" />
        </mxCell>
        <mxCell id="Qtu0secbyMmHB0UshVdj-84" value="" style="edgeStyle=orthogonalEdgeStyle;rounded=0;orthogonalLoop=1;jettySize=auto;html=1;" edge="1" parent="1" source="Qtu0secbyMmHB0UshVdj-53" target="Qtu0secbyMmHB0UshVdj-83">
          <mxGeometry relative="1" as="geometry" />
        </mxCell>
        <mxCell id="Qtu0secbyMmHB0UshVdj-53" value="可见性" style="rounded=1;whiteSpace=wrap;html=1;" vertex="1" parent="1">
          <mxGeometry x="750" y="530" width="110" height="45" as="geometry" />
        </mxCell>
        <mxCell id="Qtu0secbyMmHB0UshVdj-54" value="原子性" style="rounded=1;whiteSpace=wrap;html=1;" vertex="1" parent="1">
          <mxGeometry x="750" y="680" width="110" height="45" as="geometry" />
        </mxCell>
        <mxCell id="Qtu0secbyMmHB0UshVdj-55" value="有序性" style="rounded=1;whiteSpace=wrap;html=1;" vertex="1" parent="1">
          <mxGeometry x="750" y="605" width="110" height="45" as="geometry" />
        </mxCell>
        <mxCell id="Qtu0secbyMmHB0UshVdj-75" value="" style="edgeStyle=orthogonalEdgeStyle;rounded=0;orthogonalLoop=1;jettySize=auto;html=1;" edge="1" parent="1" source="Qtu0secbyMmHB0UshVdj-60" target="Qtu0secbyMmHB0UshVdj-74">
          <mxGeometry relative="1" as="geometry">
            <Array as="points">
              <mxPoint x="1560" y="550" />
              <mxPoint x="1560" y="523" />
            </Array>
          </mxGeometry>
        </mxCell>
        <mxCell id="Qtu0secbyMmHB0UshVdj-60" value="机制" style="rounded=1;whiteSpace=wrap;html=1;" vertex="1" parent="1">
          <mxGeometry x="930" y="530" width="110" height="45" as="geometry" />
        </mxCell>
        <mxCell id="Qtu0secbyMmHB0UshVdj-62" value="" style="endArrow=classic;html=1;entryX=0;entryY=0.5;entryDx=0;entryDy=0;exitX=1;exitY=0.5;exitDx=0;exitDy=0;" edge="1" parent="1" source="Qtu0secbyMmHB0UshVdj-51" target="Qtu0secbyMmHB0UshVdj-61">
          <mxGeometry width="50" height="50" relative="1" as="geometry">
            <mxPoint x="620" y="810" as="sourcePoint" />
            <mxPoint x="670" y="760" as="targetPoint" />
          </mxGeometry>
        </mxCell>
        <mxCell id="Qtu0secbyMmHB0UshVdj-63" value="场景" style="text;html=1;strokeColor=none;fillColor=none;align=center;verticalAlign=middle;whiteSpace=wrap;rounded=0;dashed=1;" vertex="1" parent="1">
          <mxGeometry x="594" y="710" width="40" height="20" as="geometry" />
        </mxCell>
        <mxCell id="Qtu0secbyMmHB0UshVdj-64" value="核心问题" style="text;html=1;strokeColor=none;fillColor=none;align=center;verticalAlign=middle;whiteSpace=wrap;rounded=0;dashed=1;" vertex="1" parent="1">
          <mxGeometry x="777.5" y="740" width="55" height="20" as="geometry" />
        </mxCell>
        <mxCell id="Qtu0secbyMmHB0UshVdj-77" value="" style="edgeStyle=orthogonalEdgeStyle;rounded=0;orthogonalLoop=1;jettySize=auto;html=1;exitX=1;exitY=0.5;exitDx=0;exitDy=0;entryX=0;entryY=0.5;entryDx=0;entryDy=0;" edge="1" parent="1" source="Qtu0secbyMmHB0UshVdj-65" target="Qtu0secbyMmHB0UshVdj-78">
          <mxGeometry relative="1" as="geometry" />
        </mxCell>
        <mxCell id="Qtu0secbyMmHB0UshVdj-65" value="工具" style="rounded=1;whiteSpace=wrap;html=1;" vertex="1" parent="1">
          <mxGeometry x="930" y="610" width="110" height="45" as="geometry" />
        </mxCell>
        <mxCell id="Qtu0secbyMmHB0UshVdj-86" value="" style="edgeStyle=orthogonalEdgeStyle;rounded=0;orthogonalLoop=1;jettySize=auto;html=1;entryX=0;entryY=0.5;entryDx=0;entryDy=0;" edge="1" parent="1" source="Qtu0secbyMmHB0UshVdj-66" target="Qtu0secbyMmHB0UshVdj-85">
          <mxGeometry relative="1" as="geometry">
            <Array as="points">
              <mxPoint x="1100" y="708" />
              <mxPoint x="1100" y="823" />
            </Array>
          </mxGeometry>
        </mxCell>
        <mxCell id="Qtu0secbyMmHB0UshVdj-66" value="容器" style="rounded=1;whiteSpace=wrap;html=1;" vertex="1" parent="1">
          <mxGeometry x="930" y="685" width="110" height="45" as="geometry" />
        </mxCell>
        <mxCell id="Qtu0secbyMmHB0UshVdj-68" value="" style="endArrow=classic;html=1;entryX=0;entryY=0.5;entryDx=0;entryDy=0;exitX=1;exitY=0.5;exitDx=0;exitDy=0;" edge="1" parent="1" source="Qtu0secbyMmHB0UshVdj-61" target="Qtu0secbyMmHB0UshVdj-67">
          <mxGeometry width="50" height="50" relative="1" as="geometry">
            <mxPoint x="710" y="810" as="sourcePoint" />
            <mxPoint x="760" y="760" as="targetPoint" />
          </mxGeometry>
        </mxCell>
        <mxCell id="Qtu0secbyMmHB0UshVdj-69" value="解决办法" style="text;html=1;strokeColor=none;fillColor=none;align=center;verticalAlign=middle;whiteSpace=wrap;rounded=0;dashed=1;" vertex="1" parent="1">
          <mxGeometry x="965" y="740" width="55" height="20" as="geometry" />
        </mxCell>
        <mxCell id="Qtu0secbyMmHB0UshVdj-70" value="" style="endArrow=classic;html=1;exitX=0.5;exitY=1;exitDx=0;exitDy=0;entryX=0;entryY=0.5;entryDx=0;entryDy=0;entryPerimeter=0;" edge="1" parent="1" source="Qtu0secbyMmHB0UshVdj-12" target="Qtu0secbyMmHB0UshVdj-71">
          <mxGeometry width="50" height="50" relative="1" as="geometry">
            <mxPoint x="180" y="610" as="sourcePoint" />
            <mxPoint x="230" y="560" as="targetPoint" />
            <Array as="points">
              <mxPoint x="180" y="920" />
            </Array>
          </mxGeometry>
        </mxCell>
        <mxCell id="Qtu0secbyMmHB0UshVdj-71" value="资源" style="shape=cylinder3;whiteSpace=wrap;html=1;boundedLbl=1;backgroundOutline=1;size=15;" vertex="1" parent="1">
          <mxGeometry x="290" y="880" width="60" height="80" as="geometry" />
        </mxCell>
        <mxCell id="Qtu0secbyMmHB0UshVdj-72" value="" style="endArrow=classic;html=1;exitX=1;exitY=0.5;exitDx=0;exitDy=0;entryX=0;entryY=0.5;entryDx=0;entryDy=0;" edge="1" parent="1" source="Qtu0secbyMmHB0UshVdj-60" target="Qtu0secbyMmHB0UshVdj-73">
          <mxGeometry width="50" height="50" relative="1" as="geometry">
            <mxPoint x="980" y="460" as="sourcePoint" />
            <mxPoint x="985" y="440" as="targetPoint" />
            <Array as="points">
              <mxPoint x="1560" y="550" />
              <mxPoint x="1560" y="400" />
            </Array>
          </mxGeometry>
        </mxCell>
        <mxCell id="Qtu0secbyMmHB0UshVdj-73" value="Volatile" style="rounded=1;whiteSpace=wrap;html=1;" vertex="1" parent="1">
          <mxGeometry x="1630" y="380" width="110" height="45" as="geometry" />
        </mxCell>
        <mxCell id="Qtu0secbyMmHB0UshVdj-164" value="" style="edgeStyle=orthogonalEdgeStyle;rounded=0;orthogonalLoop=1;jettySize=auto;html=1;strokeColor=#FF8000;" edge="1" parent="1" source="Qtu0secbyMmHB0UshVdj-74" target="Qtu0secbyMmHB0UshVdj-163">
          <mxGeometry relative="1" as="geometry" />
        </mxCell>
        <mxCell id="Qtu0secbyMmHB0UshVdj-166" value="" style="edgeStyle=orthogonalEdgeStyle;rounded=0;orthogonalLoop=1;jettySize=auto;html=1;strokeColor=#FF8000;exitX=1;exitY=0.5;exitDx=0;exitDy=0;" edge="1" parent="1" source="Qtu0secbyMmHB0UshVdj-73" target="Qtu0secbyMmHB0UshVdj-165">
          <mxGeometry relative="1" as="geometry">
            <Array as="points">
              <mxPoint x="1740" y="390" />
              <mxPoint x="1820" y="390" />
              <mxPoint x="1820" y="373" />
            </Array>
          </mxGeometry>
        </mxCell>
        <mxCell id="Qtu0secbyMmHB0UshVdj-74" value="Synchronized" style="rounded=1;whiteSpace=wrap;html=1;" vertex="1" parent="1">
          <mxGeometry x="1630" y="502.5" width="110" height="45" as="geometry" />
        </mxCell>
        <mxCell id="Qtu0secbyMmHB0UshVdj-76" value="Lock" style="rounded=1;whiteSpace=wrap;html=1;" vertex="1" parent="1">
          <mxGeometry x="1260" y="557.5" width="110" height="45" as="geometry" />
        </mxCell>
        <mxCell id="Qtu0secbyMmHB0UshVdj-78" value="AQS" style="rounded=1;whiteSpace=wrap;html=1;" vertex="1" parent="1">
          <mxGeometry x="1260" y="622.5" width="110" height="45" as="geometry" />
        </mxCell>
        <mxCell id="Qtu0secbyMmHB0UshVdj-80" value="" style="edgeStyle=orthogonalEdgeStyle;rounded=0;orthogonalLoop=1;jettySize=auto;html=1;exitX=1;exitY=0.5;exitDx=0;exitDy=0;entryX=0;entryY=0.5;entryDx=0;entryDy=0;" edge="1" parent="1" source="Qtu0secbyMmHB0UshVdj-65" target="Qtu0secbyMmHB0UshVdj-76">
          <mxGeometry relative="1" as="geometry">
            <mxPoint x="1050" y="642.5" as="sourcePoint" />
            <mxPoint x="1110" y="687.5" as="targetPoint" />
          </mxGeometry>
        </mxCell>
        <mxCell id="Qtu0secbyMmHB0UshVdj-81" value="原子类" style="rounded=1;whiteSpace=wrap;html=1;" vertex="1" parent="1">
          <mxGeometry x="1260" y="685" width="110" height="45" as="geometry" />
        </mxCell>
        <mxCell id="Qtu0secbyMmHB0UshVdj-82" value="" style="edgeStyle=orthogonalEdgeStyle;rounded=0;orthogonalLoop=1;jettySize=auto;html=1;exitX=1;exitY=0.5;exitDx=0;exitDy=0;entryX=0;entryY=0.5;entryDx=0;entryDy=0;" edge="1" parent="1" source="Qtu0secbyMmHB0UshVdj-65" target="Qtu0secbyMmHB0UshVdj-81">
          <mxGeometry relative="1" as="geometry">
            <mxPoint x="1050" y="642.5" as="sourcePoint" />
            <mxPoint x="1270" y="655" as="targetPoint" />
          </mxGeometry>
        </mxCell>
        <mxCell id="Qtu0secbyMmHB0UshVdj-83" value="JMM内存架构" style="rounded=1;whiteSpace=wrap;html=1;" vertex="1" parent="1">
          <mxGeometry x="750" y="420" width="110" height="45" as="geometry" />
        </mxCell>
        <mxCell id="Qtu0secbyMmHB0UshVdj-85" value="COW" style="rounded=1;whiteSpace=wrap;html=1;" vertex="1" parent="1">
          <mxGeometry x="1260" y="800" width="110" height="45" as="geometry" />
        </mxCell>
        <mxCell id="Qtu0secbyMmHB0UshVdj-88" value="JUC" style="rounded=1;whiteSpace=wrap;html=1;" vertex="1" parent="1">
          <mxGeometry x="1260" y="870" width="110" height="45" as="geometry" />
        </mxCell>
        <mxCell id="Qtu0secbyMmHB0UshVdj-89" value="" style="edgeStyle=orthogonalEdgeStyle;rounded=0;orthogonalLoop=1;jettySize=auto;html=1;entryX=0;entryY=0.5;entryDx=0;entryDy=0;exitX=1;exitY=0.5;exitDx=0;exitDy=0;" edge="1" parent="1" source="Qtu0secbyMmHB0UshVdj-66" target="Qtu0secbyMmHB0UshVdj-88">
          <mxGeometry relative="1" as="geometry">
            <mxPoint x="1050" y="717.5" as="sourcePoint" />
            <mxPoint x="1270" y="832.5" as="targetPoint" />
            <Array as="points">
              <mxPoint x="1100" y="708" />
              <mxPoint x="1100" y="893" />
            </Array>
          </mxGeometry>
        </mxCell>
        <mxCell id="Qtu0secbyMmHB0UshVdj-90" value="" style="endArrow=classic;html=1;exitX=0.5;exitY=0;exitDx=0;exitDy=0;entryX=0.002;entryY=0.486;entryDx=0;entryDy=0;entryPerimeter=0;" edge="1" parent="1" source="Qtu0secbyMmHB0UshVdj-83" target="Qtu0secbyMmHB0UshVdj-91">
          <mxGeometry width="50" height="50" relative="1" as="geometry">
            <mxPoint x="870" y="410" as="sourcePoint" />
            <mxPoint x="1060" y="120" as="targetPoint" />
            <Array as="points">
              <mxPoint x="805" y="400" />
              <mxPoint x="890" y="400" />
              <mxPoint x="890" y="140" />
            </Array>
          </mxGeometry>
        </mxCell>
        <mxCell id="Qtu0secbyMmHB0UshVdj-130" value="硬件底层架构原理" style="edgeLabel;html=1;align=center;verticalAlign=middle;resizable=0;points=[];" vertex="1" connectable="0" parent="Qtu0secbyMmHB0UshVdj-90">
          <mxGeometry x="-0.2926" y="1" relative="1" as="geometry">
            <mxPoint as="offset" />
          </mxGeometry>
        </mxCell>
        <mxCell id="Qtu0secbyMmHB0UshVdj-91" value="" style="rounded=0;whiteSpace=wrap;html=1;" vertex="1" parent="1">
          <mxGeometry x="900" y="-40" width="520" height="370" as="geometry" />
        </mxCell>
        <mxCell id="Qtu0secbyMmHB0UshVdj-92" value="主内存" style="rounded=0;whiteSpace=wrap;html=1;" vertex="1" parent="1">
          <mxGeometry x="980" y="280" width="430" height="35" as="geometry" />
        </mxCell>
        <mxCell id="Qtu0secbyMmHB0UshVdj-93" value="CPU处理器0" style="rounded=1;whiteSpace=wrap;html=1;" vertex="1" parent="1">
          <mxGeometry x="990" y="90" width="80" height="30" as="geometry" />
        </mxCell>
        <mxCell id="Qtu0secbyMmHB0UshVdj-94" value="总线" style="rounded=0;whiteSpace=wrap;html=1;" vertex="1" parent="1">
          <mxGeometry x="1130" width="80" height="40" as="geometry" />
        </mxCell>
        <mxCell id="Qtu0secbyMmHB0UshVdj-95" value="" style="endArrow=classic;html=1;exitX=0.5;exitY=0;exitDx=0;exitDy=0;" edge="1" parent="1" source="Qtu0secbyMmHB0UshVdj-93">
          <mxGeometry width="50" height="50" relative="1" as="geometry">
            <mxPoint x="1010" y="50" as="sourcePoint" />
            <mxPoint x="1130" y="20" as="targetPoint" />
            <Array as="points">
              <mxPoint x="1030" y="20" />
            </Array>
          </mxGeometry>
        </mxCell>
        <mxCell id="Qtu0secbyMmHB0UshVdj-96" value="read" style="edgeLabel;html=1;align=center;verticalAlign=middle;resizable=0;points=[];" vertex="1" connectable="0" parent="Qtu0secbyMmHB0UshVdj-95">
          <mxGeometry x="-0.5059" y="-1" relative="1" as="geometry">
            <mxPoint as="offset" />
          </mxGeometry>
        </mxCell>
        <mxCell id="Qtu0secbyMmHB0UshVdj-97" value="" style="endArrow=classic;html=1;entryX=0.75;entryY=0;entryDx=0;entryDy=0;exitX=0;exitY=1;exitDx=0;exitDy=0;" edge="1" parent="1" source="Qtu0secbyMmHB0UshVdj-94" target="Qtu0secbyMmHB0UshVdj-93">
          <mxGeometry width="50" height="50" relative="1" as="geometry">
            <mxPoint x="1110" y="150" as="sourcePoint" />
            <mxPoint x="1160" y="100" as="targetPoint" />
            <Array as="points">
              <mxPoint x="1050" y="40" />
            </Array>
          </mxGeometry>
        </mxCell>
        <mxCell id="Qtu0secbyMmHB0UshVdj-98" value="read返回" style="edgeLabel;html=1;align=center;verticalAlign=middle;resizable=0;points=[];" vertex="1" connectable="0" parent="Qtu0secbyMmHB0UshVdj-97">
          <mxGeometry x="-0.2923" relative="1" as="geometry">
            <mxPoint as="offset" />
          </mxGeometry>
        </mxCell>
        <mxCell id="Qtu0secbyMmHB0UshVdj-99" value="" style="endArrow=classic;html=1;entryX=1;entryY=0.5;entryDx=0;entryDy=0;exitX=0.5;exitY=1;exitDx=0;exitDy=0;" edge="1" parent="1" source="Qtu0secbyMmHB0UshVdj-94" target="Qtu0secbyMmHB0UshVdj-93">
          <mxGeometry width="50" height="50" relative="1" as="geometry">
            <mxPoint x="1140" y="110" as="sourcePoint" />
            <mxPoint x="1190" y="60" as="targetPoint" />
          </mxGeometry>
        </mxCell>
        <mxCell id="Qtu0secbyMmHB0UshVdj-100" value="总线嗅探机制到invalid ack信息" style="edgeLabel;html=1;align=center;verticalAlign=middle;resizable=0;points=[];" vertex="1" connectable="0" parent="Qtu0secbyMmHB0UshVdj-99">
          <mxGeometry x="-0.0278" y="-1" relative="1" as="geometry">
            <mxPoint as="offset" />
          </mxGeometry>
        </mxCell>
        <mxCell id="Qtu0secbyMmHB0UshVdj-101" value="" style="endArrow=classic;html=1;exitX=0.25;exitY=0;exitDx=0;exitDy=0;entryX=0;entryY=0;entryDx=0;entryDy=0;" edge="1" parent="1" source="Qtu0secbyMmHB0UshVdj-93" target="Qtu0secbyMmHB0UshVdj-94">
          <mxGeometry width="50" height="50" relative="1" as="geometry">
            <mxPoint x="940" y="70" as="sourcePoint" />
            <mxPoint x="990" y="20" as="targetPoint" />
            <Array as="points">
              <mxPoint x="1010" />
            </Array>
          </mxGeometry>
        </mxCell>
        <mxCell id="Qtu0secbyMmHB0UshVdj-102" value="invalid信息" style="edgeLabel;html=1;align=center;verticalAlign=middle;resizable=0;points=[];" vertex="1" connectable="0" parent="Qtu0secbyMmHB0UshVdj-101">
          <mxGeometry x="0.0095" y="1" relative="1" as="geometry">
            <mxPoint as="offset" />
          </mxGeometry>
        </mxCell>
        <mxCell id="Qtu0secbyMmHB0UshVdj-103" value="&lt;font color=&quot;#ff0000&quot;&gt;refresh机制&lt;/font&gt;" style="text;html=1;strokeColor=none;fillColor=none;align=center;verticalAlign=middle;whiteSpace=wrap;rounded=0;" vertex="1" parent="1">
          <mxGeometry x="1110" y="80" width="90" height="20" as="geometry" />
        </mxCell>
        <mxCell id="Qtu0secbyMmHB0UshVdj-111" value="" style="edgeStyle=orthogonalEdgeStyle;rounded=0;orthogonalLoop=1;jettySize=auto;html=1;" edge="1" parent="1" source="Qtu0secbyMmHB0UshVdj-104" target="Qtu0secbyMmHB0UshVdj-110">
          <mxGeometry relative="1" as="geometry" />
        </mxCell>
        <mxCell id="Qtu0secbyMmHB0UshVdj-104" value="高速缓存器&lt;br&gt;CPU Cache" style="rounded=1;whiteSpace=wrap;html=1;" vertex="1" parent="1">
          <mxGeometry x="1070" y="170" width="80" height="30" as="geometry" />
        </mxCell>
        <mxCell id="Qtu0secbyMmHB0UshVdj-105" value="写缓存器" style="rounded=1;whiteSpace=wrap;html=1;" vertex="1" parent="1">
          <mxGeometry x="945" y="170" width="80" height="30" as="geometry" />
        </mxCell>
        <mxCell id="Qtu0secbyMmHB0UshVdj-106" value="" style="endArrow=classic;html=1;exitX=0.5;exitY=1;exitDx=0;exitDy=0;" edge="1" parent="1" source="Qtu0secbyMmHB0UshVdj-93">
          <mxGeometry width="50" height="50" relative="1" as="geometry">
            <mxPoint x="850" y="100" as="sourcePoint" />
            <mxPoint x="980" y="170" as="targetPoint" />
          </mxGeometry>
        </mxCell>
        <mxCell id="Qtu0secbyMmHB0UshVdj-107" value="" style="endArrow=classic;html=1;entryX=0;entryY=0.5;entryDx=0;entryDy=0;exitX=1;exitY=0.5;exitDx=0;exitDy=0;" edge="1" parent="1" source="Qtu0secbyMmHB0UshVdj-105" target="Qtu0secbyMmHB0UshVdj-104">
          <mxGeometry width="50" height="50" relative="1" as="geometry">
            <mxPoint x="1030" y="120" as="sourcePoint" />
            <mxPoint x="1140" y="120" as="targetPoint" />
          </mxGeometry>
        </mxCell>
        <mxCell id="Qtu0secbyMmHB0UshVdj-108" value="" style="endArrow=classic;html=1;exitX=0.5;exitY=1;exitDx=0;exitDy=0;" edge="1" parent="1" source="Qtu0secbyMmHB0UshVdj-104">
          <mxGeometry width="50" height="50" relative="1" as="geometry">
            <mxPoint x="1170" y="180" as="sourcePoint" />
            <mxPoint x="1110" y="280" as="targetPoint" />
          </mxGeometry>
        </mxCell>
        <mxCell id="Qtu0secbyMmHB0UshVdj-109" value="&lt;font color=&quot;#ff0000&quot;&gt;flush机制&lt;/font&gt;" style="text;html=1;strokeColor=none;fillColor=none;align=center;verticalAlign=middle;whiteSpace=wrap;rounded=0;" vertex="1" parent="1">
          <mxGeometry x="1020" y="215" width="90" height="20" as="geometry" />
        </mxCell>
        <mxCell id="Qtu0secbyMmHB0UshVdj-110" value="高速缓存器&lt;br&gt;CPU Cache" style="rounded=1;whiteSpace=wrap;html=1;" vertex="1" parent="1">
          <mxGeometry x="1210" y="170" width="80" height="30" as="geometry" />
        </mxCell>
        <mxCell id="Qtu0secbyMmHB0UshVdj-112" value="&lt;font color=&quot;#ff0000&quot;&gt;flush机制&lt;/font&gt;" style="text;html=1;strokeColor=none;fillColor=none;align=center;verticalAlign=middle;whiteSpace=wrap;rounded=0;" vertex="1" parent="1">
          <mxGeometry x="1130" y="150" width="90" height="20" as="geometry" />
        </mxCell>
        <mxCell id="Qtu0secbyMmHB0UshVdj-114" value="" style="edgeStyle=orthogonalEdgeStyle;rounded=0;orthogonalLoop=1;jettySize=auto;html=1;entryX=1;entryY=0.5;entryDx=0;entryDy=0;" edge="1" parent="1" source="Qtu0secbyMmHB0UshVdj-113" target="Qtu0secbyMmHB0UshVdj-110">
          <mxGeometry relative="1" as="geometry" />
        </mxCell>
        <mxCell id="Qtu0secbyMmHB0UshVdj-113" value="写缓存器" style="rounded=1;whiteSpace=wrap;html=1;" vertex="1" parent="1">
          <mxGeometry x="1330" y="170" width="80" height="30" as="geometry" />
        </mxCell>
        <mxCell id="Qtu0secbyMmHB0UshVdj-115" value="CPU处理器1" style="rounded=1;whiteSpace=wrap;html=1;" vertex="1" parent="1">
          <mxGeometry x="1290" y="90" width="80" height="30" as="geometry" />
        </mxCell>
        <mxCell id="Qtu0secbyMmHB0UshVdj-116" value="" style="endArrow=classic;html=1;entryX=0.5;entryY=0;entryDx=0;entryDy=0;exitX=0.5;exitY=1;exitDx=0;exitDy=0;" edge="1" parent="1" source="Qtu0secbyMmHB0UshVdj-115" target="Qtu0secbyMmHB0UshVdj-113">
          <mxGeometry width="50" height="50" relative="1" as="geometry">
            <mxPoint x="1300" y="70" as="sourcePoint" />
            <mxPoint x="1350" y="20" as="targetPoint" />
          </mxGeometry>
        </mxCell>
        <mxCell id="Qtu0secbyMmHB0UshVdj-117" value="" style="endArrow=classic;html=1;exitX=0.75;exitY=0;exitDx=0;exitDy=0;entryX=1;entryY=0;entryDx=0;entryDy=0;" edge="1" parent="1" source="Qtu0secbyMmHB0UshVdj-115" target="Qtu0secbyMmHB0UshVdj-94">
          <mxGeometry width="50" height="50" relative="1" as="geometry">
            <mxPoint x="1250" y="70" as="sourcePoint" />
            <mxPoint x="1300" y="20" as="targetPoint" />
            <Array as="points">
              <mxPoint x="1350" />
            </Array>
          </mxGeometry>
        </mxCell>
        <mxCell id="Qtu0secbyMmHB0UshVdj-118" value="invalid信息" style="edgeLabel;html=1;align=center;verticalAlign=middle;resizable=0;points=[];" vertex="1" connectable="0" parent="Qtu0secbyMmHB0UshVdj-117">
          <mxGeometry x="0.4348" y="-2" relative="1" as="geometry">
            <mxPoint as="offset" />
          </mxGeometry>
        </mxCell>
        <mxCell id="Qtu0secbyMmHB0UshVdj-119" value="read" style="endArrow=classic;html=1;entryX=1;entryY=0.5;entryDx=0;entryDy=0;exitX=0.5;exitY=0;exitDx=0;exitDy=0;" edge="1" parent="1" source="Qtu0secbyMmHB0UshVdj-115" target="Qtu0secbyMmHB0UshVdj-94">
          <mxGeometry width="50" height="50" relative="1" as="geometry">
            <mxPoint x="1240" y="120" as="sourcePoint" />
            <mxPoint x="1290" y="70" as="targetPoint" />
            <Array as="points">
              <mxPoint x="1330" y="20" />
            </Array>
          </mxGeometry>
        </mxCell>
        <mxCell id="Qtu0secbyMmHB0UshVdj-120" value="read返回" style="endArrow=classic;html=1;entryX=0;entryY=0;entryDx=0;entryDy=0;" edge="1" parent="1" target="Qtu0secbyMmHB0UshVdj-115">
          <mxGeometry width="50" height="50" relative="1" as="geometry">
            <mxPoint x="1210" y="40" as="sourcePoint" />
            <mxPoint x="1310" y="-100" as="targetPoint" />
            <Array as="points">
              <mxPoint x="1290" y="40" />
            </Array>
          </mxGeometry>
        </mxCell>
        <mxCell id="Qtu0secbyMmHB0UshVdj-121" value="" style="endArrow=classic;html=1;entryX=0;entryY=0.5;entryDx=0;entryDy=0;" edge="1" parent="1" target="Qtu0secbyMmHB0UshVdj-115">
          <mxGeometry width="50" height="50" relative="1" as="geometry">
            <mxPoint x="1170" y="40" as="sourcePoint" />
            <mxPoint x="1250" y="90" as="targetPoint" />
          </mxGeometry>
        </mxCell>
        <mxCell id="Qtu0secbyMmHB0UshVdj-122" value="" style="endArrow=classic;html=1;exitX=0.5;exitY=1;exitDx=0;exitDy=0;" edge="1" parent="1">
          <mxGeometry width="50" height="50" relative="1" as="geometry">
            <mxPoint x="1249.5" y="200" as="sourcePoint" />
            <mxPoint x="1249.5" y="280" as="targetPoint" />
          </mxGeometry>
        </mxCell>
        <mxCell id="Qtu0secbyMmHB0UshVdj-123" value="重排序处理器" style="rounded=1;whiteSpace=wrap;html=1;" vertex="1" parent="1">
          <mxGeometry x="900" y="40" width="80" height="30" as="geometry" />
        </mxCell>
        <mxCell id="Qtu0secbyMmHB0UshVdj-124" value="寄存器" style="rounded=1;whiteSpace=wrap;html=1;" vertex="1" parent="1">
          <mxGeometry x="900" y="120" width="80" height="30" as="geometry" />
        </mxCell>
        <mxCell id="Qtu0secbyMmHB0UshVdj-125" value="" style="endArrow=classic;html=1;exitX=0;exitY=0.5;exitDx=0;exitDy=0;entryX=0.5;entryY=0;entryDx=0;entryDy=0;" edge="1" parent="1" source="Qtu0secbyMmHB0UshVdj-93" target="Qtu0secbyMmHB0UshVdj-124">
          <mxGeometry width="50" height="50" relative="1" as="geometry">
            <mxPoint x="780" y="100" as="sourcePoint" />
            <mxPoint x="830" y="50" as="targetPoint" />
            <Array as="points">
              <mxPoint x="940" y="105" />
            </Array>
          </mxGeometry>
        </mxCell>
        <mxCell id="Qtu0secbyMmHB0UshVdj-126" value="" style="endArrow=classic;html=1;entryX=0.5;entryY=1;entryDx=0;entryDy=0;exitX=0;exitY=0.5;exitDx=0;exitDy=0;" edge="1" parent="1" source="Qtu0secbyMmHB0UshVdj-93" target="Qtu0secbyMmHB0UshVdj-123">
          <mxGeometry width="50" height="50" relative="1" as="geometry">
            <mxPoint x="910" y="110" as="sourcePoint" />
            <mxPoint x="960" y="60" as="targetPoint" />
            <Array as="points">
              <mxPoint x="940" y="100" />
            </Array>
          </mxGeometry>
        </mxCell>
        <mxCell id="Qtu0secbyMmHB0UshVdj-127" value="无效队列" style="rounded=1;whiteSpace=wrap;html=1;" vertex="1" parent="1">
          <mxGeometry x="1130" y="120" width="80" height="30" as="geometry" />
        </mxCell>
        <mxCell id="Qtu0secbyMmHB0UshVdj-128" value="" style="endArrow=classic;html=1;entryX=0;entryY=0.5;entryDx=0;entryDy=0;exitX=0.5;exitY=1;exitDx=0;exitDy=0;" edge="1" parent="1" source="Qtu0secbyMmHB0UshVdj-93" target="Qtu0secbyMmHB0UshVdj-127">
          <mxGeometry width="50" height="50" relative="1" as="geometry">
            <mxPoint x="730" y="100" as="sourcePoint" />
            <mxPoint x="780" y="50" as="targetPoint" />
            <Array as="points">
              <mxPoint x="1030" y="135" />
            </Array>
          </mxGeometry>
        </mxCell>
        <mxCell id="Qtu0secbyMmHB0UshVdj-129" value="invalid信息" style="edgeLabel;html=1;align=center;verticalAlign=middle;resizable=0;points=[];" vertex="1" connectable="0" parent="Qtu0secbyMmHB0UshVdj-128">
          <mxGeometry x="-0.0609" y="2" relative="1" as="geometry">
            <mxPoint as="offset" />
          </mxGeometry>
        </mxCell>
        <mxCell id="Qtu0secbyMmHB0UshVdj-131" value="" style="endArrow=classic;html=1;entryX=0;entryY=0.5;entryDx=0;entryDy=0;exitX=1;exitY=0.5;exitDx=0;exitDy=0;" edge="1" parent="1" source="Qtu0secbyMmHB0UshVdj-55" target="Qtu0secbyMmHB0UshVdj-132">
          <mxGeometry width="50" height="50" relative="1" as="geometry">
            <mxPoint x="840" y="530" as="sourcePoint" />
            <mxPoint x="900" y="470" as="targetPoint" />
            <Array as="points">
              <mxPoint x="880" y="500" />
              <mxPoint x="890" y="430" />
            </Array>
          </mxGeometry>
        </mxCell>
        <mxCell id="Qtu0secbyMmHB0UshVdj-134" value="" style="edgeStyle=orthogonalEdgeStyle;rounded=0;orthogonalLoop=1;jettySize=auto;html=1;exitX=1;exitY=0.5;exitDx=0;exitDy=0;" edge="1" parent="1" source="Qtu0secbyMmHB0UshVdj-132" target="Qtu0secbyMmHB0UshVdj-133">
          <mxGeometry relative="1" as="geometry">
            <mxPoint x="1030" y="430" as="sourcePoint" />
            <Array as="points">
              <mxPoint x="1450" y="430" />
              <mxPoint x="1450" y="160" />
            </Array>
          </mxGeometry>
        </mxCell>
        <mxCell id="Qtu0secbyMmHB0UshVdj-136" value="具体可以看JVM架构图" style="edgeLabel;html=1;align=center;verticalAlign=middle;resizable=0;points=[];" vertex="1" connectable="0" parent="Qtu0secbyMmHB0UshVdj-134">
          <mxGeometry x="-0.6848" y="-3" relative="1" as="geometry">
            <mxPoint as="offset" />
          </mxGeometry>
        </mxCell>
        <mxCell id="Qtu0secbyMmHB0UshVdj-132" value="JVM指令重排序" style="rounded=1;whiteSpace=wrap;html=1;" vertex="1" parent="1">
          <mxGeometry x="925" y="400" width="120" height="60" as="geometry" />
        </mxCell>
        <mxCell id="Qtu0secbyMmHB0UshVdj-133" value="" style="whiteSpace=wrap;html=1;rounded=0;" vertex="1" parent="1">
          <mxGeometry x="1510" y="-40" width="500" height="370" as="geometry" />
        </mxCell>
        <mxCell id="Qtu0secbyMmHB0UshVdj-137" value="源代码" style="shape=card;whiteSpace=wrap;html=1;rounded=0;" vertex="1" parent="1">
          <mxGeometry x="1535" y="-10" width="45" height="70" as="geometry" />
        </mxCell>
        <mxCell id="Qtu0secbyMmHB0UshVdj-140" value="" style="edgeStyle=orthogonalEdgeStyle;rounded=0;orthogonalLoop=1;jettySize=auto;html=1;" edge="1" parent="1" source="Qtu0secbyMmHB0UshVdj-138" target="Qtu0secbyMmHB0UshVdj-139">
          <mxGeometry relative="1" as="geometry" />
        </mxCell>
        <mxCell id="Qtu0secbyMmHB0UshVdj-144" value="" style="edgeStyle=orthogonalEdgeStyle;rounded=0;orthogonalLoop=1;jettySize=auto;html=1;" edge="1" parent="1" source="Qtu0secbyMmHB0UshVdj-138" target="Qtu0secbyMmHB0UshVdj-143">
          <mxGeometry relative="1" as="geometry" />
        </mxCell>
        <mxCell id="Qtu0secbyMmHB0UshVdj-138" value="JIT动态编译" style="rounded=1;whiteSpace=wrap;html=1;" vertex="1" parent="1">
          <mxGeometry x="1630" y="-5" width="80" height="60" as="geometry" />
        </mxCell>
        <mxCell id="Qtu0secbyMmHB0UshVdj-139" value="准备-初始化-引用指针地址(步骤额3步骤)" style="rounded=1;whiteSpace=wrap;html=1;fillColor=#f8cecc;strokeColor=#b85450;" vertex="1" parent="1">
          <mxGeometry x="1740" y="-5" width="120" height="60" as="geometry" />
        </mxCell>
        <mxCell id="Qtu0secbyMmHB0UshVdj-141" value="" style="endArrow=classic;html=1;entryX=0;entryY=0.5;entryDx=0;entryDy=0;" edge="1" parent="1" source="Qtu0secbyMmHB0UshVdj-137" target="Qtu0secbyMmHB0UshVdj-138">
          <mxGeometry width="50" height="50" relative="1" as="geometry">
            <mxPoint x="1580" y="140" as="sourcePoint" />
            <mxPoint x="1630" y="90" as="targetPoint" />
          </mxGeometry>
        </mxCell>
        <mxCell id="Qtu0secbyMmHB0UshVdj-146" value="" style="edgeStyle=orthogonalEdgeStyle;rounded=0;orthogonalLoop=1;jettySize=auto;html=1;" edge="1" parent="1" source="Qtu0secbyMmHB0UshVdj-143" target="Qtu0secbyMmHB0UshVdj-145">
          <mxGeometry relative="1" as="geometry" />
        </mxCell>
        <mxCell id="Qtu0secbyMmHB0UshVdj-152" value="" style="edgeStyle=orthogonalEdgeStyle;rounded=0;orthogonalLoop=1;jettySize=auto;html=1;" edge="1" parent="1" source="Qtu0secbyMmHB0UshVdj-143" target="Qtu0secbyMmHB0UshVdj-151">
          <mxGeometry relative="1" as="geometry" />
        </mxCell>
        <mxCell id="Qtu0secbyMmHB0UshVdj-143" value="CPU处理器/解释器" style="rounded=1;whiteSpace=wrap;html=1;" vertex="1" parent="1">
          <mxGeometry x="1630" y="100" width="80" height="60" as="geometry" />
        </mxCell>
        <mxCell id="Qtu0secbyMmHB0UshVdj-148" value="" style="edgeStyle=orthogonalEdgeStyle;rounded=0;orthogonalLoop=1;jettySize=auto;html=1;exitX=1;exitY=0.5;exitDx=0;exitDy=0;" edge="1" parent="1" source="Qtu0secbyMmHB0UshVdj-155" target="Qtu0secbyMmHB0UshVdj-147">
          <mxGeometry relative="1" as="geometry">
            <Array as="points">
              <mxPoint x="1870" y="220" />
              <mxPoint x="1920" y="220" />
            </Array>
          </mxGeometry>
        </mxCell>
        <mxCell id="Qtu0secbyMmHB0UshVdj-145" value="重排序处理器&lt;br&gt;1）指令乱序&lt;br&gt;2）猜测执行" style="rounded=1;whiteSpace=wrap;html=1;fillColor=#f8cecc;strokeColor=#b85450;" vertex="1" parent="1">
          <mxGeometry x="1750" y="100" width="80" height="60" as="geometry" />
        </mxCell>
        <mxCell id="Qtu0secbyMmHB0UshVdj-147" value="写缓存器" style="rounded=1;whiteSpace=wrap;html=1;" vertex="1" parent="1">
          <mxGeometry x="1880" y="105" width="80" height="60" as="geometry" />
        </mxCell>
        <mxCell id="Qtu0secbyMmHB0UshVdj-149" value="高速缓存器" style="rounded=1;whiteSpace=wrap;html=1;" vertex="1" parent="1">
          <mxGeometry x="1910" y="240" width="80" height="60" as="geometry" />
        </mxCell>
        <mxCell id="Qtu0secbyMmHB0UshVdj-156" value="" style="edgeStyle=orthogonalEdgeStyle;rounded=0;orthogonalLoop=1;jettySize=auto;html=1;" edge="1" parent="1" source="Qtu0secbyMmHB0UshVdj-151" target="Qtu0secbyMmHB0UshVdj-155">
          <mxGeometry relative="1" as="geometry" />
        </mxCell>
        <mxCell id="Qtu0secbyMmHB0UshVdj-151" value="内存重排序/硬件" style="rounded=1;whiteSpace=wrap;html=1;" vertex="1" parent="1">
          <mxGeometry x="1630" y="240" width="80" height="60" as="geometry" />
        </mxCell>
        <mxCell id="Qtu0secbyMmHB0UshVdj-154" value="先行发生原则" style="text;html=1;strokeColor=none;fillColor=none;align=center;verticalAlign=middle;whiteSpace=wrap;rounded=0;" vertex="1" parent="1">
          <mxGeometry x="760" y="583" width="100" height="20" as="geometry" />
        </mxCell>
        <mxCell id="Qtu0secbyMmHB0UshVdj-155" value="LoadLoad&lt;br&gt;StoreStore&lt;br&gt;LoadStore&lt;br&gt;StoreLoad" style="rounded=1;whiteSpace=wrap;html=1;fillColor=#f8cecc;strokeColor=#b85450;" vertex="1" parent="1">
          <mxGeometry x="1790" y="240" width="80" height="60" as="geometry" />
        </mxCell>
        <mxCell id="Qtu0secbyMmHB0UshVdj-157" value="" style="endArrow=classic;html=1;entryX=0.5;entryY=0;entryDx=0;entryDy=0;exitX=1.013;exitY=0.4;exitDx=0;exitDy=0;exitPerimeter=0;" edge="1" parent="1" source="Qtu0secbyMmHB0UshVdj-147" target="Qtu0secbyMmHB0UshVdj-149">
          <mxGeometry width="50" height="50" relative="1" as="geometry">
            <mxPoint x="1710" y="-70" as="sourcePoint" />
            <mxPoint x="1760" y="-120" as="targetPoint" />
            <Array as="points">
              <mxPoint x="1980" y="129" />
              <mxPoint x="1980" y="200" />
              <mxPoint x="1950" y="200" />
            </Array>
          </mxGeometry>
        </mxCell>
        <mxCell id="Qtu0secbyMmHB0UshVdj-158" value="&lt;font color=&quot;#ff0000&quot;&gt;MESI协议&lt;/font&gt;" style="text;html=1;strokeColor=none;fillColor=none;align=center;verticalAlign=middle;whiteSpace=wrap;rounded=0;" vertex="1" parent="1">
          <mxGeometry x="940" y="250" width="90" height="20" as="geometry" />
        </mxCell>
        <mxCell id="Qtu0secbyMmHB0UshVdj-159" value="&lt;font color=&quot;#ff0000&quot;&gt;指令重排三层&lt;/font&gt;" style="text;html=1;strokeColor=none;fillColor=none;align=center;verticalAlign=middle;whiteSpace=wrap;rounded=0;" vertex="1" parent="1">
          <mxGeometry x="1520" y="150" width="90" height="20" as="geometry" />
        </mxCell>
        <mxCell id="Qtu0secbyMmHB0UshVdj-160" value="" style="endArrow=classic;html=1;exitX=0;exitY=0.25;exitDx=0;exitDy=0;entryX=0.5;entryY=1;entryDx=0;entryDy=0;strokeColor=#FF8000;" edge="1" parent="1" source="Qtu0secbyMmHB0UshVdj-73" target="Qtu0secbyMmHB0UshVdj-91">
          <mxGeometry width="50" height="50" relative="1" as="geometry">
            <mxPoint x="1330" y="420" as="sourcePoint" />
            <mxPoint x="1380" y="370" as="targetPoint" />
            <Array as="points">
              <mxPoint x="1160" y="391" />
            </Array>
          </mxGeometry>
        </mxCell>
        <mxCell id="Qtu0secbyMmHB0UshVdj-161" value="如何保证的可见性" style="edgeLabel;html=1;align=center;verticalAlign=middle;resizable=0;points=[];" vertex="1" connectable="0" parent="Qtu0secbyMmHB0UshVdj-160">
          <mxGeometry x="0.0697" y="2" relative="1" as="geometry">
            <mxPoint as="offset" />
          </mxGeometry>
        </mxCell>
        <mxCell id="Qtu0secbyMmHB0UshVdj-173" value="" style="edgeStyle=orthogonalEdgeStyle;rounded=0;orthogonalLoop=1;jettySize=auto;html=1;strokeColor=#FF8000;" edge="1" parent="1" source="Qtu0secbyMmHB0UshVdj-163" target="Qtu0secbyMmHB0UshVdj-172">
          <mxGeometry relative="1" as="geometry" />
        </mxCell>
        <mxCell id="Qtu0secbyMmHB0UshVdj-163" value="加锁（原子性）" style="rounded=1;whiteSpace=wrap;html=1;" vertex="1" parent="1">
          <mxGeometry x="1820" y="502.5" width="110" height="45" as="geometry" />
        </mxCell>
        <mxCell id="Qtu0secbyMmHB0UshVdj-168" value="" style="edgeStyle=orthogonalEdgeStyle;rounded=0;orthogonalLoop=1;jettySize=auto;html=1;strokeColor=#FF8000;" edge="1" parent="1" source="Qtu0secbyMmHB0UshVdj-165" target="Qtu0secbyMmHB0UshVdj-167">
          <mxGeometry relative="1" as="geometry" />
        </mxCell>
        <mxCell id="Qtu0secbyMmHB0UshVdj-170" value="" style="edgeStyle=orthogonalEdgeStyle;rounded=0;orthogonalLoop=1;jettySize=auto;html=1;strokeColor=#FF8000;entryX=0;entryY=0.5;entryDx=0;entryDy=0;" edge="1" parent="1" source="Qtu0secbyMmHB0UshVdj-165" target="Qtu0secbyMmHB0UshVdj-169">
          <mxGeometry relative="1" as="geometry" />
        </mxCell>
        <mxCell id="Qtu0secbyMmHB0UshVdj-165" value="内存屏障" style="rounded=1;whiteSpace=wrap;html=1;" vertex="1" parent="1">
          <mxGeometry x="1830" y="355" width="110" height="45" as="geometry" />
        </mxCell>
        <mxCell id="Qtu0secbyMmHB0UshVdj-167" value="Load&amp;amp;Store（可见性）" style="rounded=1;whiteSpace=wrap;html=1;" vertex="1" parent="1">
          <mxGeometry x="2020" y="355" width="110" height="45" as="geometry" />
        </mxCell>
        <mxCell id="Qtu0secbyMmHB0UshVdj-169" value="Acquire&amp;amp;Release(有序性)" style="rounded=1;whiteSpace=wrap;html=1;" vertex="1" parent="1">
          <mxGeometry x="2020" y="425" width="110" height="45" as="geometry" />
        </mxCell>
        <mxCell id="Qtu0secbyMmHB0UshVdj-171" value="" style="endArrow=classic;html=1;strokeColor=#FF8000;entryX=0.5;entryY=1;entryDx=0;entryDy=0;exitX=0.5;exitY=0;exitDx=0;exitDy=0;" edge="1" parent="1" source="Qtu0secbyMmHB0UshVdj-74" target="Qtu0secbyMmHB0UshVdj-165">
          <mxGeometry width="50" height="50" relative="1" as="geometry">
            <mxPoint x="1700" y="510" as="sourcePoint" />
            <mxPoint x="1750" y="460" as="targetPoint" />
            <Array as="points">
              <mxPoint x="1685" y="460" />
              <mxPoint x="1885" y="460" />
            </Array>
          </mxGeometry>
        </mxCell>
        <mxCell id="Qtu0secbyMmHB0UshVdj-172" value="补充原理架构图" style="rounded=1;whiteSpace=wrap;html=1;fillColor=#d80073;strokeColor=#A50040;fontColor=#ffffff;" vertex="1" parent="1">
          <mxGeometry x="2010" y="502.5" width="110" height="45" as="geometry" />
        </mxCell>
        <mxCell id="Qtu0secbyMmHB0UshVdj-174" value="" style="rounded=1;whiteSpace=wrap;html=1;" vertex="1" parent="1">
          <mxGeometry x="2370" y="115" width="260" height="125" as="geometry" />
        </mxCell>
        <mxCell id="Qtu0secbyMmHB0UshVdj-175" value="Wating Queue" style="text;html=1;strokeColor=none;fillColor=none;align=center;verticalAlign=middle;whiteSpace=wrap;rounded=0;" vertex="1" parent="1">
          <mxGeometry x="2440" y="95" width="110" height="20" as="geometry" />
        </mxCell>
      </root>
    </mxGraphModel>
  </diagram>
  <diagram id="kwJvC4us0XlFb4a_vh7D" name="synchronized">
    <mxGraphModel dx="2178" dy="2046" grid="1" gridSize="10" guides="1" tooltips="1" connect="1" arrows="1" fold="1" page="1" pageScale="1" pageWidth="827" pageHeight="1169" math="0" shadow="0">
      <root>
        <mxCell id="Fm_gpZ8SLg755O0Aljr6-0" />
        <mxCell id="Fm_gpZ8SLg755O0Aljr6-1" parent="Fm_gpZ8SLg755O0Aljr6-0" />
        <mxCell id="Fm_gpZ8SLg755O0Aljr6-230" value="" style="rounded=0;whiteSpace=wrap;html=1;dashed=1;" vertex="1" parent="Fm_gpZ8SLg755O0Aljr6-1">
          <mxGeometry x="-290" y="-1080" width="1520" height="550" as="geometry" />
        </mxCell>
        <mxCell id="Fm_gpZ8SLg755O0Aljr6-214" value="" style="rounded=0;whiteSpace=wrap;html=1;" vertex="1" parent="Fm_gpZ8SLg755O0Aljr6-1">
          <mxGeometry x="605" y="-924" width="450" height="340" as="geometry" />
        </mxCell>
        <mxCell id="Fm_gpZ8SLg755O0Aljr6-213" value="" style="rounded=0;whiteSpace=wrap;html=1;" vertex="1" parent="Fm_gpZ8SLg755O0Aljr6-1">
          <mxGeometry x="93" y="-924" width="470" height="340" as="geometry" />
        </mxCell>
        <mxCell id="Fm_gpZ8SLg755O0Aljr6-4" value="" style="rounded=0;whiteSpace=wrap;html=1;" vertex="1" parent="Fm_gpZ8SLg755O0Aljr6-1">
          <mxGeometry x="100" y="-70" width="960" height="520" as="geometry" />
        </mxCell>
        <mxCell id="Fm_gpZ8SLg755O0Aljr6-74" value="" style="rounded=0;whiteSpace=wrap;html=1;" vertex="1" parent="Fm_gpZ8SLg755O0Aljr6-1">
          <mxGeometry x="692" y="-30" width="338" height="430" as="geometry" />
        </mxCell>
        <mxCell id="Fm_gpZ8SLg755O0Aljr6-41" value="" style="rounded=0;whiteSpace=wrap;html=1;fillColor=#fff2cc;strokeColor=#d6b656;" vertex="1" parent="Fm_gpZ8SLg755O0Aljr6-1">
          <mxGeometry x="110" y="110" width="550" height="240" as="geometry" />
        </mxCell>
        <mxCell id="Fm_gpZ8SLg755O0Aljr6-20" value="" style="rounded=0;whiteSpace=wrap;html=1;" vertex="1" parent="Fm_gpZ8SLg755O0Aljr6-1">
          <mxGeometry x="351" y="180" width="76" height="80" as="geometry" />
        </mxCell>
        <mxCell id="Fm_gpZ8SLg755O0Aljr6-2" value="云端存储" style="rounded=0;whiteSpace=wrap;html=1;" vertex="1" parent="Fm_gpZ8SLg755O0Aljr6-1">
          <mxGeometry x="100" y="510" width="960" height="60" as="geometry" />
        </mxCell>
        <mxCell id="Fm_gpZ8SLg755O0Aljr6-3" value="分布式存储" style="rounded=0;whiteSpace=wrap;html=1;" vertex="1" parent="Fm_gpZ8SLg755O0Aljr6-1">
          <mxGeometry x="100" y="450" width="960" height="60" as="geometry" />
        </mxCell>
        <mxCell id="Fm_gpZ8SLg755O0Aljr6-5" value="1" style="rounded=0;whiteSpace=wrap;html=1;" vertex="1" parent="Fm_gpZ8SLg755O0Aljr6-1">
          <mxGeometry x="120" y="120" width="50" height="40" as="geometry" />
        </mxCell>
        <mxCell id="Fm_gpZ8SLg755O0Aljr6-6" value="2" style="rounded=0;whiteSpace=wrap;html=1;" vertex="1" parent="Fm_gpZ8SLg755O0Aljr6-1">
          <mxGeometry x="170" y="120" width="50" height="40" as="geometry" />
        </mxCell>
        <mxCell id="Fm_gpZ8SLg755O0Aljr6-7" value="3" style="rounded=0;whiteSpace=wrap;html=1;" vertex="1" parent="Fm_gpZ8SLg755O0Aljr6-1">
          <mxGeometry x="220" y="120" width="50" height="40" as="geometry" />
        </mxCell>
        <mxCell id="Fm_gpZ8SLg755O0Aljr6-8" value="4" style="rounded=0;whiteSpace=wrap;html=1;fillColor=#ffe6cc;strokeColor=#d79b00;" vertex="1" parent="Fm_gpZ8SLg755O0Aljr6-1">
          <mxGeometry x="270" y="120" width="50" height="40" as="geometry" />
        </mxCell>
        <mxCell id="Fm_gpZ8SLg755O0Aljr6-9" value="5" style="rounded=0;whiteSpace=wrap;html=1;fillColor=#dae8fc;strokeColor=#6c8ebf;" vertex="1" parent="Fm_gpZ8SLg755O0Aljr6-1">
          <mxGeometry x="120" y="160" width="50" height="40" as="geometry" />
        </mxCell>
        <mxCell id="Fm_gpZ8SLg755O0Aljr6-10" value="6" style="rounded=0;whiteSpace=wrap;html=1;fillColor=#ffe6cc;strokeColor=#d79b00;" vertex="1" parent="Fm_gpZ8SLg755O0Aljr6-1">
          <mxGeometry x="170" y="160" width="50" height="40" as="geometry" />
        </mxCell>
        <mxCell id="Fm_gpZ8SLg755O0Aljr6-11" value="7" style="rounded=0;whiteSpace=wrap;html=1;" vertex="1" parent="Fm_gpZ8SLg755O0Aljr6-1">
          <mxGeometry x="220" y="160" width="50" height="40" as="geometry" />
        </mxCell>
        <mxCell id="Fm_gpZ8SLg755O0Aljr6-12" value="8" style="rounded=0;whiteSpace=wrap;html=1;" vertex="1" parent="Fm_gpZ8SLg755O0Aljr6-1">
          <mxGeometry x="270" y="160" width="50" height="40" as="geometry" />
        </mxCell>
        <mxCell id="Fm_gpZ8SLg755O0Aljr6-13" value="9" style="rounded=0;whiteSpace=wrap;html=1;fillColor=#dae8fc;strokeColor=#6c8ebf;" vertex="1" parent="Fm_gpZ8SLg755O0Aljr6-1">
          <mxGeometry x="120" y="200" width="50" height="40" as="geometry" />
        </mxCell>
        <mxCell id="Fm_gpZ8SLg755O0Aljr6-14" value="10" style="rounded=0;whiteSpace=wrap;html=1;" vertex="1" parent="Fm_gpZ8SLg755O0Aljr6-1">
          <mxGeometry x="170" y="200" width="50" height="40" as="geometry" />
        </mxCell>
        <mxCell id="Fm_gpZ8SLg755O0Aljr6-15" value="11" style="rounded=0;whiteSpace=wrap;html=1;fillColor=#ffe6cc;strokeColor=#d79b00;" vertex="1" parent="Fm_gpZ8SLg755O0Aljr6-1">
          <mxGeometry x="220" y="200" width="50" height="40" as="geometry" />
        </mxCell>
        <mxCell id="Fm_gpZ8SLg755O0Aljr6-16" value="12" style="rounded=0;whiteSpace=wrap;html=1;" vertex="1" parent="Fm_gpZ8SLg755O0Aljr6-1">
          <mxGeometry x="270" y="200" width="50" height="40" as="geometry" />
        </mxCell>
        <mxCell id="Fm_gpZ8SLg755O0Aljr6-17" value="4" style="rounded=0;whiteSpace=wrap;html=1;fillColor=#ffe6cc;strokeColor=#d79b00;" vertex="1" parent="Fm_gpZ8SLg755O0Aljr6-1">
          <mxGeometry x="364" y="190" width="50" height="20" as="geometry" />
        </mxCell>
        <mxCell id="Fm_gpZ8SLg755O0Aljr6-18" value="6" style="rounded=0;whiteSpace=wrap;html=1;fillColor=#ffe6cc;strokeColor=#d79b00;" vertex="1" parent="Fm_gpZ8SLg755O0Aljr6-1">
          <mxGeometry x="364" y="210" width="50" height="20" as="geometry" />
        </mxCell>
        <mxCell id="Fm_gpZ8SLg755O0Aljr6-19" value="11" style="rounded=0;whiteSpace=wrap;html=1;fillColor=#ffe6cc;strokeColor=#d79b00;" vertex="1" parent="Fm_gpZ8SLg755O0Aljr6-1">
          <mxGeometry x="364" y="230" width="50" height="20" as="geometry" />
        </mxCell>
        <mxCell id="Fm_gpZ8SLg755O0Aljr6-21" value="间接块" style="text;html=1;strokeColor=none;fillColor=none;align=center;verticalAlign=middle;whiteSpace=wrap;rounded=0;" vertex="1" parent="Fm_gpZ8SLg755O0Aljr6-1">
          <mxGeometry x="374" y="265" width="40" height="20" as="geometry" />
        </mxCell>
        <mxCell id="Fm_gpZ8SLg755O0Aljr6-22" value="" style="endArrow=classic;html=1;strokeColor=#FF8000;entryX=0;entryY=0.75;entryDx=0;entryDy=0;" edge="1" parent="Fm_gpZ8SLg755O0Aljr6-1" source="Fm_gpZ8SLg755O0Aljr6-15" target="Fm_gpZ8SLg755O0Aljr6-19">
          <mxGeometry width="50" height="50" relative="1" as="geometry">
            <mxPoint x="240" y="320" as="sourcePoint" />
            <mxPoint x="290" y="270" as="targetPoint" />
          </mxGeometry>
        </mxCell>
        <mxCell id="Fm_gpZ8SLg755O0Aljr6-23" value="" style="endArrow=classic;html=1;strokeColor=#FF8000;exitX=1;exitY=0.5;exitDx=0;exitDy=0;entryX=0;entryY=0.5;entryDx=0;entryDy=0;" edge="1" parent="Fm_gpZ8SLg755O0Aljr6-1" source="Fm_gpZ8SLg755O0Aljr6-8" target="Fm_gpZ8SLg755O0Aljr6-17">
          <mxGeometry width="50" height="50" relative="1" as="geometry">
            <mxPoint x="380" y="160" as="sourcePoint" />
            <mxPoint x="430" y="110" as="targetPoint" />
          </mxGeometry>
        </mxCell>
        <mxCell id="Fm_gpZ8SLg755O0Aljr6-24" value="" style="endArrow=classic;html=1;strokeColor=#FF8000;entryX=0;entryY=0.5;entryDx=0;entryDy=0;exitX=1;exitY=0.5;exitDx=0;exitDy=0;" edge="1" parent="Fm_gpZ8SLg755O0Aljr6-1" source="Fm_gpZ8SLg755O0Aljr6-10" target="Fm_gpZ8SLg755O0Aljr6-18">
          <mxGeometry width="50" height="50" relative="1" as="geometry">
            <mxPoint x="200" y="360" as="sourcePoint" />
            <mxPoint x="250" y="310" as="targetPoint" />
          </mxGeometry>
        </mxCell>
        <mxCell id="Fm_gpZ8SLg755O0Aljr6-25" value="" style="rounded=0;whiteSpace=wrap;html=1;" vertex="1" parent="Fm_gpZ8SLg755O0Aljr6-1">
          <mxGeometry x="550" y="120" width="76" height="190" as="geometry" />
        </mxCell>
        <mxCell id="Fm_gpZ8SLg755O0Aljr6-26" value="磁盘块" style="text;html=1;strokeColor=none;fillColor=none;align=center;verticalAlign=middle;whiteSpace=wrap;rounded=0;" vertex="1" parent="Fm_gpZ8SLg755O0Aljr6-1">
          <mxGeometry x="190" y="250" width="40" height="20" as="geometry" />
        </mxCell>
        <mxCell id="Fm_gpZ8SLg755O0Aljr6-27" value="索引块" style="text;html=1;strokeColor=none;fillColor=none;align=center;verticalAlign=middle;whiteSpace=wrap;rounded=0;" vertex="1" parent="Fm_gpZ8SLg755O0Aljr6-1">
          <mxGeometry x="568" y="320" width="40" height="20" as="geometry" />
        </mxCell>
        <mxCell id="Fm_gpZ8SLg755O0Aljr6-28" value="模式" style="rounded=0;whiteSpace=wrap;html=1;fillColor=#f5f5f5;strokeColor=#666666;fontColor=#333333;" vertex="1" parent="Fm_gpZ8SLg755O0Aljr6-1">
          <mxGeometry x="563" y="130" width="50" height="20" as="geometry" />
        </mxCell>
        <mxCell id="Fm_gpZ8SLg755O0Aljr6-29" value="所有者" style="rounded=0;whiteSpace=wrap;html=1;fillColor=#f5f5f5;strokeColor=#666666;fontColor=#333333;" vertex="1" parent="Fm_gpZ8SLg755O0Aljr6-1">
          <mxGeometry x="563" y="150" width="50" height="20" as="geometry" />
        </mxCell>
        <mxCell id="Fm_gpZ8SLg755O0Aljr6-30" value="大小" style="rounded=0;whiteSpace=wrap;html=1;fillColor=#f5f5f5;strokeColor=#666666;fontColor=#333333;" vertex="1" parent="Fm_gpZ8SLg755O0Aljr6-1">
          <mxGeometry x="563" y="170" width="50" height="20" as="geometry" />
        </mxCell>
        <mxCell id="Fm_gpZ8SLg755O0Aljr6-32" value="...其他属性" style="rounded=0;whiteSpace=wrap;html=1;fillColor=#f5f5f5;strokeColor=#666666;fontColor=#333333;" vertex="1" parent="Fm_gpZ8SLg755O0Aljr6-1">
          <mxGeometry x="563" y="190" width="50" height="20" as="geometry" />
        </mxCell>
        <mxCell id="Fm_gpZ8SLg755O0Aljr6-33" value="间接块1" style="rounded=0;whiteSpace=wrap;html=1;fillColor=#ffe6cc;strokeColor=#d79b00;" vertex="1" parent="Fm_gpZ8SLg755O0Aljr6-1">
          <mxGeometry x="563" y="210" width="50" height="20" as="geometry" />
        </mxCell>
        <mxCell id="Fm_gpZ8SLg755O0Aljr6-34" value="" style="endArrow=classic;html=1;strokeColor=#FF8000;entryX=0;entryY=0.5;entryDx=0;entryDy=0;exitX=1;exitY=0.5;exitDx=0;exitDy=0;" edge="1" parent="Fm_gpZ8SLg755O0Aljr6-1" source="Fm_gpZ8SLg755O0Aljr6-20" target="Fm_gpZ8SLg755O0Aljr6-33">
          <mxGeometry width="50" height="50" relative="1" as="geometry">
            <mxPoint x="420" y="350" as="sourcePoint" />
            <mxPoint x="470" y="300" as="targetPoint" />
          </mxGeometry>
        </mxCell>
        <mxCell id="Fm_gpZ8SLg755O0Aljr6-35" value="直接块9" style="rounded=0;whiteSpace=wrap;html=1;fillColor=#dae8fc;strokeColor=#6c8ebf;" vertex="1" parent="Fm_gpZ8SLg755O0Aljr6-1">
          <mxGeometry x="563" y="230" width="50" height="20" as="geometry" />
        </mxCell>
        <mxCell id="Fm_gpZ8SLg755O0Aljr6-36" value="直接块5" style="rounded=0;whiteSpace=wrap;html=1;fillColor=#dae8fc;strokeColor=#6c8ebf;" vertex="1" parent="Fm_gpZ8SLg755O0Aljr6-1">
          <mxGeometry x="563" y="250" width="50" height="20" as="geometry" />
        </mxCell>
        <mxCell id="Fm_gpZ8SLg755O0Aljr6-37" value="" style="endArrow=classic;html=1;exitX=0.5;exitY=1;exitDx=0;exitDy=0;entryX=0;entryY=0.5;entryDx=0;entryDy=0;strokeColor=#007FFF;" edge="1" parent="Fm_gpZ8SLg755O0Aljr6-1" source="Fm_gpZ8SLg755O0Aljr6-13" target="Fm_gpZ8SLg755O0Aljr6-35">
          <mxGeometry width="50" height="50" relative="1" as="geometry">
            <mxPoint x="170" y="350" as="sourcePoint" />
            <mxPoint x="220" y="300" as="targetPoint" />
            <Array as="points">
              <mxPoint x="145" y="270" />
              <mxPoint x="520" y="270" />
              <mxPoint x="520" y="240" />
            </Array>
          </mxGeometry>
        </mxCell>
        <mxCell id="Fm_gpZ8SLg755O0Aljr6-38" value="" style="endArrow=classic;html=1;strokeColor=#007FFF;exitX=0;exitY=0.5;exitDx=0;exitDy=0;entryX=0;entryY=0.5;entryDx=0;entryDy=0;" edge="1" parent="Fm_gpZ8SLg755O0Aljr6-1" source="Fm_gpZ8SLg755O0Aljr6-9" target="Fm_gpZ8SLg755O0Aljr6-36">
          <mxGeometry width="50" height="50" relative="1" as="geometry">
            <mxPoint x="200" y="390" as="sourcePoint" />
            <mxPoint x="250" y="340" as="targetPoint" />
            <Array as="points">
              <mxPoint x="110" y="200" />
              <mxPoint x="110" y="290" />
              <mxPoint x="530" y="290" />
              <mxPoint x="530" y="260" />
            </Array>
          </mxGeometry>
        </mxCell>
        <mxCell id="Fm_gpZ8SLg755O0Aljr6-39" value="其他块" style="rounded=0;whiteSpace=wrap;html=1;" vertex="1" parent="Fm_gpZ8SLg755O0Aljr6-1">
          <mxGeometry x="563" y="270" width="50" height="20" as="geometry" />
        </mxCell>
        <mxCell id="Fm_gpZ8SLg755O0Aljr6-40" value="磁盘" style="text;html=1;strokeColor=none;fillColor=none;align=center;verticalAlign=middle;whiteSpace=wrap;rounded=0;" vertex="1" parent="Fm_gpZ8SLg755O0Aljr6-1">
          <mxGeometry x="450" y="420" width="40" height="20" as="geometry" />
        </mxCell>
        <mxCell id="Fm_gpZ8SLg755O0Aljr6-42" value="磁盘数据" style="text;html=1;strokeColor=none;fillColor=none;align=center;verticalAlign=middle;whiteSpace=wrap;rounded=0;" vertex="1" parent="Fm_gpZ8SLg755O0Aljr6-1">
          <mxGeometry x="340" y="320" width="80" height="20" as="geometry" />
        </mxCell>
        <mxCell id="Fm_gpZ8SLg755O0Aljr6-44" value="" style="rounded=0;whiteSpace=wrap;html=1;" vertex="1" parent="Fm_gpZ8SLg755O0Aljr6-1">
          <mxGeometry x="980" width="30" height="340" as="geometry" />
        </mxCell>
        <mxCell id="Fm_gpZ8SLg755O0Aljr6-45" value="组合臂" style="text;html=1;strokeColor=none;fillColor=none;align=center;verticalAlign=middle;whiteSpace=wrap;rounded=0;" vertex="1" parent="Fm_gpZ8SLg755O0Aljr6-1">
          <mxGeometry x="970" y="-30" width="40" height="20" as="geometry" />
        </mxCell>
        <mxCell id="Fm_gpZ8SLg755O0Aljr6-46" value="" style="ellipse;whiteSpace=wrap;html=1;rounded=0;" vertex="1" parent="Fm_gpZ8SLg755O0Aljr6-1">
          <mxGeometry x="770" y="-10" width="120" height="80" as="geometry" />
        </mxCell>
        <mxCell id="Fm_gpZ8SLg755O0Aljr6-47" value="" style="endArrow=classic;html=1;strokeColor=#007FFF;entryX=0.5;entryY=0;entryDx=0;entryDy=0;exitX=0;exitY=0;exitDx=0;exitDy=0;" edge="1" parent="Fm_gpZ8SLg755O0Aljr6-1" source="Fm_gpZ8SLg755O0Aljr6-44" target="Fm_gpZ8SLg755O0Aljr6-46">
          <mxGeometry width="50" height="50" relative="1" as="geometry">
            <mxPoint x="880" y="140" as="sourcePoint" />
            <mxPoint x="930" y="90" as="targetPoint" />
            <Array as="points">
              <mxPoint x="910" />
              <mxPoint x="910" y="-30" />
              <mxPoint x="830" y="-30" />
            </Array>
          </mxGeometry>
        </mxCell>
        <mxCell id="Fm_gpZ8SLg755O0Aljr6-48" value="读写头" style="edgeLabel;html=1;align=center;verticalAlign=middle;resizable=0;points=[];" vertex="1" connectable="0" parent="Fm_gpZ8SLg755O0Aljr6-47">
          <mxGeometry x="0.29" y="1" relative="1" as="geometry">
            <mxPoint as="offset" />
          </mxGeometry>
        </mxCell>
        <mxCell id="Fm_gpZ8SLg755O0Aljr6-49" value="" style="line;strokeWidth=4;direction=south;html=1;perimeter=backbonePerimeter;points=[];outlineConnect=0;rounded=0;" vertex="1" parent="Fm_gpZ8SLg755O0Aljr6-1">
          <mxGeometry x="827" y="70" width="10" height="250" as="geometry" />
        </mxCell>
        <mxCell id="Fm_gpZ8SLg755O0Aljr6-50" value="主轴" style="text;html=1;strokeColor=none;fillColor=none;align=center;verticalAlign=middle;whiteSpace=wrap;rounded=0;" vertex="1" parent="Fm_gpZ8SLg755O0Aljr6-1">
          <mxGeometry x="812" y="340" width="40" height="20" as="geometry" />
        </mxCell>
        <mxCell id="Fm_gpZ8SLg755O0Aljr6-51" value="" style="curved=1;endArrow=classic;html=1;strokeColor=#007FFF;exitX=1;exitY=0.5;exitDx=0;exitDy=0;" edge="1" parent="Fm_gpZ8SLg755O0Aljr6-1" source="Fm_gpZ8SLg755O0Aljr6-50">
          <mxGeometry width="50" height="50" relative="1" as="geometry">
            <mxPoint x="720" y="400" as="sourcePoint" />
            <mxPoint x="800" y="350" as="targetPoint" />
            <Array as="points">
              <mxPoint x="880" y="370" />
              <mxPoint x="810" y="390" />
              <mxPoint x="770" y="370" />
            </Array>
          </mxGeometry>
        </mxCell>
        <mxCell id="Fm_gpZ8SLg755O0Aljr6-52" value="旋转-&amp;gt;旋转时间" style="text;html=1;strokeColor=none;fillColor=none;align=center;verticalAlign=middle;whiteSpace=wrap;rounded=0;" vertex="1" parent="Fm_gpZ8SLg755O0Aljr6-1">
          <mxGeometry x="800" y="400" width="100" height="20" as="geometry" />
        </mxCell>
        <mxCell id="Fm_gpZ8SLg755O0Aljr6-53" value="" style="ellipse;whiteSpace=wrap;html=1;rounded=0;" vertex="1" parent="Fm_gpZ8SLg755O0Aljr6-1">
          <mxGeometry x="780" width="100" height="60" as="geometry" />
        </mxCell>
        <mxCell id="Fm_gpZ8SLg755O0Aljr6-54" value="很多圈" style="ellipse;whiteSpace=wrap;html=1;rounded=0;" vertex="1" parent="Fm_gpZ8SLg755O0Aljr6-1">
          <mxGeometry x="785" y="5" width="90" height="50" as="geometry" />
        </mxCell>
        <mxCell id="Fm_gpZ8SLg755O0Aljr6-55" value="磁道" style="text;html=1;strokeColor=none;fillColor=none;align=center;verticalAlign=middle;whiteSpace=wrap;rounded=0;" vertex="1" parent="Fm_gpZ8SLg755O0Aljr6-1">
          <mxGeometry x="730" width="40" height="20" as="geometry" />
        </mxCell>
        <mxCell id="Fm_gpZ8SLg755O0Aljr6-56" value="" style="ellipse;whiteSpace=wrap;html=1;rounded=0;" vertex="1" parent="Fm_gpZ8SLg755O0Aljr6-1">
          <mxGeometry x="770" y="80" width="120" height="80" as="geometry" />
        </mxCell>
        <mxCell id="Fm_gpZ8SLg755O0Aljr6-57" value="" style="ellipse;whiteSpace=wrap;html=1;rounded=0;" vertex="1" parent="Fm_gpZ8SLg755O0Aljr6-1">
          <mxGeometry x="780" y="90" width="100" height="60" as="geometry" />
        </mxCell>
        <mxCell id="Fm_gpZ8SLg755O0Aljr6-58" value="" style="shape=waypoint;sketch=0;fillStyle=solid;size=6;pointerEvents=1;points=[];fillColor=#ffffff;resizable=0;rotatable=0;perimeter=centerPerimeter;snapToPoint=1;fontFamily=Helvetica;fontSize=12;fontColor=#000000;align=center;strokeColor=#000000;html=1;" vertex="1" parent="Fm_gpZ8SLg755O0Aljr6-1">
          <mxGeometry x="785" y="95" width="90" height="50" as="geometry" />
        </mxCell>
        <mxCell id="Fm_gpZ8SLg755O0Aljr6-59" value="" style="endArrow=none;html=1;strokeColor=#007FFF;entryX=0.433;entryY=0.54;entryDx=0;entryDy=0;entryPerimeter=0;exitX=0;exitY=0.5;exitDx=0;exitDy=0;strokeWidth=5;" edge="1" parent="Fm_gpZ8SLg755O0Aljr6-1" source="Fm_gpZ8SLg755O0Aljr6-56" target="Fm_gpZ8SLg755O0Aljr6-58">
          <mxGeometry width="50" height="50" relative="1" as="geometry">
            <mxPoint x="580" y="60" as="sourcePoint" />
            <mxPoint x="630" y="10" as="targetPoint" />
          </mxGeometry>
        </mxCell>
        <mxCell id="Fm_gpZ8SLg755O0Aljr6-60" value="" style="endArrow=none;html=1;strokeColor=#007FFF;entryX=0.511;entryY=0.56;entryDx=0;entryDy=0;entryPerimeter=0;exitX=0;exitY=1;exitDx=0;exitDy=0;strokeWidth=5;" edge="1" parent="Fm_gpZ8SLg755O0Aljr6-1" source="Fm_gpZ8SLg755O0Aljr6-56" target="Fm_gpZ8SLg755O0Aljr6-58">
          <mxGeometry width="50" height="50" relative="1" as="geometry">
            <mxPoint x="740" y="250" as="sourcePoint" />
            <mxPoint x="790" y="200" as="targetPoint" />
          </mxGeometry>
        </mxCell>
        <mxCell id="Fm_gpZ8SLg755O0Aljr6-61" value="扇区" style="text;html=1;strokeColor=none;fillColor=none;align=center;verticalAlign=middle;whiteSpace=wrap;rounded=0;" vertex="1" parent="Fm_gpZ8SLg755O0Aljr6-1">
          <mxGeometry x="730" y="125" width="40" height="20" as="geometry" />
        </mxCell>
        <mxCell id="Fm_gpZ8SLg755O0Aljr6-62" value="" style="ellipse;whiteSpace=wrap;html=1;rounded=0;" vertex="1" parent="Fm_gpZ8SLg755O0Aljr6-1">
          <mxGeometry x="770" y="175" width="120" height="80" as="geometry" />
        </mxCell>
        <mxCell id="Fm_gpZ8SLg755O0Aljr6-63" value="" style="shape=waypoint;sketch=0;fillStyle=solid;size=6;pointerEvents=1;points=[];fillColor=#ffffff;resizable=0;rotatable=0;perimeter=centerPerimeter;snapToPoint=1;fontFamily=Helvetica;fontSize=12;fontColor=#000000;align=center;strokeColor=#000000;html=1;" vertex="1" parent="Fm_gpZ8SLg755O0Aljr6-1">
          <mxGeometry x="785" y="190" width="90" height="50" as="geometry" />
        </mxCell>
        <mxCell id="Fm_gpZ8SLg755O0Aljr6-65" value="柱面" style="ellipse;shape=doubleEllipse;whiteSpace=wrap;html=1;rounded=0;" vertex="1" parent="Fm_gpZ8SLg755O0Aljr6-1">
          <mxGeometry x="782" y="185" width="100" height="60" as="geometry" />
        </mxCell>
        <mxCell id="Fm_gpZ8SLg755O0Aljr6-66" value="盘面" style="ellipse;whiteSpace=wrap;html=1;rounded=0;" vertex="1" parent="Fm_gpZ8SLg755O0Aljr6-1">
          <mxGeometry x="772" y="260" width="120" height="50" as="geometry" />
        </mxCell>
        <mxCell id="Fm_gpZ8SLg755O0Aljr6-67" value="过程：寻道-&amp;gt;旋转-&amp;gt;读取数据" style="text;html=1;strokeColor=none;fillColor=none;align=center;verticalAlign=middle;whiteSpace=wrap;rounded=0;" vertex="1" parent="Fm_gpZ8SLg755O0Aljr6-1">
          <mxGeometry x="573" y="-50" width="207" height="20" as="geometry" />
        </mxCell>
        <mxCell id="Fm_gpZ8SLg755O0Aljr6-69" value="" style="endArrow=classic;html=1;strokeWidth=2;entryX=0;entryY=0.5;entryDx=0;entryDy=0;entryPerimeter=0;exitX=0;exitY=0.5;exitDx=0;exitDy=0;strokeColor=#FFCE9F;" edge="1" parent="Fm_gpZ8SLg755O0Aljr6-1" source="Fm_gpZ8SLg755O0Aljr6-66" target="Fm_gpZ8SLg755O0Aljr6-46">
          <mxGeometry width="50" height="50" relative="1" as="geometry">
            <mxPoint x="690" y="250" as="sourcePoint" />
            <mxPoint x="740" y="200" as="targetPoint" />
            <Array as="points">
              <mxPoint x="730" y="285" />
              <mxPoint x="730" y="30" />
            </Array>
          </mxGeometry>
        </mxCell>
        <mxCell id="Fm_gpZ8SLg755O0Aljr6-70" value="" style="endArrow=none;html=1;strokeWidth=2;entryX=0;entryY=0.5;entryDx=0;entryDy=0;strokeColor=#FFCE9F;" edge="1" parent="Fm_gpZ8SLg755O0Aljr6-1" target="Fm_gpZ8SLg755O0Aljr6-62">
          <mxGeometry width="50" height="50" relative="1" as="geometry">
            <mxPoint x="730" y="215" as="sourcePoint" />
            <mxPoint x="740" y="330" as="targetPoint" />
          </mxGeometry>
        </mxCell>
        <mxCell id="Fm_gpZ8SLg755O0Aljr6-71" value="" style="endArrow=none;html=1;strokeWidth=2;strokeColor=#FFCE9F;" edge="1" parent="Fm_gpZ8SLg755O0Aljr6-1">
          <mxGeometry width="50" height="50" relative="1" as="geometry">
            <mxPoint x="730" y="120" as="sourcePoint" />
            <mxPoint x="770" y="120" as="targetPoint" />
          </mxGeometry>
        </mxCell>
        <mxCell id="Fm_gpZ8SLg755O0Aljr6-72" value="盘面0+柱面1+扇区2=&amp;gt;磁道=&amp;gt;寻道时间" style="text;html=1;strokeColor=none;fillColor=none;align=center;verticalAlign=middle;whiteSpace=wrap;rounded=0;" vertex="1" parent="Fm_gpZ8SLg755O0Aljr6-1">
          <mxGeometry x="568" y="70" width="230" height="20" as="geometry" />
        </mxCell>
        <mxCell id="Fm_gpZ8SLg755O0Aljr6-73" value="" style="endArrow=classic;html=1;strokeColor=#FFCE9F;strokeWidth=2;entryX=0.75;entryY=0;entryDx=0;entryDy=0;" edge="1" parent="Fm_gpZ8SLg755O0Aljr6-1" target="Fm_gpZ8SLg755O0Aljr6-41">
          <mxGeometry width="50" height="50" relative="1" as="geometry">
            <mxPoint x="690" as="sourcePoint" />
            <mxPoint x="480" y="30" as="targetPoint" />
            <Array as="points">
              <mxPoint x="523" />
            </Array>
          </mxGeometry>
        </mxCell>
        <mxCell id="Fm_gpZ8SLg755O0Aljr6-75" value="读取数据到内存" style="edgeLabel;html=1;align=center;verticalAlign=middle;resizable=0;points=[];" vertex="1" connectable="0" parent="Fm_gpZ8SLg755O0Aljr6-73">
          <mxGeometry x="0.0614" y="1" relative="1" as="geometry">
            <mxPoint as="offset" />
          </mxGeometry>
        </mxCell>
        <mxCell id="Fm_gpZ8SLg755O0Aljr6-76" value="" style="rounded=0;whiteSpace=wrap;html=1;" vertex="1" parent="Fm_gpZ8SLg755O0Aljr6-1">
          <mxGeometry x="100" y="-510" width="1130" height="440" as="geometry" />
        </mxCell>
        <mxCell id="Fm_gpZ8SLg755O0Aljr6-78" value="主内存(DRAM)" style="text;html=1;strokeColor=none;fillColor=none;align=center;verticalAlign=middle;whiteSpace=wrap;rounded=0;" vertex="1" parent="Fm_gpZ8SLg755O0Aljr6-1">
          <mxGeometry x="608" y="-110" width="112" height="20" as="geometry" />
        </mxCell>
        <mxCell id="Fm_gpZ8SLg755O0Aljr6-81" value="" style="edgeStyle=orthogonalEdgeStyle;rounded=0;orthogonalLoop=1;jettySize=auto;html=1;strokeColor=#FFCE9F;strokeWidth=2;" edge="1" parent="Fm_gpZ8SLg755O0Aljr6-1" source="Fm_gpZ8SLg755O0Aljr6-79" target="Fm_gpZ8SLg755O0Aljr6-80">
          <mxGeometry relative="1" as="geometry" />
        </mxCell>
        <mxCell id="Fm_gpZ8SLg755O0Aljr6-79" value="bucket(一组16)" style="rounded=0;whiteSpace=wrap;html=1;" vertex="1" parent="Fm_gpZ8SLg755O0Aljr6-1">
          <mxGeometry x="140" y="-460" width="120" height="40" as="geometry" />
        </mxCell>
        <mxCell id="Fm_gpZ8SLg755O0Aljr6-83" value="" style="edgeStyle=orthogonalEdgeStyle;rounded=0;orthogonalLoop=1;jettySize=auto;html=1;strokeColor=#FFCE9F;strokeWidth=2;" edge="1" parent="Fm_gpZ8SLg755O0Aljr6-1" source="Fm_gpZ8SLg755O0Aljr6-80">
          <mxGeometry relative="1" as="geometry">
            <mxPoint x="540" y="-440" as="targetPoint" />
          </mxGeometry>
        </mxCell>
        <mxCell id="Fm_gpZ8SLg755O0Aljr6-80" value="" style="rounded=0;whiteSpace=wrap;html=1;" vertex="1" parent="Fm_gpZ8SLg755O0Aljr6-1">
          <mxGeometry x="340" y="-460" width="120" height="40" as="geometry" />
        </mxCell>
        <mxCell id="Fm_gpZ8SLg755O0Aljr6-84" value="tag" style="rounded=0;whiteSpace=wrap;html=1;" vertex="1" parent="Fm_gpZ8SLg755O0Aljr6-1">
          <mxGeometry x="340" y="-455" width="40" height="30.77" as="geometry" />
        </mxCell>
        <mxCell id="Fm_gpZ8SLg755O0Aljr6-85" value="cache&lt;br&gt;Line" style="rounded=0;whiteSpace=wrap;html=1;" vertex="1" parent="Fm_gpZ8SLg755O0Aljr6-1">
          <mxGeometry x="379" y="-455" width="39" height="30" as="geometry" />
        </mxCell>
        <mxCell id="Fm_gpZ8SLg755O0Aljr6-86" value="E" style="rounded=0;whiteSpace=wrap;html=1;fillColor=#f8cecc;strokeColor=#b85450;" vertex="1" parent="Fm_gpZ8SLg755O0Aljr6-1">
          <mxGeometry x="418" y="-455" width="39" height="30" as="geometry" />
        </mxCell>
        <mxCell id="Fm_gpZ8SLg755O0Aljr6-89" value="" style="rounded=0;whiteSpace=wrap;html=1;" vertex="1" parent="Fm_gpZ8SLg755O0Aljr6-1">
          <mxGeometry x="540" y="-460" width="120" height="40" as="geometry" />
        </mxCell>
        <mxCell id="Fm_gpZ8SLg755O0Aljr6-90" value="tag" style="rounded=0;whiteSpace=wrap;html=1;" vertex="1" parent="Fm_gpZ8SLg755O0Aljr6-1">
          <mxGeometry x="540" y="-455" width="39" height="30" as="geometry" />
        </mxCell>
        <mxCell id="Fm_gpZ8SLg755O0Aljr6-91" value="cache&lt;br&gt;Line" style="rounded=0;whiteSpace=wrap;html=1;" vertex="1" parent="Fm_gpZ8SLg755O0Aljr6-1">
          <mxGeometry x="579" y="-455" width="39" height="30" as="geometry" />
        </mxCell>
        <mxCell id="Fm_gpZ8SLg755O0Aljr6-101" value="" style="edgeStyle=orthogonalEdgeStyle;rounded=0;orthogonalLoop=1;jettySize=auto;html=1;strokeColor=#FFCE9F;strokeWidth=2;entryX=0;entryY=0.5;entryDx=0;entryDy=0;" edge="1" parent="Fm_gpZ8SLg755O0Aljr6-1" source="Fm_gpZ8SLg755O0Aljr6-92" target="Fm_gpZ8SLg755O0Aljr6-94">
          <mxGeometry relative="1" as="geometry" />
        </mxCell>
        <mxCell id="Fm_gpZ8SLg755O0Aljr6-92" value="S" style="rounded=0;whiteSpace=wrap;html=1;fillColor=#f8cecc;strokeColor=#b85450;" vertex="1" parent="Fm_gpZ8SLg755O0Aljr6-1">
          <mxGeometry x="618" y="-455" width="39" height="30" as="geometry" />
        </mxCell>
        <mxCell id="Fm_gpZ8SLg755O0Aljr6-93" value="" style="rounded=0;whiteSpace=wrap;html=1;" vertex="1" parent="Fm_gpZ8SLg755O0Aljr6-1">
          <mxGeometry x="720" y="-460" width="120" height="40" as="geometry" />
        </mxCell>
        <mxCell id="Fm_gpZ8SLg755O0Aljr6-94" value="tag" style="rounded=0;whiteSpace=wrap;html=1;" vertex="1" parent="Fm_gpZ8SLg755O0Aljr6-1">
          <mxGeometry x="720" y="-455" width="39" height="30" as="geometry" />
        </mxCell>
        <mxCell id="Fm_gpZ8SLg755O0Aljr6-95" value="cache&lt;br&gt;Line" style="rounded=0;whiteSpace=wrap;html=1;" vertex="1" parent="Fm_gpZ8SLg755O0Aljr6-1">
          <mxGeometry x="759" y="-455" width="39" height="30" as="geometry" />
        </mxCell>
        <mxCell id="Fm_gpZ8SLg755O0Aljr6-102" value="" style="edgeStyle=orthogonalEdgeStyle;rounded=0;orthogonalLoop=1;jettySize=auto;html=1;strokeColor=#FFCE9F;strokeWidth=2;" edge="1" parent="Fm_gpZ8SLg755O0Aljr6-1" source="Fm_gpZ8SLg755O0Aljr6-96" target="Fm_gpZ8SLg755O0Aljr6-98">
          <mxGeometry relative="1" as="geometry" />
        </mxCell>
        <mxCell id="Fm_gpZ8SLg755O0Aljr6-96" value="M" style="rounded=0;whiteSpace=wrap;html=1;fillColor=#f8cecc;strokeColor=#b85450;" vertex="1" parent="Fm_gpZ8SLg755O0Aljr6-1">
          <mxGeometry x="798" y="-455" width="39" height="30" as="geometry" />
        </mxCell>
        <mxCell id="Fm_gpZ8SLg755O0Aljr6-97" value="" style="rounded=0;whiteSpace=wrap;html=1;" vertex="1" parent="Fm_gpZ8SLg755O0Aljr6-1">
          <mxGeometry x="920" y="-460" width="120" height="40" as="geometry" />
        </mxCell>
        <mxCell id="Fm_gpZ8SLg755O0Aljr6-98" value="tag" style="rounded=0;whiteSpace=wrap;html=1;" vertex="1" parent="Fm_gpZ8SLg755O0Aljr6-1">
          <mxGeometry x="920" y="-455" width="39" height="30" as="geometry" />
        </mxCell>
        <mxCell id="Fm_gpZ8SLg755O0Aljr6-99" value="cache&lt;br&gt;Line" style="rounded=0;whiteSpace=wrap;html=1;" vertex="1" parent="Fm_gpZ8SLg755O0Aljr6-1">
          <mxGeometry x="959" y="-455" width="39" height="30" as="geometry" />
        </mxCell>
        <mxCell id="Fm_gpZ8SLg755O0Aljr6-100" value="I" style="rounded=0;whiteSpace=wrap;html=1;fillColor=#f8cecc;strokeColor=#b85450;" vertex="1" parent="Fm_gpZ8SLg755O0Aljr6-1">
          <mxGeometry x="998" y="-455" width="39" height="30" as="geometry" />
        </mxCell>
        <mxCell id="Fm_gpZ8SLg755O0Aljr6-103" value="" style="edgeStyle=orthogonalEdgeStyle;rounded=0;orthogonalLoop=1;jettySize=auto;html=1;strokeColor=#FFCE9F;strokeWidth=2;" edge="1" parent="Fm_gpZ8SLg755O0Aljr6-1" source="Fm_gpZ8SLg755O0Aljr6-104" target="Fm_gpZ8SLg755O0Aljr6-106">
          <mxGeometry relative="1" as="geometry" />
        </mxCell>
        <mxCell id="Fm_gpZ8SLg755O0Aljr6-104" value="bucket(一组16)" style="rounded=0;whiteSpace=wrap;html=1;" vertex="1" parent="Fm_gpZ8SLg755O0Aljr6-1">
          <mxGeometry x="139.5" y="-370" width="120" height="40" as="geometry" />
        </mxCell>
        <mxCell id="Fm_gpZ8SLg755O0Aljr6-105" value="" style="edgeStyle=orthogonalEdgeStyle;rounded=0;orthogonalLoop=1;jettySize=auto;html=1;strokeColor=#FFCE9F;strokeWidth=2;" edge="1" parent="Fm_gpZ8SLg755O0Aljr6-1" source="Fm_gpZ8SLg755O0Aljr6-106">
          <mxGeometry relative="1" as="geometry">
            <mxPoint x="539.5" y="-350" as="targetPoint" />
          </mxGeometry>
        </mxCell>
        <mxCell id="Fm_gpZ8SLg755O0Aljr6-106" value="" style="rounded=0;whiteSpace=wrap;html=1;" vertex="1" parent="Fm_gpZ8SLg755O0Aljr6-1">
          <mxGeometry x="339.5" y="-370" width="120" height="40" as="geometry" />
        </mxCell>
        <mxCell id="Fm_gpZ8SLg755O0Aljr6-107" value="tag" style="rounded=0;whiteSpace=wrap;html=1;" vertex="1" parent="Fm_gpZ8SLg755O0Aljr6-1">
          <mxGeometry x="339.5" y="-365" width="40" height="30.77" as="geometry" />
        </mxCell>
        <mxCell id="Fm_gpZ8SLg755O0Aljr6-108" value="flag" style="rounded=0;whiteSpace=wrap;html=1;" vertex="1" parent="Fm_gpZ8SLg755O0Aljr6-1">
          <mxGeometry x="417.5" y="-365" width="39" height="30" as="geometry" />
        </mxCell>
        <mxCell id="Fm_gpZ8SLg755O0Aljr6-109" value="" style="rounded=0;whiteSpace=wrap;html=1;" vertex="1" parent="Fm_gpZ8SLg755O0Aljr6-1">
          <mxGeometry x="539.5" y="-370" width="120" height="40" as="geometry" />
        </mxCell>
        <mxCell id="Fm_gpZ8SLg755O0Aljr6-110" value="tag" style="rounded=0;whiteSpace=wrap;html=1;" vertex="1" parent="Fm_gpZ8SLg755O0Aljr6-1">
          <mxGeometry x="539.5" y="-365" width="39" height="30" as="geometry" />
        </mxCell>
        <mxCell id="Fm_gpZ8SLg755O0Aljr6-111" value="cache&lt;br&gt;Line" style="rounded=0;whiteSpace=wrap;html=1;" vertex="1" parent="Fm_gpZ8SLg755O0Aljr6-1">
          <mxGeometry x="578.5" y="-365" width="39" height="30" as="geometry" />
        </mxCell>
        <mxCell id="Fm_gpZ8SLg755O0Aljr6-112" value="" style="edgeStyle=orthogonalEdgeStyle;rounded=0;orthogonalLoop=1;jettySize=auto;html=1;strokeColor=#FFCE9F;strokeWidth=2;entryX=0;entryY=0.5;entryDx=0;entryDy=0;" edge="1" parent="Fm_gpZ8SLg755O0Aljr6-1" source="Fm_gpZ8SLg755O0Aljr6-113" target="Fm_gpZ8SLg755O0Aljr6-115">
          <mxGeometry relative="1" as="geometry" />
        </mxCell>
        <mxCell id="Fm_gpZ8SLg755O0Aljr6-113" value="flag" style="rounded=0;whiteSpace=wrap;html=1;" vertex="1" parent="Fm_gpZ8SLg755O0Aljr6-1">
          <mxGeometry x="617.5" y="-365" width="39" height="30" as="geometry" />
        </mxCell>
        <mxCell id="Fm_gpZ8SLg755O0Aljr6-114" value="" style="rounded=0;whiteSpace=wrap;html=1;" vertex="1" parent="Fm_gpZ8SLg755O0Aljr6-1">
          <mxGeometry x="719.5" y="-370" width="120" height="40" as="geometry" />
        </mxCell>
        <mxCell id="Fm_gpZ8SLg755O0Aljr6-115" value="tag" style="rounded=0;whiteSpace=wrap;html=1;" vertex="1" parent="Fm_gpZ8SLg755O0Aljr6-1">
          <mxGeometry x="719.5" y="-365" width="39" height="30" as="geometry" />
        </mxCell>
        <mxCell id="Fm_gpZ8SLg755O0Aljr6-116" value="cache&lt;br&gt;Line" style="rounded=0;whiteSpace=wrap;html=1;" vertex="1" parent="Fm_gpZ8SLg755O0Aljr6-1">
          <mxGeometry x="758.5" y="-365" width="39" height="30" as="geometry" />
        </mxCell>
        <mxCell id="Fm_gpZ8SLg755O0Aljr6-117" value="" style="edgeStyle=orthogonalEdgeStyle;rounded=0;orthogonalLoop=1;jettySize=auto;html=1;strokeColor=#FFCE9F;strokeWidth=2;" edge="1" parent="Fm_gpZ8SLg755O0Aljr6-1" source="Fm_gpZ8SLg755O0Aljr6-118">
          <mxGeometry relative="1" as="geometry">
            <mxPoint x="919.5" y="-350" as="targetPoint" />
          </mxGeometry>
        </mxCell>
        <mxCell id="Fm_gpZ8SLg755O0Aljr6-118" value="flag" style="rounded=0;whiteSpace=wrap;html=1;" vertex="1" parent="Fm_gpZ8SLg755O0Aljr6-1">
          <mxGeometry x="797.5" y="-365" width="39" height="30" as="geometry" />
        </mxCell>
        <mxCell id="Fm_gpZ8SLg755O0Aljr6-122" value="" style="edgeStyle=orthogonalEdgeStyle;rounded=0;orthogonalLoop=1;jettySize=auto;html=1;strokeColor=#FFCE9F;strokeWidth=2;" edge="1" parent="Fm_gpZ8SLg755O0Aljr6-1" source="Fm_gpZ8SLg755O0Aljr6-123" target="Fm_gpZ8SLg755O0Aljr6-125">
          <mxGeometry relative="1" as="geometry" />
        </mxCell>
        <mxCell id="Fm_gpZ8SLg755O0Aljr6-123" value="bucket(一组16)" style="rounded=0;whiteSpace=wrap;html=1;" vertex="1" parent="Fm_gpZ8SLg755O0Aljr6-1">
          <mxGeometry x="139.5" y="-270" width="120" height="40" as="geometry" />
        </mxCell>
        <mxCell id="Fm_gpZ8SLg755O0Aljr6-124" value="" style="edgeStyle=orthogonalEdgeStyle;rounded=0;orthogonalLoop=1;jettySize=auto;html=1;strokeColor=#FFCE9F;strokeWidth=2;" edge="1" parent="Fm_gpZ8SLg755O0Aljr6-1" source="Fm_gpZ8SLg755O0Aljr6-125">
          <mxGeometry relative="1" as="geometry">
            <mxPoint x="539.5" y="-250" as="targetPoint" />
          </mxGeometry>
        </mxCell>
        <mxCell id="Fm_gpZ8SLg755O0Aljr6-125" value="" style="rounded=0;whiteSpace=wrap;html=1;" vertex="1" parent="Fm_gpZ8SLg755O0Aljr6-1">
          <mxGeometry x="339.5" y="-270" width="120" height="40" as="geometry" />
        </mxCell>
        <mxCell id="Fm_gpZ8SLg755O0Aljr6-126" value="tag" style="rounded=0;whiteSpace=wrap;html=1;" vertex="1" parent="Fm_gpZ8SLg755O0Aljr6-1">
          <mxGeometry x="339.5" y="-265" width="40" height="30.77" as="geometry" />
        </mxCell>
        <mxCell id="Fm_gpZ8SLg755O0Aljr6-127" value="flag" style="rounded=0;whiteSpace=wrap;html=1;" vertex="1" parent="Fm_gpZ8SLg755O0Aljr6-1">
          <mxGeometry x="417.5" y="-265" width="39" height="30" as="geometry" />
        </mxCell>
        <mxCell id="Fm_gpZ8SLg755O0Aljr6-128" value="" style="rounded=0;whiteSpace=wrap;html=1;" vertex="1" parent="Fm_gpZ8SLg755O0Aljr6-1">
          <mxGeometry x="539.5" y="-270" width="120" height="40" as="geometry" />
        </mxCell>
        <mxCell id="Fm_gpZ8SLg755O0Aljr6-129" value="tag" style="rounded=0;whiteSpace=wrap;html=1;" vertex="1" parent="Fm_gpZ8SLg755O0Aljr6-1">
          <mxGeometry x="539.5" y="-265" width="39" height="30" as="geometry" />
        </mxCell>
        <mxCell id="Fm_gpZ8SLg755O0Aljr6-130" value="cache&lt;br&gt;Line" style="rounded=0;whiteSpace=wrap;html=1;" vertex="1" parent="Fm_gpZ8SLg755O0Aljr6-1">
          <mxGeometry x="578.5" y="-265" width="39" height="30" as="geometry" />
        </mxCell>
        <mxCell id="Fm_gpZ8SLg755O0Aljr6-131" value="" style="edgeStyle=orthogonalEdgeStyle;rounded=0;orthogonalLoop=1;jettySize=auto;html=1;strokeColor=#FFCE9F;strokeWidth=2;entryX=0;entryY=0.5;entryDx=0;entryDy=0;" edge="1" parent="Fm_gpZ8SLg755O0Aljr6-1" source="Fm_gpZ8SLg755O0Aljr6-132" target="Fm_gpZ8SLg755O0Aljr6-134">
          <mxGeometry relative="1" as="geometry" />
        </mxCell>
        <mxCell id="Fm_gpZ8SLg755O0Aljr6-132" value="flag" style="rounded=0;whiteSpace=wrap;html=1;" vertex="1" parent="Fm_gpZ8SLg755O0Aljr6-1">
          <mxGeometry x="617.5" y="-265" width="39" height="30" as="geometry" />
        </mxCell>
        <mxCell id="Fm_gpZ8SLg755O0Aljr6-133" value="" style="rounded=0;whiteSpace=wrap;html=1;" vertex="1" parent="Fm_gpZ8SLg755O0Aljr6-1">
          <mxGeometry x="719.5" y="-270" width="120" height="40" as="geometry" />
        </mxCell>
        <mxCell id="Fm_gpZ8SLg755O0Aljr6-134" value="tag" style="rounded=0;whiteSpace=wrap;html=1;" vertex="1" parent="Fm_gpZ8SLg755O0Aljr6-1">
          <mxGeometry x="719.5" y="-265" width="39" height="30" as="geometry" />
        </mxCell>
        <mxCell id="Fm_gpZ8SLg755O0Aljr6-135" value="cache&lt;br&gt;Line" style="rounded=0;whiteSpace=wrap;html=1;" vertex="1" parent="Fm_gpZ8SLg755O0Aljr6-1">
          <mxGeometry x="758.5" y="-265" width="39" height="30" as="geometry" />
        </mxCell>
        <mxCell id="Fm_gpZ8SLg755O0Aljr6-136" value="" style="edgeStyle=orthogonalEdgeStyle;rounded=0;orthogonalLoop=1;jettySize=auto;html=1;strokeColor=#FFCE9F;strokeWidth=2;" edge="1" parent="Fm_gpZ8SLg755O0Aljr6-1" source="Fm_gpZ8SLg755O0Aljr6-137">
          <mxGeometry relative="1" as="geometry">
            <mxPoint x="919.5" y="-250" as="targetPoint" />
          </mxGeometry>
        </mxCell>
        <mxCell id="Fm_gpZ8SLg755O0Aljr6-137" value="flag" style="rounded=0;whiteSpace=wrap;html=1;" vertex="1" parent="Fm_gpZ8SLg755O0Aljr6-1">
          <mxGeometry x="797.5" y="-265" width="39" height="30" as="geometry" />
        </mxCell>
        <mxCell id="Fm_gpZ8SLg755O0Aljr6-141" value="" style="edgeStyle=orthogonalEdgeStyle;rounded=0;orthogonalLoop=1;jettySize=auto;html=1;strokeColor=#FFCE9F;strokeWidth=2;" edge="1" parent="Fm_gpZ8SLg755O0Aljr6-1" source="Fm_gpZ8SLg755O0Aljr6-142" target="Fm_gpZ8SLg755O0Aljr6-144">
          <mxGeometry relative="1" as="geometry" />
        </mxCell>
        <mxCell id="Fm_gpZ8SLg755O0Aljr6-142" value="bucket(一组16)" style="rounded=0;whiteSpace=wrap;html=1;" vertex="1" parent="Fm_gpZ8SLg755O0Aljr6-1">
          <mxGeometry x="139.5" y="-180" width="120" height="40" as="geometry" />
        </mxCell>
        <mxCell id="Fm_gpZ8SLg755O0Aljr6-143" value="" style="edgeStyle=orthogonalEdgeStyle;rounded=0;orthogonalLoop=1;jettySize=auto;html=1;strokeColor=#FFCE9F;strokeWidth=2;" edge="1" parent="Fm_gpZ8SLg755O0Aljr6-1" source="Fm_gpZ8SLg755O0Aljr6-144">
          <mxGeometry relative="1" as="geometry">
            <mxPoint x="539.5" y="-160" as="targetPoint" />
          </mxGeometry>
        </mxCell>
        <mxCell id="Fm_gpZ8SLg755O0Aljr6-144" value="" style="rounded=0;whiteSpace=wrap;html=1;" vertex="1" parent="Fm_gpZ8SLg755O0Aljr6-1">
          <mxGeometry x="339.5" y="-180" width="120" height="40" as="geometry" />
        </mxCell>
        <mxCell id="Fm_gpZ8SLg755O0Aljr6-145" value="tag" style="rounded=0;whiteSpace=wrap;html=1;" vertex="1" parent="Fm_gpZ8SLg755O0Aljr6-1">
          <mxGeometry x="339.5" y="-175" width="40" height="30.77" as="geometry" />
        </mxCell>
        <mxCell id="Fm_gpZ8SLg755O0Aljr6-146" value="flag" style="rounded=0;whiteSpace=wrap;html=1;" vertex="1" parent="Fm_gpZ8SLg755O0Aljr6-1">
          <mxGeometry x="417.5" y="-175" width="39" height="30" as="geometry" />
        </mxCell>
        <mxCell id="Fm_gpZ8SLg755O0Aljr6-147" value="" style="rounded=0;whiteSpace=wrap;html=1;" vertex="1" parent="Fm_gpZ8SLg755O0Aljr6-1">
          <mxGeometry x="539.5" y="-180" width="120" height="40" as="geometry" />
        </mxCell>
        <mxCell id="Fm_gpZ8SLg755O0Aljr6-148" value="tag" style="rounded=0;whiteSpace=wrap;html=1;" vertex="1" parent="Fm_gpZ8SLg755O0Aljr6-1">
          <mxGeometry x="539.5" y="-175" width="39" height="30" as="geometry" />
        </mxCell>
        <mxCell id="Fm_gpZ8SLg755O0Aljr6-149" value="cache&lt;br&gt;Line" style="rounded=0;whiteSpace=wrap;html=1;" vertex="1" parent="Fm_gpZ8SLg755O0Aljr6-1">
          <mxGeometry x="578.5" y="-175" width="39" height="30" as="geometry" />
        </mxCell>
        <mxCell id="Fm_gpZ8SLg755O0Aljr6-150" value="" style="edgeStyle=orthogonalEdgeStyle;rounded=0;orthogonalLoop=1;jettySize=auto;html=1;strokeColor=#FFCE9F;strokeWidth=2;entryX=0;entryY=0.5;entryDx=0;entryDy=0;" edge="1" parent="Fm_gpZ8SLg755O0Aljr6-1" source="Fm_gpZ8SLg755O0Aljr6-151" target="Fm_gpZ8SLg755O0Aljr6-153">
          <mxGeometry relative="1" as="geometry" />
        </mxCell>
        <mxCell id="Fm_gpZ8SLg755O0Aljr6-151" value="flag" style="rounded=0;whiteSpace=wrap;html=1;" vertex="1" parent="Fm_gpZ8SLg755O0Aljr6-1">
          <mxGeometry x="617.5" y="-175" width="39" height="30" as="geometry" />
        </mxCell>
        <mxCell id="Fm_gpZ8SLg755O0Aljr6-152" value="" style="rounded=0;whiteSpace=wrap;html=1;" vertex="1" parent="Fm_gpZ8SLg755O0Aljr6-1">
          <mxGeometry x="719.5" y="-180" width="120" height="40" as="geometry" />
        </mxCell>
        <mxCell id="Fm_gpZ8SLg755O0Aljr6-153" value="tag" style="rounded=0;whiteSpace=wrap;html=1;" vertex="1" parent="Fm_gpZ8SLg755O0Aljr6-1">
          <mxGeometry x="719.5" y="-175" width="39" height="30" as="geometry" />
        </mxCell>
        <mxCell id="Fm_gpZ8SLg755O0Aljr6-154" value="cache&lt;br&gt;Line" style="rounded=0;whiteSpace=wrap;html=1;" vertex="1" parent="Fm_gpZ8SLg755O0Aljr6-1">
          <mxGeometry x="758.5" y="-175" width="39" height="30" as="geometry" />
        </mxCell>
        <mxCell id="Fm_gpZ8SLg755O0Aljr6-155" value="" style="edgeStyle=orthogonalEdgeStyle;rounded=0;orthogonalLoop=1;jettySize=auto;html=1;strokeColor=#FFCE9F;strokeWidth=2;" edge="1" parent="Fm_gpZ8SLg755O0Aljr6-1" source="Fm_gpZ8SLg755O0Aljr6-156">
          <mxGeometry relative="1" as="geometry">
            <mxPoint x="919.5" y="-160" as="targetPoint" />
          </mxGeometry>
        </mxCell>
        <mxCell id="Fm_gpZ8SLg755O0Aljr6-156" value="flag" style="rounded=0;whiteSpace=wrap;html=1;" vertex="1" parent="Fm_gpZ8SLg755O0Aljr6-1">
          <mxGeometry x="797.5" y="-175" width="39" height="30" as="geometry" />
        </mxCell>
        <mxCell id="Fm_gpZ8SLg755O0Aljr6-160" value="" style="rounded=0;whiteSpace=wrap;html=1;" vertex="1" parent="Fm_gpZ8SLg755O0Aljr6-1">
          <mxGeometry x="918.5" y="-369.62" width="120" height="40" as="geometry" />
        </mxCell>
        <mxCell id="Fm_gpZ8SLg755O0Aljr6-161" value="tag" style="rounded=0;whiteSpace=wrap;html=1;" vertex="1" parent="Fm_gpZ8SLg755O0Aljr6-1">
          <mxGeometry x="918.5" y="-364.62" width="39" height="30" as="geometry" />
        </mxCell>
        <mxCell id="Fm_gpZ8SLg755O0Aljr6-162" value="cache&lt;br&gt;Line" style="rounded=0;whiteSpace=wrap;html=1;" vertex="1" parent="Fm_gpZ8SLg755O0Aljr6-1">
          <mxGeometry x="957.5" y="-364.62" width="39" height="30" as="geometry" />
        </mxCell>
        <mxCell id="Fm_gpZ8SLg755O0Aljr6-163" value="flag" style="rounded=0;whiteSpace=wrap;html=1;" vertex="1" parent="Fm_gpZ8SLg755O0Aljr6-1">
          <mxGeometry x="996.5" y="-364.62" width="39" height="30" as="geometry" />
        </mxCell>
        <mxCell id="Fm_gpZ8SLg755O0Aljr6-164" value="" style="rounded=0;whiteSpace=wrap;html=1;" vertex="1" parent="Fm_gpZ8SLg755O0Aljr6-1">
          <mxGeometry x="920" y="-270" width="120" height="40" as="geometry" />
        </mxCell>
        <mxCell id="Fm_gpZ8SLg755O0Aljr6-165" value="tag" style="rounded=0;whiteSpace=wrap;html=1;" vertex="1" parent="Fm_gpZ8SLg755O0Aljr6-1">
          <mxGeometry x="920" y="-265" width="39" height="30" as="geometry" />
        </mxCell>
        <mxCell id="Fm_gpZ8SLg755O0Aljr6-166" value="cache&lt;br&gt;Line" style="rounded=0;whiteSpace=wrap;html=1;fillColor=#fa6800;strokeColor=#C73500;fontColor=#000000;" vertex="1" parent="Fm_gpZ8SLg755O0Aljr6-1">
          <mxGeometry x="959" y="-265" width="39" height="30" as="geometry" />
        </mxCell>
        <mxCell id="Fm_gpZ8SLg755O0Aljr6-167" value="flag" style="rounded=0;whiteSpace=wrap;html=1;" vertex="1" parent="Fm_gpZ8SLg755O0Aljr6-1">
          <mxGeometry x="998" y="-265" width="39" height="30" as="geometry" />
        </mxCell>
        <mxCell id="Fm_gpZ8SLg755O0Aljr6-168" value="" style="rounded=0;whiteSpace=wrap;html=1;" vertex="1" parent="Fm_gpZ8SLg755O0Aljr6-1">
          <mxGeometry x="920" y="-180" width="120" height="40" as="geometry" />
        </mxCell>
        <mxCell id="Fm_gpZ8SLg755O0Aljr6-169" value="tag" style="rounded=0;whiteSpace=wrap;html=1;" vertex="1" parent="Fm_gpZ8SLg755O0Aljr6-1">
          <mxGeometry x="920" y="-175" width="39" height="30" as="geometry" />
        </mxCell>
        <mxCell id="Fm_gpZ8SLg755O0Aljr6-170" value="cache&lt;br&gt;Line" style="rounded=0;whiteSpace=wrap;html=1;" vertex="1" parent="Fm_gpZ8SLg755O0Aljr6-1">
          <mxGeometry x="959" y="-175" width="39" height="30" as="geometry" />
        </mxCell>
        <mxCell id="Fm_gpZ8SLg755O0Aljr6-171" value="flag" style="rounded=0;whiteSpace=wrap;html=1;" vertex="1" parent="Fm_gpZ8SLg755O0Aljr6-1">
          <mxGeometry x="998" y="-175" width="39" height="30" as="geometry" />
        </mxCell>
        <mxCell id="Fm_gpZ8SLg755O0Aljr6-172" value="cache&lt;br&gt;Line" style="rounded=0;whiteSpace=wrap;html=1;" vertex="1" parent="Fm_gpZ8SLg755O0Aljr6-1">
          <mxGeometry x="380" y="-364.23" width="39" height="30" as="geometry" />
        </mxCell>
        <mxCell id="Fm_gpZ8SLg755O0Aljr6-173" value="cache&lt;br&gt;Line" style="rounded=0;whiteSpace=wrap;html=1;" vertex="1" parent="Fm_gpZ8SLg755O0Aljr6-1">
          <mxGeometry x="380" y="-265" width="39" height="30" as="geometry" />
        </mxCell>
        <mxCell id="Fm_gpZ8SLg755O0Aljr6-174" value="cache&lt;br&gt;Line" style="rounded=0;whiteSpace=wrap;html=1;" vertex="1" parent="Fm_gpZ8SLg755O0Aljr6-1">
          <mxGeometry x="380" y="-175" width="39" height="30" as="geometry" />
        </mxCell>
        <mxCell id="Fm_gpZ8SLg755O0Aljr6-180" value="CPU-1" style="ellipse;whiteSpace=wrap;html=1;rounded=0;" vertex="1" parent="Fm_gpZ8SLg755O0Aljr6-1">
          <mxGeometry x="-220" y="-1020" width="120" height="80" as="geometry" />
        </mxCell>
        <mxCell id="Fm_gpZ8SLg755O0Aljr6-181" value="CPU-2" style="ellipse;whiteSpace=wrap;html=1;rounded=0;" vertex="1" parent="Fm_gpZ8SLg755O0Aljr6-1">
          <mxGeometry x="-220" y="-715" width="120" height="80" as="geometry" />
        </mxCell>
        <mxCell id="Fm_gpZ8SLg755O0Aljr6-182" value="&lt;a href=&quot;https://www.yuque.com/xiaochengxinyizhan/tpgw2r/yyma6m&quot;&gt;直接跳到JVM架构图，太大所以简单勾勒JVM&lt;/a&gt;" style="rounded=0;whiteSpace=wrap;html=1;" vertex="1" parent="Fm_gpZ8SLg755O0Aljr6-1">
          <mxGeometry x="-240" y="-500" width="330" height="315" as="geometry" />
        </mxCell>
        <mxCell id="Fm_gpZ8SLg755O0Aljr6-184" value="Java执行引擎- &amp;gt;（命令解析器）" style="rounded=1;whiteSpace=wrap;html=1;" vertex="1" parent="Fm_gpZ8SLg755O0Aljr6-1">
          <mxGeometry x="-230" y="-480" width="120" height="60" as="geometry" />
        </mxCell>
        <mxCell id="Fm_gpZ8SLg755O0Aljr6-185" value="JVM运行数据区和非堆空间" style="rounded=1;whiteSpace=wrap;html=1;" vertex="1" parent="Fm_gpZ8SLg755O0Aljr6-1">
          <mxGeometry x="-40" y="-480" width="120" height="60" as="geometry" />
        </mxCell>
        <mxCell id="Fm_gpZ8SLg755O0Aljr6-186" value="" style="endArrow=classic;html=1;strokeColor=#FFCE9F;strokeWidth=2;exitX=1;exitY=0.5;exitDx=0;exitDy=0;entryX=0.5;entryY=0;entryDx=0;entryDy=0;" edge="1" parent="Fm_gpZ8SLg755O0Aljr6-1" source="Fm_gpZ8SLg755O0Aljr6-184" target="Fm_gpZ8SLg755O0Aljr6-206">
          <mxGeometry width="50" height="50" relative="1" as="geometry">
            <mxPoint x="-90" y="-470" as="sourcePoint" />
            <mxPoint x="-40" y="-520" as="targetPoint" />
          </mxGeometry>
        </mxCell>
        <mxCell id="Fm_gpZ8SLg755O0Aljr6-187" value="" style="endArrow=classic;html=1;strokeColor=#FFCE9F;strokeWidth=2;exitX=0.425;exitY=0.988;exitDx=0;exitDy=0;exitPerimeter=0;" edge="1" parent="Fm_gpZ8SLg755O0Aljr6-1" source="Fm_gpZ8SLg755O0Aljr6-181">
          <mxGeometry width="50" height="50" relative="1" as="geometry">
            <mxPoint x="-260" y="-500" as="sourcePoint" />
            <mxPoint x="-170" y="-480" as="targetPoint" />
          </mxGeometry>
        </mxCell>
        <mxCell id="Fm_gpZ8SLg755O0Aljr6-189" value="" style="rounded=0;whiteSpace=wrap;html=1;" vertex="1" parent="Fm_gpZ8SLg755O0Aljr6-1">
          <mxGeometry x="173.5" y="-875" width="290" height="240" as="geometry" />
        </mxCell>
        <mxCell id="Fm_gpZ8SLg755O0Aljr6-190" value="" style="endArrow=classic;html=1;strokeColor=#FFCE9F;strokeWidth=2;exitX=0.5;exitY=0;exitDx=0;exitDy=0;" edge="1" parent="Fm_gpZ8SLg755O0Aljr6-1" source="Fm_gpZ8SLg755O0Aljr6-185">
          <mxGeometry width="50" height="50" relative="1" as="geometry">
            <mxPoint x="-70" y="-550" as="sourcePoint" />
            <mxPoint x="100" y="-745" as="targetPoint" />
            <Array as="points">
              <mxPoint x="20" y="-540" />
              <mxPoint x="20" y="-745" />
            </Array>
          </mxGeometry>
        </mxCell>
        <mxCell id="Fm_gpZ8SLg755O0Aljr6-191" value="加载数据到内存,通过内存地址编码解析成 &lt;font color=&quot;#ff0000&quot;&gt;&lt;b&gt;index_tag_offset&lt;/b&gt;&lt;/font&gt;" style="edgeLabel;html=1;align=center;verticalAlign=middle;resizable=0;points=[];" vertex="1" connectable="0" parent="Fm_gpZ8SLg755O0Aljr6-190">
          <mxGeometry x="-0.2245" y="-1" relative="1" as="geometry">
            <mxPoint as="offset" />
          </mxGeometry>
        </mxCell>
        <mxCell id="Fm_gpZ8SLg755O0Aljr6-194" value="index-查找bucket" style="rounded=0;whiteSpace=wrap;html=1;fillColor=#e1d5e7;strokeColor=#9673a6;" vertex="1" parent="Fm_gpZ8SLg755O0Aljr6-1">
          <mxGeometry x="137.5" y="-500" width="130" height="30" as="geometry" />
        </mxCell>
        <mxCell id="Fm_gpZ8SLg755O0Aljr6-195" value="tag-查找tag" style="rounded=0;whiteSpace=wrap;html=1;fillColor=#e1d5e7;strokeColor=#9673a6;" vertex="1" parent="Fm_gpZ8SLg755O0Aljr6-1">
          <mxGeometry x="333.5" y="-500" width="130" height="30" as="geometry" />
        </mxCell>
        <mxCell id="Fm_gpZ8SLg755O0Aljr6-196" value="offset-查找缓存行" style="rounded=0;whiteSpace=wrap;html=1;fillColor=#e1d5e7;strokeColor=#9673a6;" vertex="1" parent="Fm_gpZ8SLg755O0Aljr6-1">
          <mxGeometry x="533" y="-500" width="130" height="30" as="geometry" />
        </mxCell>
        <mxCell id="Fm_gpZ8SLg755O0Aljr6-197" value="" style="endArrow=classic;html=1;strokeColor=#FF0000;strokeWidth=1;exitX=1;exitY=0.5;exitDx=0;exitDy=0;entryX=0;entryY=0.5;entryDx=0;entryDy=0;" edge="1" parent="Fm_gpZ8SLg755O0Aljr6-1" source="Fm_gpZ8SLg755O0Aljr6-194" target="Fm_gpZ8SLg755O0Aljr6-195">
          <mxGeometry width="50" height="50" relative="1" as="geometry">
            <mxPoint x="310" y="-500" as="sourcePoint" />
            <mxPoint x="360" y="-550" as="targetPoint" />
          </mxGeometry>
        </mxCell>
        <mxCell id="Fm_gpZ8SLg755O0Aljr6-198" value="" style="endArrow=classic;html=1;strokeColor=#FF0000;strokeWidth=1;exitX=1;exitY=0.5;exitDx=0;exitDy=0;entryX=0;entryY=0.5;entryDx=0;entryDy=0;" edge="1" parent="Fm_gpZ8SLg755O0Aljr6-1" source="Fm_gpZ8SLg755O0Aljr6-195" target="Fm_gpZ8SLg755O0Aljr6-196">
          <mxGeometry width="50" height="50" relative="1" as="geometry">
            <mxPoint x="460" y="-490" as="sourcePoint" />
            <mxPoint x="510" y="-540" as="targetPoint" />
          </mxGeometry>
        </mxCell>
        <mxCell id="Fm_gpZ8SLg755O0Aljr6-199" value="flag利用MESI缓存一致性协议来保证读写原子性" style="rounded=0;whiteSpace=wrap;html=1;fillColor=#f8cecc;strokeColor=#b85450;" vertex="1" parent="Fm_gpZ8SLg755O0Aljr6-1">
          <mxGeometry x="713" y="-500" width="267" height="30" as="geometry" />
        </mxCell>
        <mxCell id="Fm_gpZ8SLg755O0Aljr6-200" value="" style="endArrow=classic;html=1;strokeColor=#FF0000;strokeWidth=1;exitX=1;exitY=0.5;exitDx=0;exitDy=0;entryX=0;entryY=0.5;entryDx=0;entryDy=0;" edge="1" parent="Fm_gpZ8SLg755O0Aljr6-1" source="Fm_gpZ8SLg755O0Aljr6-196" target="Fm_gpZ8SLg755O0Aljr6-199">
          <mxGeometry width="50" height="50" relative="1" as="geometry">
            <mxPoint x="670" y="-500" as="sourcePoint" />
            <mxPoint x="720" y="-550" as="targetPoint" />
          </mxGeometry>
        </mxCell>
        <mxCell id="Fm_gpZ8SLg755O0Aljr6-202" value="L2" style="rounded=0;whiteSpace=wrap;html=1;" vertex="1" parent="Fm_gpZ8SLg755O0Aljr6-1">
          <mxGeometry x="223" y="-760" width="190" height="60" as="geometry" />
        </mxCell>
        <mxCell id="Fm_gpZ8SLg755O0Aljr6-203" value="L1" style="rounded=0;whiteSpace=wrap;html=1;" vertex="1" parent="Fm_gpZ8SLg755O0Aljr6-1">
          <mxGeometry x="263" y="-820" width="100" height="60" as="geometry" />
        </mxCell>
        <mxCell id="Fm_gpZ8SLg755O0Aljr6-205" value="CPU-2高速缓存器" style="text;html=1;strokeColor=none;fillColor=none;align=center;verticalAlign=middle;whiteSpace=wrap;rounded=0;" vertex="1" parent="Fm_gpZ8SLg755O0Aljr6-1">
          <mxGeometry x="253" y="-870" width="116.5" height="20" as="geometry" />
        </mxCell>
        <mxCell id="Fm_gpZ8SLg755O0Aljr6-206" value="L0(PC寄存器记录指令)" style="rounded=1;whiteSpace=wrap;html=1;" vertex="1" parent="Fm_gpZ8SLg755O0Aljr6-1">
          <mxGeometry x="-120" y="-410" width="100" height="50" as="geometry" />
        </mxCell>
        <mxCell id="Fm_gpZ8SLg755O0Aljr6-207" value="" style="endArrow=classic;html=1;strokeWidth=1;exitX=0.5;exitY=0;exitDx=0;exitDy=0;entryX=0;entryY=0.5;entryDx=0;entryDy=0;strokeColor=#FFB570;" edge="1" parent="Fm_gpZ8SLg755O0Aljr6-1" source="Fm_gpZ8SLg755O0Aljr6-206" target="Fm_gpZ8SLg755O0Aljr6-185">
          <mxGeometry width="50" height="50" relative="1" as="geometry">
            <mxPoint x="-90" y="-410" as="sourcePoint" />
            <mxPoint x="-40" y="-460" as="targetPoint" />
          </mxGeometry>
        </mxCell>
        <mxCell id="Fm_gpZ8SLg755O0Aljr6-208" value="" style="rounded=0;whiteSpace=wrap;html=1;" vertex="1" parent="Fm_gpZ8SLg755O0Aljr6-1">
          <mxGeometry x="635" y="-880" width="390" height="240" as="geometry" />
        </mxCell>
        <mxCell id="Fm_gpZ8SLg755O0Aljr6-209" value="L2" style="rounded=0;whiteSpace=wrap;html=1;" vertex="1" parent="Fm_gpZ8SLg755O0Aljr6-1">
          <mxGeometry x="735" y="-760" width="190" height="60" as="geometry" />
        </mxCell>
        <mxCell id="Fm_gpZ8SLg755O0Aljr6-210" value="L1" style="rounded=0;whiteSpace=wrap;html=1;" vertex="1" parent="Fm_gpZ8SLg755O0Aljr6-1">
          <mxGeometry x="775" y="-820" width="100" height="60" as="geometry" />
        </mxCell>
        <mxCell id="Fm_gpZ8SLg755O0Aljr6-212" value="CPU-1高速缓存器" style="text;html=1;strokeColor=none;fillColor=none;align=center;verticalAlign=middle;whiteSpace=wrap;rounded=0;" vertex="1" parent="Fm_gpZ8SLg755O0Aljr6-1">
          <mxGeometry x="772" y="-860" width="103" height="20" as="geometry" />
        </mxCell>
        <mxCell id="Fm_gpZ8SLg755O0Aljr6-215" value="线程分配的工作内存" style="text;html=1;strokeColor=none;fillColor=none;align=center;verticalAlign=middle;whiteSpace=wrap;rounded=0;" vertex="1" parent="Fm_gpZ8SLg755O0Aljr6-1">
          <mxGeometry x="281" y="-620" width="129" height="20" as="geometry" />
        </mxCell>
        <mxCell id="Fm_gpZ8SLg755O0Aljr6-216" value="给线程分配的工作内存" style="text;html=1;strokeColor=none;fillColor=none;align=center;verticalAlign=middle;whiteSpace=wrap;rounded=0;" vertex="1" parent="Fm_gpZ8SLg755O0Aljr6-1">
          <mxGeometry x="801" y="-620" width="129" height="20" as="geometry" />
        </mxCell>
        <mxCell id="Fm_gpZ8SLg755O0Aljr6-217" value="" style="endArrow=classic;html=1;strokeColor=#FFB570;strokeWidth=1;exitX=0.5;exitY=1;exitDx=0;exitDy=0;" edge="1" parent="Fm_gpZ8SLg755O0Aljr6-1" source="Fm_gpZ8SLg755O0Aljr6-213">
          <mxGeometry width="50" height="50" relative="1" as="geometry">
            <mxPoint x="280" y="-584" as="sourcePoint" />
            <mxPoint x="328" y="-510" as="targetPoint" />
            <Array as="points">
              <mxPoint x="328" y="-560" />
            </Array>
          </mxGeometry>
        </mxCell>
        <mxCell id="Fm_gpZ8SLg755O0Aljr6-218" value="0）lock指令-将flag=E独占锁状态" style="edgeLabel;html=1;align=center;verticalAlign=middle;resizable=0;points=[];fontStyle=1" vertex="1" connectable="0" parent="Fm_gpZ8SLg755O0Aljr6-217">
          <mxGeometry x="-0.1429" y="1" relative="1" as="geometry">
            <mxPoint as="offset" />
          </mxGeometry>
        </mxCell>
        <mxCell id="Fm_gpZ8SLg755O0Aljr6-219" value="" style="endArrow=classic;html=1;strokeColor=#FFB570;strokeWidth=1;exitX=0.03;exitY=-0.001;exitDx=0;exitDy=0;exitPerimeter=0;" edge="1" parent="Fm_gpZ8SLg755O0Aljr6-1" source="Fm_gpZ8SLg755O0Aljr6-76">
          <mxGeometry width="50" height="50" relative="1" as="geometry">
            <mxPoint x="450" y="-520" as="sourcePoint" />
            <mxPoint x="131" y="-582" as="targetPoint" />
          </mxGeometry>
        </mxCell>
        <mxCell id="Fm_gpZ8SLg755O0Aljr6-220" value="&lt;b&gt;1）read(数据主内存-&amp;gt;工作内存)&lt;/b&gt;" style="edgeLabel;html=1;align=center;verticalAlign=middle;resizable=0;points=[];" vertex="1" connectable="0" parent="Fm_gpZ8SLg755O0Aljr6-219">
          <mxGeometry x="0.1528" y="1" relative="1" as="geometry">
            <mxPoint as="offset" />
          </mxGeometry>
        </mxCell>
        <mxCell id="Fm_gpZ8SLg755O0Aljr6-222" value="" style="endArrow=classic;html=1;strokeColor=#FFB570;strokeWidth=1;entryX=0.75;entryY=0;entryDx=0;entryDy=0;exitX=0.004;exitY=0.07;exitDx=0;exitDy=0;exitPerimeter=0;" edge="1" parent="Fm_gpZ8SLg755O0Aljr6-1" source="Fm_gpZ8SLg755O0Aljr6-213" target="Fm_gpZ8SLg755O0Aljr6-184">
          <mxGeometry width="50" height="50" relative="1" as="geometry">
            <mxPoint x="-120" y="-510" as="sourcePoint" />
            <mxPoint x="-70" y="-560" as="targetPoint" />
            <Array as="points">
              <mxPoint x="-70" y="-900" />
              <mxPoint x="-70" y="-550" />
              <mxPoint x="-140" y="-550" />
            </Array>
          </mxGeometry>
        </mxCell>
        <mxCell id="Fm_gpZ8SLg755O0Aljr6-223" value="&lt;span style=&quot;font-size: 12px ; background-color: rgb(248 , 249 , 250)&quot;&gt;&lt;b&gt;3）use使用工作内存变量给执行引擎&lt;/b&gt;&lt;/span&gt;" style="edgeLabel;html=1;align=center;verticalAlign=middle;resizable=0;points=[];" vertex="1" connectable="0" parent="Fm_gpZ8SLg755O0Aljr6-222">
          <mxGeometry x="-0.3097" y="-2" relative="1" as="geometry">
            <mxPoint as="offset" />
          </mxGeometry>
        </mxCell>
        <mxCell id="Fm_gpZ8SLg755O0Aljr6-224" value="&lt;b&gt;2)load（主内存数据-&amp;gt;工作内存拷贝副本）&lt;/b&gt;" style="text;html=1;strokeColor=none;fillColor=none;align=center;verticalAlign=middle;whiteSpace=wrap;rounded=0;" vertex="1" parent="Fm_gpZ8SLg755O0Aljr6-1">
          <mxGeometry x="110" y="-830" width="40" height="150" as="geometry" />
        </mxCell>
        <mxCell id="Fm_gpZ8SLg755O0Aljr6-225" value="&lt;b&gt;4）assign把执行引擎的变量赋值到工作内存变量&lt;/b&gt;" style="text;html=1;strokeColor=none;fillColor=none;align=center;verticalAlign=middle;whiteSpace=wrap;rounded=0;" vertex="1" parent="Fm_gpZ8SLg755O0Aljr6-1">
          <mxGeometry x="-170" y="-850" width="220" height="150" as="geometry" />
        </mxCell>
        <mxCell id="Fm_gpZ8SLg755O0Aljr6-226" value="&lt;b&gt;5）Store存储工作内存变量到主内存&lt;/b&gt;" style="text;html=1;strokeColor=none;fillColor=none;align=center;verticalAlign=middle;whiteSpace=wrap;rounded=0;" vertex="1" parent="Fm_gpZ8SLg755O0Aljr6-1">
          <mxGeometry x="500" y="-869" width="39.5" height="230" as="geometry" />
        </mxCell>
        <mxCell id="Fm_gpZ8SLg755O0Aljr6-227" value="" style="endArrow=classic;html=1;strokeColor=#FFB570;strokeWidth=1;exitX=0.858;exitY=1.007;exitDx=0;exitDy=0;exitPerimeter=0;entryX=0.413;entryY=-0.001;entryDx=0;entryDy=0;entryPerimeter=0;" edge="1" parent="Fm_gpZ8SLg755O0Aljr6-1" source="Fm_gpZ8SLg755O0Aljr6-213" target="Fm_gpZ8SLg755O0Aljr6-76">
          <mxGeometry width="50" height="50" relative="1" as="geometry">
            <mxPoint x="460" y="-580" as="sourcePoint" />
            <mxPoint x="490" y="-510" as="targetPoint" />
          </mxGeometry>
        </mxCell>
        <mxCell id="Fm_gpZ8SLg755O0Aljr6-228" value="&lt;b&gt;6）write工作内存写入主内存&lt;/b&gt;" style="edgeLabel;html=1;align=center;verticalAlign=middle;resizable=0;points=[];" vertex="1" connectable="0" parent="Fm_gpZ8SLg755O0Aljr6-227">
          <mxGeometry x="-0.1261" y="-2" relative="1" as="geometry">
            <mxPoint as="offset" />
          </mxGeometry>
        </mxCell>
        <mxCell id="Fm_gpZ8SLg755O0Aljr6-229" value="&lt;b&gt;7)unlock将flag=M修改完毕&lt;/b&gt;" style="endArrow=classic;html=1;strokeColor=#FFB570;strokeWidth=1;" edge="1" parent="Fm_gpZ8SLg755O0Aljr6-1">
          <mxGeometry width="50" height="50" relative="1" as="geometry">
            <mxPoint x="560" y="-580" as="sourcePoint" />
            <mxPoint x="740" y="-513" as="targetPoint" />
          </mxGeometry>
        </mxCell>
        <mxCell id="Fm_gpZ8SLg755O0Aljr6-231" value="总线(前端总线、内存总线)" style="rounded=0;whiteSpace=wrap;html=1;dashed=1;fillColor=#a20025;strokeColor=#6F0000;fontColor=#ffffff;" vertex="1" parent="Fm_gpZ8SLg755O0Aljr6-1">
          <mxGeometry x="356" y="-1060" width="445" height="70" as="geometry" />
        </mxCell>
        <mxCell id="Fm_gpZ8SLg755O0Aljr6-232" value="" style="shape=image;verticalLabelPosition=bottom;labelBackgroundColor=#ffffff;verticalAlign=top;aspect=fixed;imageAspect=0;image=data:image/png,iVBORw0KGgoAAAANSUhEUgAAARgAAAEmCAYAAAC5/o9RAAAgAElEQVR4Ae2dDXbjSK6su9Y1t/c0vZ3ba3mzkTtr6XonzPqKQQhIJiXKpmTkORz8BZBJZDJMye6aP3726A50B7oDT+rAH0+q22W7A92B7sDPJpg+BN2B7sDTOtAE87TWduHuQHegCabPQHegO/C0DjTBPK21Xbg70B1ogukz0B3oDjytA29FMP/973/TRlX+FNzO7kB34LQOvBXB/Pvf//6pK46///7757/+9a/oLm1hM1L6z3/+c6hOOUEHugPfpANvRzAigThEMLpmh8jljz/++JnViiSWEdrsPI3rDrx7B5pgih0WcUAwIhzeaORzUhERuV2Ua3d34Ft24BDB8JNdD9XojUAPoTC6eDDVXeXgdxk/vsj2uNdgDTz8vmtOCu6PbzCqf5QUsvnki2v3eVvvDnz3DtxFMBBA1TzFwTg5QDBVnvwiFn/4le8P8QzBMI+TlOuq5+sarYeYasYRiSvG2+4OfPcO3EUwPMDZT3UIAIw/yPiqppOb1SUnYrCdQDSPD9nuqwgGUqRWXLvXlC78aK0R33Z34Lt14C6C0UOltww9YHHIr0sYPajxIZWvGpCFk0HEgskebOZVjnDMrXqOrwiGubg/bOr5uliHY1yHrNzXenfgu3WgftqTTvBQ6QHUFQlkL64HdEQwmlIkIUyF8zniEp1gnAzcrxzePOTPRkYwwjle9X2OWKcJJnak7e/YgbsJRs0SCcSHTg+WRkZAEAwEghRp+CA3i88SDOtQXek+BzGtPSOJimDk16WhtXlNX3/r3YHuwNKBhwgGwqCZeuh4YCEJfwgjnrxKQib+MOPjQfdcEYb8kpCI4q67LWyMKU4NavtcWkuMg2vZHegObDvwEMHwsIs49NDp4WNgP0IwquVzuO0PPXNCMNiSwkF6+OM68SOVo1oaykWXnd0XeS27A92BbQdWRtj6U4uH3R9u3hb0JrD3IB59g9Ei4pzR9oVqfl+bYtkbSubzOhCM1hvJSbnxXj239e5Ad2DtwMMEw090/xij8vhFCIw9glHcSUp5epj9jeMIwWQEofwZgtGc2VogMMVGdeK66UHL7sB36sDDBKNm6WGKD9uIYPTw+uW5enCrmOaaJRjhIAjpujTki28lHwH7H8V9TQppTdQAKpz8WT3lK9ajO/CdO/BWT4DIQ8QmIogEwQOfEcXoAECUFYb40bpVvfZ3B96pA29FMBW53LthIg3egu6t0Xndge/cgbcimO+8kX3v3YErdqAJ5oq70mvqDrxJB5pg3mQj+za6A1fsQBPMFXel19QdeJMONMG8yUb2bXQHrtiBJpgr7kqvqTvwJh1ognmTjezb6A5csQNNML92RX+cN/pjOeJn/W0Mf6B3xUPRa+oOnNWByxMMf46vB7sa/JVu9if7VU70QyCS6CIBRvxPDGTHvxYGOyObYGa61JhX70D91F7kzkQaEIg/8CwPMhDmmQSj+j5/Eww70LI7UHfgZQgGoom3ogedh/0sgolzyNYblBNMhjni6zeYI91q7Kt24GUIhjcVSR98bxLfYHiAFdeluA/qEQdPffnlizj55csIj1qScT7qg8H2NbXeHXi3DrwMwajxemj1tsLwh9wJhocXsiDXH3o96P7Gw4NPjmzVYUTb5xYm1uPNSjFIinrYyunRHXjnDpx2wnmo9dBUlz/Qs031B5k5yBVh8NA6wfjDDZaHWjLWEcbjsnUP1M7s0bq8nnTHytbI1vAr1KI78DYdOI1gntWR+HDy4McH1AnGdV+XciEYYXycQTAZsWoO3YO/eckX1+9rab078C4deDmC0YMqcpDUg8twUrnCGwzrkowkKV8TjHeo9XftwMsRDG8avI2wMU4wPLzCMiAlbOU7QfH2QY5s1WFEO5JGrPcPifbxi3p+DwZrtTvwdh14OYLRDkSywOeEIR3SkIwfUfwhVxz7XoLRGn7P9+PHzz9+/Nj8JgnSA8N8b3ei+oa6A9aByxOMrfVlVL29+BvMyyy8F9odOLkDTTAnN1TlIJgmmSc0t0u+VAeaYJ6wXU0wT2hql3zJDjTBPGHbMoJxX9SfsIQu2R24RAeaYJ60DZCIyqOP5JOW0WW7A1/agSaYyfbrtz9HRkUmXiNiPIbOb51mJDnPkns92IuzroiLNjhJxWYvz5vRR/PO5L865jPu/9hT8+odfWD9Rzdjhjy0HMdly2NeZIaRby9e5ZGr/OzyvDhHhs98XoP5ZnyOjXOP8rM14PO8vZqOvZrO/czI0dqf3YMmmKT7M5sGJkn/cDlxSB8Nx1a4Zx6Eqjb+KB9do9eTnl1xDnKif2RXOfiRoxpHY8+oeWQNe/MrPnMdmXOEbYIZdcdibJyTQSQO/TEfm6c/BgSrP7rDL8kf8+mPAZUDTlJ/kKfcODw/0yP+iK16jEzHhwQrKd/oGmHJjxi30UdzVOsiV9Ix6EjF+cNH+XTxV9deY0b3mjP4szFfPX+8n/VkxUjbvzvAoRNROBm4Hv/7Jx3Q//377w+88hj+nxhAMIpRa0Qw1Dhb+qHMdHxInz/zEa9i0Y+NJN/lKOY46cJWF3GXkAvEr1hG8vLvjSPr3Kt1NH5k7gyb+Y6uIeLfjmA4LGqWH5h447M2TYdckBCC5P/9+gfDY00wTjCsT1gIBpxkRjCsIdY/y/b6mY4P6fPKN7oci06d2Tzw5B+RnosepX44aC+yIaIRnssxHlMNDeFUC7y/CQmDH7zXe0T/8eOPn7pYw0wtrYXhOr4z5DrDGdUuUOPsTVTj9eBDLHEjIIX/+fPP9O49VwAdPn46HiEYzTu6ssnBZzH3+T1lOj5klet+6Rkef4xF22sptnc53vWsLj6k9sOJwPNd137p0mDvPC5dNR3je41fOJ3TOKdyWVOsO7KXnH9+EwzryHKYY09muff43o5geENQAx99g1k2bvn44m8h+NXwWYJR/sdlPzU+Dulff/3+eKR62RvM3sb6ehwrfxWLOGzHo0cJVlKx0VVh93I9b09nfeD21gMeOSIY7YfX480jIwjuiXXo/EEw/oOPek445LImauzJFb8lGOrF/BUfI8+x345gzmoTGyEC4S3EaxOX7+Mjkn3P4jjpvP1QC6nD++9fBEPOh8/+WVD8I+lribhRDKxjMh0fkjzJzEe8ikW/265TZ0+OcrIYPqQe/viwM6cw/KD6+IHwa28qUqKm8iPBaG/3huePsMJtsRCMTtc6tpjxfq1Z52lNMEkv2ZSPTeTNI/wmSGmKQxb6iARZyKfDxKF1HHhJiIkDrJo6uOQxx8c6ijcFMJJxKO/IAI+MuZlfvtEVa8j2OuSC8xhYMJkEQ36UsZ7HiWmvpMd9iLW1N7zBONlkNeVzghGetxnHu8563Dev5wSz/vpgOXl8TzNf9zHksRP42Fwvm62t8Y9IfiNOGCIZPgpJV0zDD47jFeNwC6PLyWXJ3v9fr7+PzhGxRrSVNetjhgw/qlPhqVfJUZ5ifnkNz4v7IFtD+0G+yAWCUUyE4TH5vKYTjGLKBS/JHIqdMRby4NT5SVv1FQPujJnrGk0wdW9+R7QV/jFHgXXLVp2EGMN/pvSD+mhdfyi8lvuZL8bxj2SWI5/ngMGHXUlwknGMYmDBYL+D3JKHn8Ll7vL4c+/8dneeO9/LVneC8a1D58b8wBOTdD9YZBbDhwSbyRmM8mZx2RyzvmqOyu91ZzCOP1PX3LPXmfNmte7vg5846bdjqe24W8yZniaYX930lqP7RkvHH2XcEPLAVR+vyAOPLem+qMueuWK9Ksdxj+q+Vq9V+R0jfRYX8x61mRdZ1duLV3nyK7e6PM/nqPCZf32X5vuYpWpWb/s247OfqzfBFB93RA5ODL5J2gLIQ5Jxs+nJF8RgkbGu+70efqTnVXrEOk6xaIO/R6rW7EX9WfyZ62TuSj5zrqo2/ii3a9yeOLA15p/f++vYVd/W29Y5z/r2BJO1GZ8I5uPKHh77zwbYjnXzFg91JDVi3G10Sa5faakAk8k04ZfT8SOcYmD3cB5XTjYyf+abyc2+XNUXqqwXSS19uRq/PJftX9iCJbeS4O6RqsnIdHzIBeunaNW3GKpKrhi8jl31Wxz4M+V6x2dWfZFaoxaLWIjrdtaNWW6OmCRjDxPjsrmogYxY/JmcwWbzZD6vvxd3LDo5mQSDFEYDiT9Kj4tcnCyk67cx2W9sIJCjBBPnP8v2+8h0fMgtWawnbv14k62Mj0fLyVSt7FKNcZ2s9nFfE0zSMzaYLRUEn8OJL1u5xcRYVaPyx0Ph88ZYZoMn5jY6MmLw3yNVKxuVX9gslq1JRFL9LUkkGMfOEky2juxe7vV5/UzHt8jsBC29ghgWGVez5IGJ0dXO66/xc7T8NJxT+/JVaHG1UI/79zHgiSN/f6Tio1X44zwOEPmS0Seby3EjPatR4SO2wsl/dB2eQ67Lai5fE/gMW32sETYSjEjl6BsMc49kXBfY6M9sYRmZjm+RnCoy1rOyksf6PcuKkkYuco1uayv+3LHe8XPnuWT12/Zvl5kSxi/yAEmNTIKppDbbL8ctB2E9VMQcv6fP5oCLkvrRP7JZd8RUfuGYZ4QRbo9gvI6/6cy+wcQ1RztbH3NGbGZ7fqbjcwKhDjHZi86JwwaJJO4fmba61yTrbNkE84vvY2PX7Vl+Hvh3MsQ8B58kI25gtMFlUthZfMRFm/qZP/OBl9yLgxVu9iIHOTuHf+whFxnfYPBLiph0+ch8Hs/0ap2VP9ZwXKbjc4KRDz/1PM7byuoD9fP3dyxrbCWYWHPNOlf71gSjVjoxVLpwbEjE+HaAQXoeOI+5L/rddp2a8o0uaruMdajlGNczvMfP0kfzxJhsJwvp2Ze8vjbFszryMxQfXcLFGpWPmpWkDjLiFj8nLUZX4qhP77rWbS3VXGO3lc/3fHuCUUvZykzScj8MjiMuCQa5FxNuBpthstrui3pVo/LH/Fm7qlf5VfdoTHguvmcZvcFoDhEROZJOLo/e22x+dq9aSxyLz0+ZdI3F528kvwK/Y8Is8TWCxv1jf4a8vbvPmPUT54jbxFZlSwD7+7sXO8hszm8ZvotZDsVa9TfOaqzRXCPHo5nvSFzYuDZ8md9rH9X36o3iilXX0XWcifc1PVq3un/3M98yFydyK1eCyVbk2GXvtzWznOf53pZgvM2VnrXVsVkcHzjsTPrByeLP9mXzZ75nr+OZ9av7qfy+lhmM48/S13k5RYvM3zy2GN5i6rU4vkZ5ZF2Pe8/RvwXBeKu8/dLjIP7xFlP9VP319pLle71nbpzPk+nV3JU/q/EKvup+Kn+8p1lczHvUXt9Clo80srm0pnxdnM7RyVsx1Mmkrz+fyxH3629PMFlr1i1Yfh5EDHH5s+Yrzm+VyM02sfKR8yyZzctcMYb/DLn3PcgZc1Aj3sfIfiSH3HMlJwyp6nx34r44KzHJaqwY9SQb+KPMsI/68hU8WvWL89cWjxdS4dwvImHgj+RCPEo2MPrdfsZ/VxPnxUYyv9v8pkU+XSKLo+MzCYa1+T3gk8z8mc9z0B2ne5LNxZfD8Utjvmxm7tg/7fOSyymS3H5HwhuMJPOxpkVuc7cxrBXj95Hp+JBUOFN+a4JRI9ft2LYVP2QS7S361tKmcd1GF48O3cyvXHV4OcCSnqNKsonLjgemWgc4yMXX6X+o5v6R/lUEw/1FGdfK/SJjHJs45OJkQV/Uc98H5UA+0j1HdZ1gIBDm20pO2u0+LjjiknFsY9yHUJmODxmrnWG/JcGoMbR6pklg45bJFsE4yXzYO+TBhkXpa9Fh5LC6X3p8UB17L8EwB2uSjb4eflCrFIYrrhe/pB421q01EvMHTfn4/eFcZzuuqV42Kr+wWYx1ea2s18QjwThWtfy+lbP2eDltcQ3YIp/8gzsz+2mt9AVLTVmZjg/JDGfKfHfOnOGLannrZ5aQ4Wk8BBPrEK/8xJGO0wHVocwGDyox4cD6QSYea2m+eIGVZD0u4wPheHTNzU/pbB2qoZqO8XXjVz09cHFO1sx8M5KcTFb5wjLIw3a5koJ7Fz0SjOpwf9Ljva21lpPGGpCqKn0lGD+R6HMYVhtrRz9xJPEz5drpM6teoBZbIjkzMrw33nXVizZzuL/ShY2kQL4kD6rydelwMrIHO9byeZVX2fgl4wPBfKqtOJdsjYwgVMPXqgcOgpGfGkgeSObCjz0jlZONyi8s84wwwmnNcY3MVfWF+rGfa63lpC1EslRb1xG/6PVTueisfX1Hdwyri3W3Z4D5otxmn2Plu3NO7S+vUrc+X1rEswGgsZH4kdE/snVw/WGkhmR8UD2mg81Djj/6RvOSIwluPfweXYkOr5ObcuNDFNcdCSbiqeuSNbkv04WbvWL+7Bx+v7FG7LnH1c94r6tvOWW8qUhmF/e21N2ezNn1Oy7T8SH9Hs7SX5Zg1PKZsd2acYZjq6bv+RWvLs3u+dKdLKTroYwPqq9aca9BTfkZWZyYS3CaF504D4QkQxjWmz18cd1OMMLrGo24hhH2kdhoHo/RaycL+qE+0Iu4lniv1Flx69+++JsIpONr8BxhF8zqndGoh4w5lT/i7rFfkmCcCPZu2rHS9wb42HTZ+JB7tWZw1JXkAYwPapwHQiDXyUVY/C5jDXD4Y00eKq2JOtL9ocIvKX9ctxOM5tHD6TnMwRrukaqXjcov7JEY5MC66bXu13uxXcM/P//881+bN5NtnDVw2iCO9YTernHFxlojO9aJtnIz36jmkVi+O0cqfBH2SLsdu27h7cLB6UtdhpqfbUDlJ08yy/P4s/Q4b2ZH37PW8sy6e/cwiitWXY+tmVNUyW11rYE3l/jbo9v1U3Nbo7Ju8xek+6W7XdW61/+SBEObXe41wLHoMQe/ZI/uwPEO+AniFEUffq/uGPe7PoNx/DX0tyGYbNuyFvs2VXqW90yWz+ZzHz9lRtLx9+hfeX/3rPczc2Z7s76JrKtbc+NpWzBLfI2t+LXGoi2YR76DUR3Vj1ec6Uz7rQhGWzAz1u30r9jiC+q2Ur3xW9xnWHtriQdoZLNerzmDJ+87SO9Ndb8ruWxP4W3uliiIk58TyHpiwWsd0rMrrjHmeNxj7j9Lf3mCUSPW9o9JImva9jgsiGzTKl9W80xfNW/mr+YVVgOZ4Tw2o2c17vHFL4KP1ng0f2Y+70eGV1zEwOV46X4t+euJdaxOL0Rze6qXk+p411nXnk/xeJH7DPnSBOMNWbfsOMl4nUrPNi5i/Tcu/DpTmLih/PZEv4XgN0fU0gMTc70GOpJ1IakT58zsDEtdj2W6fFq/1wV3RD5KEJ6v9XjvjqzDsX5PlR7xi72cQuVoIMFiS0JGkrKJud/JBgyS+tgufT73oxOnhttn6y9JMGrCwufbdjyLZNgYyWqIKJwsdPD5Nabn+UMg3XNUOxJMNp/Xy+LyOQYdGePRrnDu9/tQvkgz3ov8e8MJYg+bxR/Nz2r6fSo+by8nENKItWMdyITTvMb9TWZbZcVs1+X+bcYtTli/Iv5Mu35izpzlYK1HiOKR3GyZbFyUjtXDRdz96B5z7CzBKJ9LNamHD5v5wHg80yMe2+uNdN7EyJPk/pjPSSfGRA4QhP+NjNejjqSwcZAvf6bfU9fvWXXn7ZVgWKfn3uoLkSxvKksGGCR1kO6Xnl1gkZ6D77PkpQgmkkO0Z5tyb15Wn82J0rE62KNXc3KV4z/5ZwnG57pH9/mrfGHAoWdS+RBFVcv96gtEJD2ShGzN4xj1RcNzZbM+r5+RiuKP1I3zzNjC6IpvJb5u6iAVW8iFN5b1Hh3j9ys/MaTP4Vj0mIPtEuzZ8qUIRsQxO84gmWoD3a/16DDvEUy2mTME43l7Or3Zw3lcOdiej57JPYLRWws1JdUfDelxOEEopp5AMF4DHSKijudX+tG6zDWSzC8pnA9II370ibjF9pO61sqw8rkfO0rW4n58SK+D7xly25lnzDBZc9vmbZLHpM+Oe/NUP27AyN574GIu6/cHYuQjhqzqEXeZYfd8WdxrShcmPuzy656cbHlrqXoUexAJJs4bbc+vdOUcqRvvf7HX05TH15VtCWY9seRJ+rXi13MHdq26aO6nhmM8jt996ORigz1bvgTBcNPrFuPZl56zbvU4j6b7JkRdFcBJ14Pk3zfosPtP4mxGHjp/UFWHPHLi3JkN1iW46HMb3e/FdeKS7te9OpHoHuTzh5z7k08DsvGajpffiSDrhedK9/xKv6euz7Pcd32SvC/Kq/COW3U+Hq2nc435KhadWJQg8WNLug8d6bhn6C9FMGqAb/NsQ8iZxWe4mQ3RAyGcLn/4Rrl6KMiRjOSitXg+OjLGq7UL7zkR5zHXHRf98aMQWO8DpKMYhKM6unTvTgrCOMHIBotkDqTnV/o9dakvqbm3J297olibyyUf3CKXN5W1svDr24swzLXKFb1oy1rWuM+JXuXM1I+5j9ovRzC6Yd+2Rxswm8/GzuLPxPnc6C7RmVO2X/glMz++Ckdc8juO5b791Lm+Puz0JvZJJOJEktnKjXmZLZ/7Xa9qgHEp3S/Wfra8zInZbtn+bR7F71e8RfiGeBS/+9CzWOYD73IW5zlX03UP1ZWttbrnyh9rzOKO5OU1/aOMnz7p+djWiTluL/lbfF7z1byXIRg17rbl43YexY+r3UbZcCSIaOOXzGKZz3NcP4L1vEpXvdmLGrP4bK2ZT3UrfxUb4Vkn8gh2NsdrSuetQzr23on1Gsy7SE7u1lvjt7hXsppgit3yzXZd8GhTIvPjQ4Kljvwzl+c9qmdrmak5kze6l5k5wFRzjerHGLUyWdXPsIuPNxhHQBSLjPNntmdn8crnea+kX4pg1DjfsplGgp/BHsFoozWqDSdOTbfRkRmG2sRGMtYZYfdij9Saya0wlb9ab4Wv/LFOxMneu2IN2Z6jtxi3pfuJXb5nWass8dpeI/UPLce8ov5pBHOECMBK7o0j2L1axDlEbqNLxoODz/MyDDhqgUHij3IvHvHRVv7eFXOiPbuG0TxZTfCzMdaBjHnY98WX01StidrIdY4lbyGY9dSu8SUj2rd1toQ2uw7qXFF+OsGs7R+3Y9my5efDCDmLG9XIYn4YXBc22p7vMenxciy657gv8xM/Ir0OOlJ1XM/qKg4GmeHu9WU1M5/Xz+LyZX7PQ19xfoJWvSKLNY9KSD5CLTXAIYVynax7/OSqXlUTzFfLLyEYbcHMWLe7JhowM/WOYHzjXFeNaFO38hOvpOdJd3uUM4NTvuPQkTEe5wOHrPCKz17VHO73+dyP7nHmJRYl8UyKSPziIw8Es8ilIvmxPjY5qhHzhFF+HFXNDOu5HnfdMVfQb+/4SauCCFzOTOX4kT5T6wiGjd+T1Iw4+aNPdjYcl8UzHzlZLPp8XnSksK57rvtdH+VU+e6Peqw9U185XLHenr3O5ydqm7VHFlv0Yi11IRdqr/1d53X8Ns49RRnn81quR9xX2/mJf8KqaHeUM1PFnGjP1DiKOWPTYo1os6bKT7ySs3mOQ0eqtuvYmS+uI2LIBad4vIi5pA4y1nEsumPxzchtnpPBNhuciIZLvnh5Fjm8BcX37jXuWbf9V7TCeiZrcd/V9E8nGBrgJIFvT3qO9GcO32DXNWe0fR2+6REXbfIq/2iuUQ51kY5FR47mIH8WE3E+h9eKunARG+0sJ/qwq9xb/3Ki/OOM11jxW9zqB73IrZ/TumK28bG/wq5Zr6F9GcGoPWyB5NUGG4yM64t+2ZWPWIxTs/IrPoqRvye9Bjpydg7HV/OBibLC4wePLZn5ZuNZrnzx4s1EMuZEeyEhTmy+vpjj6x3dU5aX+WK9V7C/lGDUILbsaiSjDd7b5KPxEZ75MvnoQZqZd2+OUQ3lxnh2H/iquYhnMsvJcPgy/K1vPX3Ky8a23ooXNuZEm3rUGMXBUrfCOu4V9Lyrn7zy7bZ98uQ93TfvwNHTdxT/vdt7CYLRFvS2fe+D+HV3f/TkHcV/3Z1dYebLEIya0Vt3hSPxHddw9OSB/469OnbPlyIYLZ2tk+zRHXisA5ymmSpgZ07eEezM3O+LuRzBqNW9fe974D73zo6epFn8LO5z7/aKs12SYNQotvCKTes1vUoHOEXImXWDRWY5o1iG/76+yxLMM7dEvwLUv9/a4907ABG4nLlnx4/0mVrfG3N5gtE/Au1/R4Du/xL/0S08g2BEUKrzyDqOrrvxRztQkcNMnSoX/0yNxrwEwfi/0H/GljXBnNHFV6jhZICOnF0/eJezuY1rgukz8MYdgBS4RWwk/pbP6sBLEwwfn2gO/787fGzx/38efwvyNxjV8Jhq6f/LRxdDeC6wPldch/I8LtvXolo9PqMDGZHgQ37GOr7vHJc/6Ty8POCS8jH04EIG0onJBxkIKz9f7KoGuvyOE9YJxnXmlHQCQadmrOFrVCyb02u3/uwOQC7IZ8/3feufRjB86elEEHUe/iPt3nsYebj1EDtROInE+TyW1XdSkS58HMwrqeE5spkj4qijOLn4Wn5mByAX5GfO/X3mun1yLnbvGQHEJUICvEFUDzV5PPyys/qRLKjvpBDngGBV03Vwyo1XEww78lUSckF+1Tred96XJxgeZhGFHmCGdAgHH9JjMwRDHnPJhjicJKgrQlLdCke9llfoAOSCvMKa3mcN6xN50XvKCMCXqoeah9m/69BD7h+ZhIFwIALVgTQgCuEUV34cYOXPCEa5vO1QT1hfV6zZ9hU6ALkgr7Cm91jDSxCMHvh46QGOJMJDD5HowSbPyUY+MNpGSEF+6VyKeQ3PYy4nEnw+F8ck1lGtHlfqAOQi2eOsDvQpP6uTXac70B246UATzE1L2tEd6A6c1YEmmLM62XW6A92Bmw40wdy0pB3dge7AWR1ogjmrk12nO9AduOlAE8xNS85x3Ptbonvzzln1UmV2DRku843W9kx8VjvzjdbXscc60ART9E8Hce8qUj/c9x7ke/NGazkaO7KGDJv5qjUcweSMFeMAACAASURBVKrGLL7CVf5qfVf16z5mr3gPo7yIfdRugik6uHcQY3y0aTHGlNE/ssl5hhzNG2PV/BHntue4v9KP4qlDHrbLKob/LKk5v2rMzl3hKv8j9/N13Xhk1Z+Qu9fsUXwU21v6TK4wXPwVM39ljN//2E+6/2Gh1qA/JiTX1zQzv+Ojvpcf43u2149Yj7kecdhIsG7zR5Ly6Yr9ImdPes097JnxI/NW2Mr/yDqbYIru7TW7iss/uorpPtyeV+GE8cMvotDDIZ90hkgFApklGJ8/06kt6XH88vmINnkjTJYT83xu9L2aWV18kIskwwka34yk5gz2UQz3PpLZHEfxWY1Z3/ZEzGZdGMdhURP9wBxdsvJHI4uzcVVelgOWWJTEJflvndyHHgnGsTMEc+/afb3UQLI2l+DlQ0e6z3OO+r1ezPUYevU2p1z1TjguX5fHIHfh1Hvw8YcBfvBe76iuWgx0pPyug7vH77lH9XWFRzMvitfGqbG6HtlEaoykt0A4jREejOehE4uSuKTuh7cS90uPBKPDD3aPYHxO6dUV55RNrsfc53rEewwdGetVfsehCxsvYpLUQmb9cTy6+klPJbPzpZqOUW0Nz5WtXCcf+VjzR8LE/7B+cl1G3ct53ozfMUf1tyOYs95gjjYSfLV5ilcx91e68vcIRrlcfvizByir5XNzP8gqFv1uux7rxBg2ssIrXl0xZ89mrqw/5IoEfD76KhkJQjnUlK6zCMEI73WkQ0TMRRx7T/pc6Ejluu615K8ux52hvx3BnNGUR2pUG4c/1pbfx8iufmoqP77BeM3sYch8rLGSXhOd9ZIT/dhI8NhRVvHMn/lUL/qjzZz41Yv4sDuGj9re/4qUqKn8SDAZITEP0vPxVdKx6EjluO41jvo996i+Pd1Hs98cf89GVDlqVYxhS1aX5/F25gdVD4f8I4LRg8FPUtWjjqQP1uM+9CrGusFJZj7iVZ29eJaX+ZifeplNjHz1Trr3g36BUY586reGkw31JB2vetSJe+A56J6LbyQdj45Unute56jfc4/qTTBFx6pNAF7FK7/yRrG9usQhB9XSpYOrMSIYxfVgkCPpDxO15a9GFYt+t12nbuYjJlnFM3/mo4Zifvkc6J4PyZAjW0P9xaceQjCKiTw8Jp/XdIJRLO4Bcyh2z/C50JGq57rXP+r33KN6faKOVnojfLUB8RYzXOZTnvxVzOvOYBx/pl7NPbP2ChNrRpv1kz+Kg5UE7z70WCOzo4/cV5Kje1AsxvHNyLP60AQz0cm4URMpH5CjeUfxs+uocJ8532fOld1vNn/lk3/mivN4vSw/4rHJQ+KfkTM52Vqib2auezBNMEXXfAMKyK57ZvO9yFG851a63wc62GfMR+0oP3Ou2bmzNeFDxlrYWdx9risn2tTx2AjjeHTwSPxRPhqP9Y7YTTA73fLNkR4vT4+xzD6Kp4bn3aOrThyZL2LusVnzjLyn/pGcbA3kxxh+ScWODs+JtT3mdd2f5Xi8ypO/whGrauP32mfqx7t45uwvUMs3znUt/VHbbz/W8tijutdGl4zXo/OM8pl3hMm+NI1fansdfWnKl9zUle1fxDpeGGwkeZktX3WRR03HeWxPZ94oR3lgI+aoP+Y/w26CSbqqjaouh8cNPWpTy/OyecHdI6t6cc57as/m+BqqHJGLk4V0/ZYl+00MBHIvwfi9s57oiza4kSRHkkt4dOLUwI8N1m3XHY/uknz5fETbY+gzGLBH5HYlRzK/CdYb77puf2QTQ2Z4WugYfCO8Y2Z1n8P1vXmEjfjZOb02NZBeQ0TC34u4X3okGMfeSzDM4WupdLAzkhp7UrUihvry+4X/Uek1K/3RObL8JpisK798vhFyyfYxsj2Gjow1Kr/j0IWdvciRjHO47XqVU2Ecn+nkRenY+LHGY5FgRCpH32A0t19eP1uXYyvda6BnWMXcDxapmI9oe+wV9e3dveIdPGnNbLRLdKas7Hv9yqsu5jwqs3qqwRqRWV2PuZ5hM5/nVLry9ghGuVz+pvPoG4zmZl3I7D6iL2JZW/R7/VgDO+ZEGxy1fK6R7nkjfTTfKG821gSTdMqbXulK81hmx9IRTzzzZz7w98isXuaLtYWZwWV57os13PaPPZ4jPb7BeFzEpMtH9Pk8wkWb3MpP3GWFxS9ZXV5HOjn4szxiLmOex1zP6lU+zztLb4LZ6aRvZLYxnu5Y96NX8cyf+ahzj1Q9LuVTH3lPzSqHmsyXSV8DupOF9OxLXp9TcebCL1t+RhYn5hKc5OhSDljPz/xeJ2KxY61og3NZYSq/cqtY5ff5HtGbYHa65xvgerZpMR5LV/HMn/livRlbdbjAx9rRBnemnJmDdUryPcvoDUbrExF5npOL4h5Dz+5LsdlRYd2PHmWcgzj+aONHKr53gY0yq535Yt4j9nxXH5nlhXOPbECFlZ8ra0XMG2Gz/CO+OBe5lZ/4o/LZ9av1xXkzO/qyWsJwjeKKeb1Kp4bHYy6YIzLWq3KF46owZ/ibYM7oYtfoDnQH0g40waRtqZ2jnxBVrPLXs2wjj+Zvq329ld1P5qtWegRb1Wj/53SgCSbpsw5wvICNDncVG/njPNjMJ1nlO+aV9Ox+8CFH9zODGeV37PM60AQz6HV2kDOfSsjPFW38o9xsGeCRGeYMn/62RF+mZoO1xy9PM2zm89rcB9Lx7ou67JnL67V+jQ40wRT7EA+5YNkh93TPwZ/5iFGzsslFigSk+x+bkUuM377gn5GRBCAT/5sS6ldEVM3jtYXR+rkfz8l8HkcHh8Tf8podaIJJ9kWHN16C+aF23WOVP5nmZg6fM6uph1sPbHxohRWxcGVzjXxZPWr636aMalSxrDY98vuNelaPPGLRxt/yOh1oghnshR9g15VS2fglqyubkjyvjQ8Jweihj28qwujNw/3S5ediXt5G5I+EBSFkucIzNBd13T+qTa7jRz5ikp5T6Y5HF9bx+Ft+TgfWE/M5873ULPFguu26bkq2X/hmbzjW83xiEIzHpPNRxglGPpEFw0lJftkaEIVqa0Aw0kUy4GRn65Df5x3VFlaDOr/M33b0g638nj+DAd/y8zrQBJP0Woc1XoJxiJFJ6m8M+KwOeTHmNvkunWD84VeeYv6gKy6bobhwXo+Yk4rrPofnQUq+XuU5JqtNnHWAwUbir+Q9uNmcas7239eBJphB37JDmfm8hOIVpvIrP4vhQzrB6CHXQ+2k4jox1nY2wYh8ssFaiTlhEUOCwUbiR+JHyl/p5CCFcyz+lp/TgSaYQZ85nBzQKD01YhXDh+74qFM7+j3XCUZ+PbzKE7FoOMHEj0giBEhBeXz0UY5qqDY10as3GMgK3Efir/8Z1Qbn9+q64tF2n8dcdwxztLxGB5pgkn3Q4eUiPHugI075sRY1XYJBxphsPdB6gBmRRJxghBFBUM/zIAjFIB7IQjj0imBUG2KivrAao9ofgEAiyvcxsmNMefiQXqv1r+/Adne/fj2XXEF1eDN/5uOmYkw2F5go9+IR/wo2fUDGNVd+4eiHy5jf9nU60ARznb3olXQH3q4DTTBvt6V9Q92B63SgCeY6e9Er6Q68XQeaYN5uS/uGugPX6UATzHX2olfSHXi7DjTBvN2W9g11B67TgZcmmPh3IF/RVv7ug78d+Yo19Jzdgat24CUIRn/8xd89+B+MNcFc9Vj1uroDSwcuTzAiFP5KVEsWqeivSNGdcJZb+tz/7TeYz+13z/ZaHbg8wejNBUKJre03mNiRtrsD1+rA5QlGbyjVWwoEI8lHKH/bUas9FskKm1y+R1ENfJL4VY83FuL8NzmOudYW92q6A1/XgcsTjFrDwxyJBvKQZAjLG4+kEw54xwrvQ3ifBwIBI3ycT74mGDrUsjuwdmD7dK3+wxoPoh626vIH8+gE/uYAgaiek4FqiiCqeajB3FontUY+zSEc9whWkppNMN6V1rsDSwdOI5jPaqi/YVQE428tIodIeKy1IpiIByeCiYTWBEM3W3YHbjvwcgTjbxF7BONkpFuHDGgDxIEtmfmI+9z4qNlvMHSkZXdg7cClCSZ7Y9AbBG8oMwQDVrcsXQTCyMgkkhJYpHL8I5hsXU0wdKhld2DtwPq0rb5LaXqYeYglnTD2CEY34rnxDUQx+eKAiDwXAuGNhRg28Vir7e7Ad+7A5QnmO29O33t34NU70ATz6jvY6+8OXLgDTTAX3pxeWnfg1TvQBPPqO9jr7w5cuANNMBfenF5ad+DVO9AEM7GD+o3RPePevHvmynLOnD+rNevL1oYvq0Esk0fxqnFPTjZ3+4534L4n5/g8L52hAxqvmRv66oPt86Pfcx+6V/LjfWf+zBfzsI9gR+ugXiaPzpHVuJpP9zR7xbWP8iL2UbsJZqeD8XBGu0oHh6xwz/JrXi7NwTqQ0QcWGdfleTFGLXKjdHyMZfZRPDXIw56R5JwlNedXjdm5K1zlf+R+vq4bj6z6k3Jjw6NdLSPiou15/t9K8UeE/PGe8rjIEcb/klh+2eSCk2RepPuiXuUxP9Jxme5zzcQjPtpeYxRznOuzObHn2R9get1Kn52vyr/Xf2TeClv5712T8ppgku6p0TQ7yo+mDX5KgY849zOlyMXJQroOtg67/0eVIg8IZIZgNFd2+Zqy9bCuLBZ9Xr/Kizk+/5GcmOdzo1PPJbFKgoVcJBnef3wzUnN91qjuy/3ZWjwe9Qz/iO/zuvHIKg/kcljUOD8wB0rcQFWL4To+STYq+qJNvoikOsRat8ccO0MwzMlc2JL4kO4D57GRz3OVEy9yXXptdKTX85x7/V53VC/rKXjtg+pw4Zf0GD8AhNMPCvD+JiQMfvBe76iuWgx0pPyug7vH77lH9XWFRzMvij9zE7VBvknYLkdt8NyIqz7WCBcJRvfEgZT0tx7hs1q+RnRhfU2ZnvlinmyG4zNfjLud6e7zepUfjEuwkqOLHBGFEwH+KNVnep/1XHjN5xh+UHiucNrHOCdrjfNWtvAMdKT8roO7x++5R/V1hUczL4o/4w1GGxM3Z8/O2hFzHFMdUGH8HlSDQ6rYDMEoJ86NjVStTHefY6JfMY3od9v1X/Df+BjDRlZ4xauLHGSshV/SYyOCEQn4fE70kSBiXf9BoTyvIx0iYl3Esfek8Ax0pPyug8OvWHY57gx9XeEZ1d6wBpugW2PDkHu3O8LpcK7E8c+mlB/MTeDX20o8mPGnI2tl7Uj81Izri7bjs1iMO8Z15nO8+1w/kldhqaf46AKXkTYx5Ws/NPyHQkVKvibfR82RERLzID0fXyUdi45Ujute46jfc4/qTTAHOqaNqTYnK7OHVfzvv//358+fC8HoAOsQ+sGMdRWPdWXHw5thVEt+Lq8NHukx8qIPf8zJ6pMbsfiRVTzzZz7qSI7iHqOnEIlyIX/HyccbjJNNNafvo/DUdLzrPpf7K93x6EjluO41jvo996jeBDPRMW1ItSmj9JmcHz/++MnF4fWDmdXXYWVNkpFclONxdPxZTWEYro98ikWs267v1dmLn1krWzcko3l00VPvtfaHPVINEQZ4/L7OuI/CgPc5uPej0udCR2b3SH3H4BvhHXNUX0/V0cw3xmsD/Lr3VquN3NbT2wvXNvKIFefGRnrt6HNbOpfnRL3CeC3lRJs65I/iYKlTYcFVceYC96qyur+qP9z3jDyrJ00wk50cbWZVYi4Hclk+JlW1Zvxz881UWjFHax7FrzPdr33VnJp35hrd2TPXntXOfKP1PRprgpns4N7GKD573U4JyRDBvpXZHGTtrRHcEZnVZA1ZHfBgMpnlPeJjzkdqHM1lTmSVP4qPYl5PuL3L8dKr2pU/5p9lN8EUndzb0LhRbrseNzvGlukhElnoI5kfoLx2cYMTbq8nnatKdXyG2YtnOXs+aiL38GfHj84r/N51dI1xDVl9asYY/mfJJpiis9mmOTTGibm/0sGusiKTFeHEoy+FGcwhGS8w90pqe37mIz6KCbMXp86sjPWi7XUU49IXtxrxi13/LY90vuiljr6kJRcfNSsJDincaOzFs9yYU9mVP6t5lm98t2fN8oJ19jYjxuMtEkfG+NaOBLONrtY/v3/jpLpcivs8rq+5xzSv7ZlV7YjHRsY1es17dF9HpVNXcScLEYV+wyMfv/0RVqQCgRwhGOaZkb7WDL8Xn8mJNWRHn+pkvqz+I74mmKJ73nx05GhzhHEc2OjbTjtLMMpasNlbDDWrubK1keOSfGQWcx+64zPdfeQclaoR62Q2PhGGk4jPFwnGsTMEwxxec09Xzt4Va+zh4zpGtsdcj3OeZTfBFJ305me6+1RCdvRBBsiIwZbkb2Ek3Y++LvOWYJgfjHLicJ/rEec2OMnqyvDykeu6+/BXdaPf54l6rOvx7GMN8UgwR99g4hozm7mQo7UKk8UzH/UyubcO6iGzGmf5bk/iWZVfvA7NR3I72Ej8SPl1OWGgQzRgt9LfYrYRt7w2cyku3aXnRD/YiIl2hst85Hks091HzhlyVHePYJTL5W86M28we2vP1pX5vE4Wz3yeE/WIz2ydtuiPdc6wm2CKLu41v4ovficLf+PAn01KTHI0vN4WV60JlOJ7GLCSGTbzkeMx6X5V9ch9RPq8sY5/7Imx+AbjcZGN4j4yn8ejnq3Le1LpM3VGmDhvtDlp0R9rnmE3wRRd3Gt+FdfbSvamsuDZ2opE9uJa7ILxj1Lysh5kcVuH3FmtzEdRj7mexfGdIbO5qKsvcxV3shBRZF/ykiMpYtJbDIM6khqqObrAkI8crfXenJgX54g2pyz6WeOZsgmm6OZe86s4H4cUj9cyFdubTUwMGTHb3yIRjWuJNrijMquT+ag7igmzF6fOUblXF3IQTpfIQ2P0BqO4iIgcSchldn3KiSPzOSaLZz7Pke4Y6fFyPKfrjx8/3P0U/bYDT5nm9Yr6hvnqfePcj76+weBZ5FqP7d3GV4v4SK7ote7qk1b5t6ix5TWkxytmO95jnuf+s/Rq3rPqH6mzd68er/RsvgrrfvLk83Fj//jxU+SiE/bssV3Js2d7ofpxU7T0zHd7SxBDhScepVeKMbcd97g+d0/5PEdywUpWF7OAlb2HJQfpufj2ZJVT+am3FwcnmWEzn+c8U+dE+Rz4onTMUb0JZtCx7ABkvm2JdXtusWuM71K2cltpscjJYo/7fI3okn6NZiFHGNc956g/q+U1XPd5srwYz+yqXuX3Go9gZnJ9rjN1P1XoI3nv3E0wE53TQaiu2/Rlm/iotByibOvIjDH881JfRh79fkDV/Z6wXUZdNmO5ry2p4AMjmflGfs+NOuuNfrfBIBVDR4LHnpFZnVHeaI4qhv8zZDx12D43PqTHZvUmmNlOBZwOVzUgF95Oou15IgfVEuavv/7967dEjtjX7yUYVeY+kO6Luq/E8SOc54BTbnZF7FE8a0JSz23Xszg+5h7ZHnPd53Dda1Z+6vgXzP7bLM6L8nXx27Hs1/GKeS61JSENlx5H34uDq2T9lFQZ38DP5vkhcF3bU5GG4xyz6msDtfn8RkM19c9n/uc//28FTGqqc/QNxu/RdU3JPSB9GfiQxKKNH0kciR/pfunYSOEq/ZEYucwZJesD59Jjru+t0+PkuU/kooshouCc+F7LT96jBMNcmXyEZJpgso7+8rF5QBY7I5fFl+OVvWyRSAZM/tNlwemwCMclLCP7yQZRgecwKodDSIw6SPnjwIf0OD6kYpVOXhWv/F5TmOqifpRe12tFnbyIv8fPGslFxtpuZzq/Uic/SicYxVRDOU4wEEJ+xpaKyuM3ScKPBvX2cFmN29OVob6pzw/A0oJILvJ6+7dbsOY7ZqnkB4Laa63Fo//V4dGh0qgOjOL8xINQYi754GR/HLLwAOOX1FjvYWu73/WYMxurcO6vdOZUvLqW1d/ez14ueS7jOtx2XFXbMeQiqz0mxwnG9/rjPP311+Y0Kv4/f/754SOfNUnqVEIyHs90TnAWG/maYAbdYdMXyEouWz8FbrdgxRGTXMYewSjXL2UpR1ccfugUY14OoNeBrPB5LfKQXqvSHUutzJfFHOe6zyV/dVEzyqqW1/WciCc28rMmsJWMNSob/wzBMLckH43/V//V+JMI5vb0Vnd762+Cue3Jbw+bLsf6HcpCEh5bEtiG3+m/H/RtfMnfHiRyl5jeMiASf2V2/zrL8u+YcNDkZ22aw99YPAecsH7hB0stbCQ52HuSOkjhK91jFcb9Pjd+pNfKdOFmrmwO91W6ryPO7zngfL89jh5/mMivU/Ox13/9BexD4uN0eZB7JracPEes+gxmRW+1JphtPzYWm75I2rxCiC8ejy96Hge3vBGt/79I+pJ3+f9FEinocGjIRx35eANZV1ETDIfVycfzqIsPW5KLWJRg3Z/5FM/8+JBex3M8ji6JXuXFGuRUebHOyB7ViLE9m3kcpz32Hwzad37gVATzf7/+myvfa2H1ZsOJYy6XxJAek45f8p7RBFN0jQ1Hrq0uEjZbsWzL+tZDjm/XiuHLXw4VxKC55VvXsP3vYyCbeOgcr8Mpm4s5tCJ8LvGz4kyCjzH545jxzWBi3cyOdbCRynGdGpmvwo78WUy148W8LuMatKfksc/Cx72Wj1MV9xpSIu7zuU58T3rOrH57ImYz3xgXN1u2SICLjV9x+dasBKO4j4j32Ofp6/qXObGR2Uo8Jj1eWQ4+sNguY13FwI8kNTwf34zcy6viM2viHnwdsR51HHNE95NU5TnGdce7P9Mde0RvgjnSrd8/K7ItwOcF8SE91np34JwOjE4XsUrGFTguxu6xm2AOd823IOpZMcdk8fZ1Bx7rgJ8w6YyjfvLOlE0wm27GLcHegH4ZxJAZBh8YyR7dgfM74Ccs07MZHZfFz/A1wfzuorc7038DTXGcuW/UWdxNYju6Ax8d8BOEHluDP8qIw3YcvrNlE8xHR6tWu196HB6PMewZDNiW3YHbDvgJivotevE47hFMlTvrb4L56BTbUbWNuGQco5iwe/FYr+3uwNoBPz2cvsy3ZiyaY2IMewYD9l7ZBPPRuX8+/qkE/xuR24Zut0PYBe9+6YzKT7xld2DcAT9BETmKCbsXn8XEeY/alycY/bGQ/6HR0Rvcxy9boX+LBYLhD930h0vbsW7bSjBCrP5c31Zpqzsw0wE/VRmeeBaTj7hkHKNYxD5iN8F8dG/7BlMTjMDL1jghLRvgW+b6I9vTud+5A5yiqgezcXCVrOqf4W+C+ejiQjDLvyg309YRnm2cqdOY7kDdgb2TRDyTVM1i7gP3LPlyBKOPJvrYJMmfWfPfXMgXP07x32eogbyZkCf8Mpww1P7lz9T9I5LPJ11kNE9Iv6Zp0R040IEREXis0pkqixN7tnxJghFB8PBDGpKQiXSGCAcCUh6DPOqshKHt2BKM8j1Xtv47o4VgFjx1W3YHzuxARg7R5/ONYo77LH194h6ckYebt4NM8qAfmUo5/lait4f1zWOppDhE4YQCifz3v/+XTul5vJXwHYvWn9Wk0BaPt2V34PwORNJwO5ttL57lPMt3GsE8a4GzBAN5OV76n3/qn5tcWi47Eh8kshLXgtUbCjEnIu6zCYZOtHykA04G6Fk9Yi4zHD5w2F8l345g1reW5d+yXUjin49/rV+kET8+QSIrwWgrln8MavkX/v/5eIOCwNio+JEKf8vuwGwHIIFKZnUcm8XxgcP+Kvl2BKNGQhZ6W1nGSjDL28z6r+3nBLP8E5kQjP7VubXW8q/M9XcwX3Vk32NeCACpu0J3Ge92FAM7gwH7bMkT+Ox57q7vH3lUBPLwgv69i/wiDRGCsMtYWq63DhGDLupUBKN8CEZb77nSRTqSPboD93QAEshyiSEjpvKDIy751ePyBHNOg2i5qqEfab/nuH7O6rrK9+sAp2h052Akfbh/FPOcr9K/AcH4dtDmzEdsJON2jrAd6w7kHThy+iqs+ys9n/1zvd+AYNRQbUEcvi0x1nZ34Lkd4PTNzAI2nmL3uz5T87Mw35hg1OKrbstnbX/P81UdOHryRnhiX3Uvo3nfgGBoL3J0u1mMPMke3YHP6YCfupmT5/jPWeE5s7wwwXjLM/1Igzz/SF5jsw74r/QVd9v1mKvYKJ7hZ3wR4/bsfBku83lt1zPs0VN3FO/zf5X+xgSj7Tgyztk+HaTRdWRFr4z1B6rSq/tzfIXBn2EzH/goZ7EZDh/Sa8fTl2GEP3LqjmB9LV+pvyjBjFrtMfTZFoOXvG9UB0nVRrH7Zluy9HdA/hfKR2vpb4L4e6CjuXt43XN2zeTtYTyezYHPca4rroH0GDoxJP6Y5/E/fvz4+fsq7l94XX7iZk4deF/HlfU3JBjazVYg8e9J8JLHhx+0mJ3FRA4ctvUPA2Pm2D6TYLSWs8nG79v10V3N4u6tEetH2+sqlsUzH3l+isAhwSAdOzp1jlNu/G/rqKdzpLm4+M9ctK86Kz74T2vcd6b+xgSjNvmWjLYutvQIdptbHSKhYkybzeYrLv2eh/tMgtnezXGLQ+33WulVdfDIDKcYF/GIj3aGc4zrYJHEJKsLrCQnT28yfpqo41jHk+c5YD2ms+JkIaLgB5S/kUIgkk0wdHJXequ3YBqqjZS+bnW2ZdvcM6zq8OFnjmyzienwgJd00vGfThwwiIocJy3l4pfMhh9IJ6tH6vpclZ6tRT7wyArnWDDkIPGDjf7Mjj5yvVblA6PTBrmgE8vqE/OTXenMvZxvMlfp+ymv9lHnIDtzPC9r9rlafuLOneMJ1bz12/L+AEpfRo3fZi+WDsDsFfNHh8djIoF1fbHKausA6IBoZAdEfsWpBaHI77nkg5PNkE95GqrFwX2k7kz/mD9K+oSMcbczTObzHNdnsRGHjYw1nVw4ffIxlBdz8YGv5B4p+H6ClczOD3HWdbZ8UYJRG7z9a1tomDZL+jpy/Bo/R4uHxqt6bI9gOGxIVj1PzAAAB/ZJREFU1VGOv51Q20lBPuaBbKghKWwcfiC9lutH67IGz4t6XEcW9zpH8Ht51JrBCRNx2EjqScaTJtsJx7GuZ/NQy3Gccfe5rv2kliQ/PJpgvEu7Oq1H7iWAk3zeyA4cs3ks22xwOiAQiR8m94OVHBGBcvaGMBxCr+W6arB+YffqgvW8qGfr8ryj+KO5R+pXtaOfe+JthbhOnZMMfvDIyk8cKdz2ByiR5V8cYD9X7+0brWKqoX1+1njhNxi15ChpHMUfb7s2fnR5ReEgEvml8/ByQOQTTkO+7DBURAA5VQeRtRwlmJm6rBnJXNHGL1nFKr/nVJjKz7x78QwXc6L9sa5fH4c85gTzQTjhOzHHMm8ltWd+FrQnkL7vZ8zXHJwtxYQlL2LPsC9KMBDBzC2CldwbR7B7tc6Ja8O52GgeYPnlk2Rgy8cBqwhGOTpM1KcetZCqyaHzWq4L6+sY1QWHZJ6R3MNmcXzIUf0qNpvrOOmcJNX1WLRjTHkQDW851dr2/H4WfB7fz1jDz5ZyhH3mWE/uM2c5XJvtk5wZjh/lOG6m7jGMNmzmOlb1tdB+0LXyUT+4s5iDP0rHuT47T6xHXuaPPuaDHPwkSR+RhXI3169fXVMjzvVO9gsQjLZhZrBdyCyH2GzNrEb7vmsH/PRU+mxvYv5s3qvhXoRgZgkhbltlv9o29Xq/ugN+kuJaPCZ9dtybN1v/CrgXIpjZrYvbFu39tvM6HJGVfw+3l7cX36uv+GyNWZzXVE51xbVh+zyuE6/kLLbCVX7Nl8XwIct12ceaCsNJG31cirnkIGN8ZMc1R/tI7gj7SOziBMOt0X7J2eE56LO528OojcuuWI0NrmTEY4OXnc3j8SyHPJfgMun1XHfso/6YH23miv49mzzJI9gMH33Uk7y5iv+A0dfzUa/AUTviZR8/nUuVWDPa2Vz4jmDJuUe+CMHo1tgGya8Zs5sScdGOq/e46+DcJz1ewkUMuS7BIGMeWI/jq7DEY060wUUZcXs26xBudO3NQzzWwM882P7lblzjb8yv3/Y5NtYBe4aM64i2zxHvM7Mdf5Z+UYLR7WVE8vkkk22E+9gI97muuNvSGZk/+rDJySSYKCNWcR/R9pjrsa7b4Ny3p5MjKayPPTvL8fws7jXRJbliPjbxDxneTMBUUiTDVWEe9WtdPqI9ikVstD33EX27wkcqfVru80lGzZ5peIaJuY5x3dvl/koHr3i8FCMPCX4Uy7AzeWCq/MpPnkth9y7HS9+rH+Ne/2gt8Koxc/KYS3ngP4gmkAF1H5HZfVb19rAxXtU56n9BgtEtsnWSzxmx4djIbFZikujCoSNjrvulZxc5js1qx3iGcV/UZWt4nRn9V9pNrvtndJ+rwu9hqnjml88v5nTfb93eSuTzAQaf7HhKIwbsPZL5karheqzpMXTkXm6sdcTedulI5pdj4/aduyCaj1R16W77jO5Hr6Tnxbrk4M+w7gMf5QiT1Sb/SMxz4nyKxcsxlV7VdHysm9mOlx7rek7EZjb5nDq9lYxGxI9+FLKWUb0Yo34lK7z85Ljuvpj7iP3CBKPbZrtH23dfe7zhlZ5VdixxfEj3y+d+7CizHDCKUQPp+KhHjOeDden4SgdPHBn92JIRc8TndfZ0zeOX41mDCINT5NhUtzeZWOsGX2CzPPft6b/X/etNKtoxv4pX/ph/r/3iBKPbfg7JeOOlVxeNz+Iek05N/Ej3U4dYlec5jon+WGcUd2xV0/NdJ9d96EgwyMw/66OGZMyJtmOjLqyuvVMUa0JIkJLXdSx1Z994vM5IZ45Kxlxw0Y+9Fwd3VL4BweiW2cajt1/j1fDYdGxkzHa/68JF23OJRQkGv9eRr/I7jhpHfHtYn/fe+ntzjOoyPzKr5TFqyRf92DpBThpgR5JTh/R50ImNCIY1kLMnI37PVr2IiXPsxSN+1n4Tgpm93XlcbPieTWXhKmz0e4504tRwOcLGXLc9j/r4MtysL9bKbHyS6HFuYnsy5u2t0+ejttfwfMUjwcj24fXcD4EgnaTwSVb5XmtWj7X2bNWNmDjXXjziZ+0mmJ1OqfFV890fccSQTJPZVe5ezj1x5nJJnUyCq2LRv4dX/OjwHNdVh/lc7tUH6zgRQ0YOPofjXYdIsnzqOv4RPbv/rN4RXNaPrOY9vuO7fc8sL54TN6u6HcexaVFWue3/2g5AEqwCW3J2eA76bO674ppgkp2NpDCyk/SNS7k9rt+BjBDwSfa4rwN9+nf6dg9BjAjpnno7S+zwCR2ATGIp/E0ysTNzdhPMoE9OBhlpeCpx92W618zi7bteB5pk7t+TJphB7yoymPWDQw6m+v1l5QjTsa/rQJPMfb1vgin6JlLIiCHzUYIYUn7pboN16XHXHdP613egSeb4HjTBJD3jIXcpPbs8Hbx8le549CNYclp+TQeaZI71vQlm0C9/8IFlvhgTZnSBdwnefa1fswNNMvP70gQz6FVGJpmPEhlJgEeCbfnaHYBkXvsunr/6JphBjzNSyHyUiLE9m7yW3YF37UATzGBnM4KIvixdmApX+bM67esOvHoHmmBefQd7/d2BC3egCebCm9NL6w68egeaYF59B3v93YELd6AJ5sKb00vrDrx6B5pgXn0He/3dgQt3oAnmwpvTS+sOvHoHmmBefQd7/d2BC3egCebCm9NL6w68egeaYF59B3v93YELd6AJ5sKb00vrDrx6B/4/zOrNXIcLr3QAAAAASUVORK5CYII=;" vertex="1" parent="Fm_gpZ8SLg755O0Aljr6-1">
          <mxGeometry x="950" y="-1080" width="280" height="294" as="geometry" />
        </mxCell>
        <mxCell id="Fm_gpZ8SLg755O0Aljr6-233" value="" style="endArrow=classic;html=1;strokeWidth=2;exitX=0;exitY=0.5;exitDx=0;exitDy=0;entryX=0;entryY=0.5;entryDx=0;entryDy=0;strokeColor=#007FFF;" edge="1" parent="Fm_gpZ8SLg755O0Aljr6-1" source="Fm_gpZ8SLg755O0Aljr6-181" target="Fm_gpZ8SLg755O0Aljr6-231">
          <mxGeometry width="50" height="50" relative="1" as="geometry">
            <mxPoint x="-340" y="-710" as="sourcePoint" />
            <mxPoint x="-290" y="-760" as="targetPoint" />
            <Array as="points">
              <mxPoint x="-250" y="-675" />
              <mxPoint x="-250" y="-1030" />
            </Array>
          </mxGeometry>
        </mxCell>
        <mxCell id="Fm_gpZ8SLg755O0Aljr6-242" value="1、发送invalid消息" style="edgeLabel;html=1;align=center;verticalAlign=middle;resizable=0;points=[];" vertex="1" connectable="0" parent="Fm_gpZ8SLg755O0Aljr6-233">
          <mxGeometry x="-0.1815" y="-1" relative="1" as="geometry">
            <mxPoint as="offset" />
          </mxGeometry>
        </mxCell>
        <mxCell id="Fm_gpZ8SLg755O0Aljr6-234" value="" style="endArrow=classic;html=1;strokeColor=#007FFF;strokeWidth=2;exitX=0;exitY=0.75;exitDx=0;exitDy=0;entryX=1;entryY=0.5;entryDx=0;entryDy=0;" edge="1" parent="Fm_gpZ8SLg755O0Aljr6-1" source="Fm_gpZ8SLg755O0Aljr6-231" target="Fm_gpZ8SLg755O0Aljr6-180">
          <mxGeometry width="50" height="50" relative="1" as="geometry">
            <mxPoint x="-50" y="-940" as="sourcePoint" />
            <mxPoint y="-990" as="targetPoint" />
            <Array as="points">
              <mxPoint x="20" y="-1007" />
              <mxPoint x="20" y="-980" />
            </Array>
          </mxGeometry>
        </mxCell>
        <mxCell id="Fm_gpZ8SLg755O0Aljr6-235" value="2、总线嗅探机制数据监听" style="edgeLabel;html=1;align=center;verticalAlign=middle;resizable=0;points=[];" vertex="1" connectable="0" parent="Fm_gpZ8SLg755O0Aljr6-234">
          <mxGeometry x="0.1287" relative="1" as="geometry">
            <mxPoint as="offset" />
          </mxGeometry>
        </mxCell>
        <mxCell id="Fm_gpZ8SLg755O0Aljr6-236" value="无效队列" style="rounded=1;whiteSpace=wrap;html=1;dashed=1;" vertex="1" parent="Fm_gpZ8SLg755O0Aljr6-1">
          <mxGeometry x="-20" y="-955.5" width="100" height="45" as="geometry" />
        </mxCell>
        <mxCell id="Fm_gpZ8SLg755O0Aljr6-237" value="写缓存器" style="rounded=1;whiteSpace=wrap;html=1;dashed=1;" vertex="1" parent="Fm_gpZ8SLg755O0Aljr6-1">
          <mxGeometry x="-210" y="-895" width="100" height="45" as="geometry" />
        </mxCell>
        <mxCell id="Fm_gpZ8SLg755O0Aljr6-238" value="" style="endArrow=classic;html=1;strokeColor=#007FFF;strokeWidth=2;entryX=0.5;entryY=0;entryDx=0;entryDy=0;exitX=0.5;exitY=1;exitDx=0;exitDy=0;" edge="1" parent="Fm_gpZ8SLg755O0Aljr6-1" source="Fm_gpZ8SLg755O0Aljr6-180" target="Fm_gpZ8SLg755O0Aljr6-237">
          <mxGeometry width="50" height="50" relative="1" as="geometry">
            <mxPoint x="-330" y="-850" as="sourcePoint" />
            <mxPoint x="-280" y="-900" as="targetPoint" />
          </mxGeometry>
        </mxCell>
        <mxCell id="Fm_gpZ8SLg755O0Aljr6-246" value="ESM状态下缓存行命令" style="edgeLabel;html=1;align=center;verticalAlign=middle;resizable=0;points=[];" vertex="1" connectable="0" parent="Fm_gpZ8SLg755O0Aljr6-238">
          <mxGeometry x="0.1302" y="-2" relative="1" as="geometry">
            <mxPoint as="offset" />
          </mxGeometry>
        </mxCell>
        <mxCell id="Fm_gpZ8SLg755O0Aljr6-239" value="" style="endArrow=classic;html=1;strokeColor=#007FFF;strokeWidth=2;entryX=0;entryY=0.5;entryDx=0;entryDy=0;" edge="1" parent="Fm_gpZ8SLg755O0Aljr6-1" target="Fm_gpZ8SLg755O0Aljr6-236">
          <mxGeometry width="50" height="50" relative="1" as="geometry">
            <mxPoint x="-160" y="-940" as="sourcePoint" />
            <mxPoint x="-280" y="-870" as="targetPoint" />
          </mxGeometry>
        </mxCell>
        <mxCell id="Fm_gpZ8SLg755O0Aljr6-240" value="3、invalid消息ack响应" style="edgeLabel;html=1;align=center;verticalAlign=middle;resizable=0;points=[];" vertex="1" connectable="0" parent="Fm_gpZ8SLg755O0Aljr6-239">
          <mxGeometry x="-0.076" y="4" relative="1" as="geometry">
            <mxPoint as="offset" />
          </mxGeometry>
        </mxCell>
        <mxCell id="Fm_gpZ8SLg755O0Aljr6-241" value="" style="endArrow=classic;html=1;strokeColor=#007FFF;strokeWidth=2;exitX=0.945;exitY=0.746;exitDx=0;exitDy=0;exitPerimeter=0;" edge="1" parent="Fm_gpZ8SLg755O0Aljr6-1" source="Fm_gpZ8SLg755O0Aljr6-180">
          <mxGeometry width="50" height="50" relative="1" as="geometry">
            <mxPoint x="80" y="-930" as="sourcePoint" />
            <mxPoint x="580" y="-527" as="targetPoint" />
            <Array as="points">
              <mxPoint x="580" y="-950" />
            </Array>
          </mxGeometry>
        </mxCell>
        <mxCell id="Fm_gpZ8SLg755O0Aljr6-243" value="4、强制读取主内存无效数据(I状态下的缓存行)" style="edgeLabel;html=1;align=center;verticalAlign=middle;resizable=0;points=[];" vertex="1" connectable="0" parent="Fm_gpZ8SLg755O0Aljr6-241">
          <mxGeometry x="-0.4849" relative="1" as="geometry">
            <mxPoint as="offset" />
          </mxGeometry>
        </mxCell>
        <mxCell id="Fm_gpZ8SLg755O0Aljr6-244" value="" style="endArrow=classic;html=1;strokeWidth=2;exitX=1;exitY=0.5;exitDx=0;exitDy=0;strokeColor=#FF0000;" edge="1" parent="Fm_gpZ8SLg755O0Aljr6-1" source="Fm_gpZ8SLg755O0Aljr6-213">
          <mxGeometry width="50" height="50" relative="1" as="geometry">
            <mxPoint x="630" y="-740" as="sourcePoint" />
            <mxPoint x="610" y="-754" as="targetPoint" />
          </mxGeometry>
        </mxCell>
        <mxCell id="Fm_gpZ8SLg755O0Aljr6-245" value="M状态下的其他CPU读" style="text;html=1;strokeColor=none;fillColor=none;align=center;verticalAlign=middle;whiteSpace=wrap;rounded=0;dashed=1;" vertex="1" parent="Fm_gpZ8SLg755O0Aljr6-1">
          <mxGeometry x="563" y="-780" width="137" height="20" as="geometry" />
        </mxCell>
        <mxCell id="Fm_gpZ8SLg755O0Aljr6-291" value="" style="edgeStyle=orthogonalEdgeStyle;rounded=0;orthogonalLoop=1;jettySize=auto;html=1;strokeWidth=2;strokeColor=#FF0000;" edge="1" parent="Fm_gpZ8SLg755O0Aljr6-1" source="Fm_gpZ8SLg755O0Aljr6-248" target="Fm_gpZ8SLg755O0Aljr6-290">
          <mxGeometry relative="1" as="geometry" />
        </mxCell>
        <mxCell id="Fm_gpZ8SLg755O0Aljr6-248" value="多线程并发修改同一个缓存行导致的伪共享" style="ellipse;whiteSpace=wrap;html=1;rounded=0;dashed=1;" vertex="1" parent="Fm_gpZ8SLg755O0Aljr6-1">
          <mxGeometry x="1500" y="-270" width="120" height="80" as="geometry" />
        </mxCell>
        <mxCell id="Fm_gpZ8SLg755O0Aljr6-249" value="" style="endArrow=classic;html=1;strokeColor=#FF0000;strokeWidth=2;exitX=0.25;exitY=1;exitDx=0;exitDy=0;entryX=0;entryY=0.5;entryDx=0;entryDy=0;" edge="1" parent="Fm_gpZ8SLg755O0Aljr6-1" source="Fm_gpZ8SLg755O0Aljr6-166" target="Fm_gpZ8SLg755O0Aljr6-248">
          <mxGeometry width="50" height="50" relative="1" as="geometry">
            <mxPoint x="1140" y="-160" as="sourcePoint" />
            <mxPoint x="1190" y="-210" as="targetPoint" />
            <Array as="points">
              <mxPoint x="969" y="-200" />
              <mxPoint x="1220" y="-200" />
              <mxPoint x="1380" y="-200" />
              <mxPoint x="1380" y="-230" />
            </Array>
          </mxGeometry>
        </mxCell>
        <mxCell id="Fm_gpZ8SLg755O0Aljr6-292" value="缓存行大小64字节，为了解决缓存一致性问题但是引入了伪共享问题" style="edgeLabel;html=1;align=center;verticalAlign=middle;resizable=0;points=[];" vertex="1" connectable="0" parent="Fm_gpZ8SLg755O0Aljr6-249">
          <mxGeometry x="0.1342" y="2" relative="1" as="geometry">
            <mxPoint x="-1" as="offset" />
          </mxGeometry>
        </mxCell>
        <mxCell id="Fm_gpZ8SLg755O0Aljr6-250" value="L3多核之间共享缓存" style="rounded=0;whiteSpace=wrap;html=1;" vertex="1" parent="Fm_gpZ8SLg755O0Aljr6-1">
          <mxGeometry x="220" y="-699" width="710" height="60" as="geometry" />
        </mxCell>
        <mxCell id="Fm_gpZ8SLg755O0Aljr6-251" value="其余14个" style="rounded=0;whiteSpace=wrap;html=1;" vertex="1" parent="Fm_gpZ8SLg755O0Aljr6-1">
          <mxGeometry x="1100" y="-460" width="120" height="40" as="geometry" />
        </mxCell>
        <mxCell id="Fm_gpZ8SLg755O0Aljr6-252" value="" style="endArrow=classic;html=1;strokeWidth=1;entryX=0;entryY=0.5;entryDx=0;entryDy=0;exitX=1;exitY=0.5;exitDx=0;exitDy=0;strokeColor=#FF8000;" edge="1" parent="Fm_gpZ8SLg755O0Aljr6-1" source="Fm_gpZ8SLg755O0Aljr6-97" target="Fm_gpZ8SLg755O0Aljr6-251">
          <mxGeometry width="50" height="50" relative="1" as="geometry">
            <mxPoint x="1040" y="-370" as="sourcePoint" />
            <mxPoint x="1090" y="-420" as="targetPoint" />
          </mxGeometry>
        </mxCell>
        <mxCell id="Fm_gpZ8SLg755O0Aljr6-255" value="其余14个" style="rounded=0;whiteSpace=wrap;html=1;" vertex="1" parent="Fm_gpZ8SLg755O0Aljr6-1">
          <mxGeometry x="1100" y="-370" width="120" height="40" as="geometry" />
        </mxCell>
        <mxCell id="Fm_gpZ8SLg755O0Aljr6-256" value="" style="endArrow=classic;html=1;strokeWidth=1;entryX=0;entryY=0.5;entryDx=0;entryDy=0;exitX=1;exitY=0.5;exitDx=0;exitDy=0;strokeColor=#FF8000;" edge="1" parent="Fm_gpZ8SLg755O0Aljr6-1" target="Fm_gpZ8SLg755O0Aljr6-255">
          <mxGeometry width="50" height="50" relative="1" as="geometry">
            <mxPoint x="1040" y="-350.0000000000002" as="sourcePoint" />
            <mxPoint x="1090" y="-330" as="targetPoint" />
          </mxGeometry>
        </mxCell>
        <mxCell id="Fm_gpZ8SLg755O0Aljr6-257" value="其余14个" style="rounded=0;whiteSpace=wrap;html=1;" vertex="1" parent="Fm_gpZ8SLg755O0Aljr6-1">
          <mxGeometry x="1100" y="-275" width="120" height="40" as="geometry" />
        </mxCell>
        <mxCell id="Fm_gpZ8SLg755O0Aljr6-258" value="" style="endArrow=classic;html=1;strokeWidth=1;entryX=0;entryY=0.5;entryDx=0;entryDy=0;exitX=1;exitY=0.5;exitDx=0;exitDy=0;strokeColor=#FF8000;" edge="1" parent="Fm_gpZ8SLg755O0Aljr6-1" target="Fm_gpZ8SLg755O0Aljr6-257">
          <mxGeometry width="50" height="50" relative="1" as="geometry">
            <mxPoint x="1040" y="-255.00000000000023" as="sourcePoint" />
            <mxPoint x="1090" y="-235" as="targetPoint" />
          </mxGeometry>
        </mxCell>
        <mxCell id="Fm_gpZ8SLg755O0Aljr6-259" value="其余14个" style="rounded=0;whiteSpace=wrap;html=1;" vertex="1" parent="Fm_gpZ8SLg755O0Aljr6-1">
          <mxGeometry x="1100" y="-184.23" width="120" height="40" as="geometry" />
        </mxCell>
        <mxCell id="Fm_gpZ8SLg755O0Aljr6-260" value="" style="endArrow=classic;html=1;strokeWidth=1;entryX=0;entryY=0.5;entryDx=0;entryDy=0;exitX=1;exitY=0.5;exitDx=0;exitDy=0;strokeColor=#FF8000;" edge="1" parent="Fm_gpZ8SLg755O0Aljr6-1" target="Fm_gpZ8SLg755O0Aljr6-259">
          <mxGeometry width="50" height="50" relative="1" as="geometry">
            <mxPoint x="1040" y="-164.23000000000022" as="sourcePoint" />
            <mxPoint x="1090" y="-144.23" as="targetPoint" />
          </mxGeometry>
        </mxCell>
        <mxCell id="Fm_gpZ8SLg755O0Aljr6-263" value="" style="edgeStyle=orthogonalEdgeStyle;rounded=0;orthogonalLoop=1;jettySize=auto;html=1;strokeColor=#FF8000;strokeWidth=1;" edge="1" parent="Fm_gpZ8SLg755O0Aljr6-1" source="Fm_gpZ8SLg755O0Aljr6-261" target="Fm_gpZ8SLg755O0Aljr6-262">
          <mxGeometry relative="1" as="geometry" />
        </mxCell>
        <mxCell id="Fm_gpZ8SLg755O0Aljr6-261" value="" style="shape=curlyBracket;whiteSpace=wrap;html=1;rounded=1;flipH=1;" vertex="1" parent="Fm_gpZ8SLg755O0Aljr6-1">
          <mxGeometry x="1231" y="-594.23" width="20" height="170" as="geometry" />
        </mxCell>
        <mxCell id="Fm_gpZ8SLg755O0Aljr6-265" value="" style="edgeStyle=orthogonalEdgeStyle;rounded=0;orthogonalLoop=1;jettySize=auto;html=1;strokeColor=#FF8000;strokeWidth=1;entryX=0;entryY=0.5;entryDx=0;entryDy=0;" edge="1" parent="Fm_gpZ8SLg755O0Aljr6-1" source="Fm_gpZ8SLg755O0Aljr6-262" target="Fm_gpZ8SLg755O0Aljr6-267">
          <mxGeometry relative="1" as="geometry">
            <mxPoint x="1910" y="-594.4285714285713" as="targetPoint" />
          </mxGeometry>
        </mxCell>
        <mxCell id="Fm_gpZ8SLg755O0Aljr6-262" value="N路组关联，比如16个缓存行作为一个bucket(set)，叫做16路缓存。将具有一定的相同低位bit位地址的内存块共享同一个bucket(set)。" style="whiteSpace=wrap;html=1;rounded=1;" vertex="1" parent="Fm_gpZ8SLg755O0Aljr6-1">
          <mxGeometry x="1320" y="-593.46" width="380" height="169.23" as="geometry" />
        </mxCell>
        <mxCell id="Fm_gpZ8SLg755O0Aljr6-267" value="bucket" style="rounded=0;whiteSpace=wrap;html=1;" vertex="1" parent="Fm_gpZ8SLg755O0Aljr6-1">
          <mxGeometry x="1940" y="-630" width="120" height="60" as="geometry" />
        </mxCell>
        <mxCell id="Fm_gpZ8SLg755O0Aljr6-268" value="0" style="rounded=0;whiteSpace=wrap;html=1;" vertex="1" parent="Fm_gpZ8SLg755O0Aljr6-1">
          <mxGeometry x="1940" y="-570" width="120" height="60" as="geometry" />
        </mxCell>
        <mxCell id="Fm_gpZ8SLg755O0Aljr6-269" value="1" style="rounded=0;whiteSpace=wrap;html=1;" vertex="1" parent="Fm_gpZ8SLg755O0Aljr6-1">
          <mxGeometry x="1940" y="-510" width="120" height="60" as="geometry" />
        </mxCell>
        <mxCell id="Fm_gpZ8SLg755O0Aljr6-270" value="2" style="rounded=0;whiteSpace=wrap;html=1;" vertex="1" parent="Fm_gpZ8SLg755O0Aljr6-1">
          <mxGeometry x="1940" y="-450" width="120" height="60" as="geometry" />
        </mxCell>
        <mxCell id="Fm_gpZ8SLg755O0Aljr6-271" value="3" style="rounded=0;whiteSpace=wrap;html=1;" vertex="1" parent="Fm_gpZ8SLg755O0Aljr6-1">
          <mxGeometry x="1940" y="-389.62" width="120" height="60" as="geometry" />
        </mxCell>
        <mxCell id="Fm_gpZ8SLg755O0Aljr6-272" value="。。。。" style="rounded=0;whiteSpace=wrap;html=1;" vertex="1" parent="Fm_gpZ8SLg755O0Aljr6-1">
          <mxGeometry x="1940" y="-329.62" width="120" height="60" as="geometry" />
        </mxCell>
        <mxCell id="Fm_gpZ8SLg755O0Aljr6-273" value="index=0,way=0" style="rounded=0;whiteSpace=wrap;html=1;" vertex="1" parent="Fm_gpZ8SLg755O0Aljr6-1">
          <mxGeometry x="2230" y="-635" width="120" height="60" as="geometry" />
        </mxCell>
        <mxCell id="Fm_gpZ8SLg755O0Aljr6-274" value="index=0,way=1" style="rounded=0;whiteSpace=wrap;html=1;" vertex="1" parent="Fm_gpZ8SLg755O0Aljr6-1">
          <mxGeometry x="2230" y="-575" width="120" height="60" as="geometry" />
        </mxCell>
        <mxCell id="Fm_gpZ8SLg755O0Aljr6-275" value="index=1,way=0" style="rounded=0;whiteSpace=wrap;html=1;" vertex="1" parent="Fm_gpZ8SLg755O0Aljr6-1">
          <mxGeometry x="2230" y="-515" width="120" height="60" as="geometry" />
        </mxCell>
        <mxCell id="Fm_gpZ8SLg755O0Aljr6-276" value="index=1,way=1" style="rounded=0;whiteSpace=wrap;html=1;" vertex="1" parent="Fm_gpZ8SLg755O0Aljr6-1">
          <mxGeometry x="2230" y="-454.62" width="120" height="60" as="geometry" />
        </mxCell>
        <mxCell id="Fm_gpZ8SLg755O0Aljr6-277" value="主内存" style="text;html=1;strokeColor=none;fillColor=none;align=center;verticalAlign=middle;whiteSpace=wrap;rounded=0;" vertex="1" parent="Fm_gpZ8SLg755O0Aljr6-1">
          <mxGeometry x="1960" y="-679" width="80" height="20" as="geometry" />
        </mxCell>
        <mxCell id="Fm_gpZ8SLg755O0Aljr6-278" value="高速缓存" style="text;html=1;strokeColor=none;fillColor=none;align=center;verticalAlign=middle;whiteSpace=wrap;rounded=0;" vertex="1" parent="Fm_gpZ8SLg755O0Aljr6-1">
          <mxGeometry x="2250" y="-685" width="80" height="20" as="geometry" />
        </mxCell>
        <mxCell id="Fm_gpZ8SLg755O0Aljr6-279" value="" style="endArrow=classic;html=1;strokeColor=#FF8000;strokeWidth=1;entryX=0;entryY=0.5;entryDx=0;entryDy=0;" edge="1" parent="Fm_gpZ8SLg755O0Aljr6-1" target="Fm_gpZ8SLg755O0Aljr6-273">
          <mxGeometry width="50" height="50" relative="1" as="geometry">
            <mxPoint x="2060" y="-530" as="sourcePoint" />
            <mxPoint x="2110" y="-580" as="targetPoint" />
          </mxGeometry>
        </mxCell>
        <mxCell id="Fm_gpZ8SLg755O0Aljr6-281" value="" style="endArrow=classic;html=1;strokeColor=#FF8000;strokeWidth=1;exitX=1;exitY=0.5;exitDx=0;exitDy=0;entryX=0;entryY=0.5;entryDx=0;entryDy=0;" edge="1" parent="Fm_gpZ8SLg755O0Aljr6-1" source="Fm_gpZ8SLg755O0Aljr6-269" target="Fm_gpZ8SLg755O0Aljr6-275">
          <mxGeometry width="50" height="50" relative="1" as="geometry">
            <mxPoint x="2110" y="-350" as="sourcePoint" />
            <mxPoint x="2160" y="-400" as="targetPoint" />
          </mxGeometry>
        </mxCell>
        <mxCell id="Fm_gpZ8SLg755O0Aljr6-284" value="" style="endArrow=classic;html=1;strokeColor=#FF8000;strokeWidth=1;exitX=1;exitY=0.5;exitDx=0;exitDy=0;" edge="1" parent="Fm_gpZ8SLg755O0Aljr6-1" source="Fm_gpZ8SLg755O0Aljr6-270">
          <mxGeometry width="50" height="50" relative="1" as="geometry">
            <mxPoint x="2140" y="-330" as="sourcePoint" />
            <mxPoint x="2230" y="-420" as="targetPoint" />
          </mxGeometry>
        </mxCell>
        <mxCell id="Fm_gpZ8SLg755O0Aljr6-285" value="" style="endArrow=classic;html=1;strokeColor=#FF8000;strokeWidth=1;exitX=1;exitY=0.5;exitDx=0;exitDy=0;entryX=0;entryY=0.5;entryDx=0;entryDy=0;" edge="1" parent="Fm_gpZ8SLg755O0Aljr6-1" source="Fm_gpZ8SLg755O0Aljr6-271" target="Fm_gpZ8SLg755O0Aljr6-274">
          <mxGeometry width="50" height="50" relative="1" as="geometry">
            <mxPoint x="2110" y="-340" as="sourcePoint" />
            <mxPoint x="2160" y="-390" as="targetPoint" />
          </mxGeometry>
        </mxCell>
        <mxCell id="Fm_gpZ8SLg755O0Aljr6-287" value="2路缓存简易图，可以看到index0、1都在way=0路缓存行，index=2,3映射在way=1路缓存" style="text;html=1;strokeColor=none;fillColor=none;align=center;verticalAlign=middle;whiteSpace=wrap;rounded=0;" vertex="1" parent="Fm_gpZ8SLg755O0Aljr6-1">
          <mxGeometry x="2010" y="-720" width="320" height="20" as="geometry" />
        </mxCell>
        <mxCell id="Fm_gpZ8SLg755O0Aljr6-290" value="当一个变量修改M时候，其他CPU处理的变量值都需置为无效，重新读取主内存数据频繁修改影响性能" style="whiteSpace=wrap;html=1;rounded=0;dashed=1;" vertex="1" parent="Fm_gpZ8SLg755O0Aljr6-1">
          <mxGeometry x="1700" y="-260" width="310" height="60" as="geometry" />
        </mxCell>
        <mxCell id="Fm_gpZ8SLg755O0Aljr6-293" value="" style="endArrow=classic;html=1;strokeColor=#FF0000;strokeWidth=2;exitX=0.5;exitY=1;exitDx=0;exitDy=0;entryX=0.1;entryY=0.5;entryDx=0;entryDy=0;entryPerimeter=0;" edge="1" parent="Fm_gpZ8SLg755O0Aljr6-1" source="Fm_gpZ8SLg755O0Aljr6-248" target="Fm_gpZ8SLg755O0Aljr6-299">
          <mxGeometry width="50" height="50" relative="1" as="geometry">
            <mxPoint x="1660" y="30" as="sourcePoint" />
            <mxPoint x="1710" y="-20" as="targetPoint" />
            <Array as="points">
              <mxPoint x="1560" y="-15" />
            </Array>
          </mxGeometry>
        </mxCell>
        <mxCell id="Fm_gpZ8SLg755O0Aljr6-294" value="避免伪共享，不同的位操作系统" style="edgeLabel;html=1;align=center;verticalAlign=middle;resizable=0;points=[];" vertex="1" connectable="0" parent="Fm_gpZ8SLg755O0Aljr6-293">
          <mxGeometry x="-0.1446" y="1" relative="1" as="geometry">
            <mxPoint as="offset" />
          </mxGeometry>
        </mxCell>
        <mxCell id="Fm_gpZ8SLg755O0Aljr6-295" value="JDK8前，数据填充" style="rounded=1;whiteSpace=wrap;html=1;" vertex="1" parent="Fm_gpZ8SLg755O0Aljr6-1">
          <mxGeometry x="1710" y="-100" width="120" height="60" as="geometry" />
        </mxCell>
        <mxCell id="Fm_gpZ8SLg755O0Aljr6-298" value="" style="edgeStyle=orthogonalEdgeStyle;rounded=0;orthogonalLoop=1;jettySize=auto;html=1;strokeColor=#FF0000;strokeWidth=2;" edge="1" parent="Fm_gpZ8SLg755O0Aljr6-1" source="Fm_gpZ8SLg755O0Aljr6-296" target="Fm_gpZ8SLg755O0Aljr6-297">
          <mxGeometry relative="1" as="geometry" />
        </mxCell>
        <mxCell id="Fm_gpZ8SLg755O0Aljr6-296" value="JDK8，@Contented注解" style="rounded=1;whiteSpace=wrap;html=1;" vertex="1" parent="Fm_gpZ8SLg755O0Aljr6-1">
          <mxGeometry x="1710" y="20" width="120" height="60" as="geometry" />
        </mxCell>
        <mxCell id="Fm_gpZ8SLg755O0Aljr6-297" value="依赖&lt;span style=&quot;color: rgb(34 , 34 , 34) ; font-family: , , &amp;#34;apple color emoji&amp;#34; , &amp;#34;segoe ui emoji&amp;#34; , &amp;#34;segoe ui symbol&amp;#34; , &amp;#34;segoe ui&amp;#34; , &amp;#34;pingfang sc&amp;#34; , &amp;#34;hiragino sans gb&amp;#34; , &amp;#34;microsoft yahei&amp;#34; , &amp;#34;helvetica neue&amp;#34; , &amp;#34;helvetica&amp;#34; , &amp;#34;arial&amp;#34; , sans-serif ; font-size: 16px ; letter-spacing: 0.24px ; text-align: left ; background-color: rgba(255 , 255 , 255 , 0.9)&quot;&gt;虚拟机参数-XX:-RestrictContended&lt;/span&gt;" style="whiteSpace=wrap;html=1;rounded=1;" vertex="1" parent="Fm_gpZ8SLg755O0Aljr6-1">
          <mxGeometry x="1910" y="20" width="120" height="60" as="geometry" />
        </mxCell>
        <mxCell id="Fm_gpZ8SLg755O0Aljr6-299" value="" style="shape=curlyBracket;whiteSpace=wrap;html=1;rounded=1;" vertex="1" parent="Fm_gpZ8SLg755O0Aljr6-1">
          <mxGeometry x="1690" y="-100" width="20" height="170" as="geometry" />
        </mxCell>
      </root>
    </mxGraphModel>
  </diagram>
</mxfile>
